<?xml version="1.0" encoding="UTF-8" standalone="no"?>
<!DOCTYPE svg PUBLIC "-//W3C//DTD SVG 1.1//EN"
 "http://www.w3.org/Graphics/SVG/1.1/DTD/svg11.dtd">
<!-- Generated by graphviz version 2.47.1 (0)
 -->
<!-- Title: avx Pages: 1 -->
<svg width="260pt" height="105pt"
 viewBox="0.00 0.00 260.00 104.50" xmlns="http://www.w3.org/2000/svg" xmlns:xlink="http://www.w3.org/1999/xlink">
<g id="graph0" class="graph" transform="scale(1 1) rotate(0) translate(4 100.5)">
<title>avx</title>
<!-- areg -->
<g id="node1" class="node">
<title>areg</title>
<polygon fill="white" stroke="black" points="0,-0.5 0,-92.5 54,-92.5 54,-0.5 0,-0.5"/>
<text text-anchor="middle" x="27" y="-77.3" font-family="Helvetica,sans-Serif" font-size="14.00">a0</text>
<polyline fill="none" stroke="black" points="0,-69.5 54,-69.5 "/>
<text text-anchor="middle" x="27" y="-54.3" font-family="Helvetica,sans-Serif" font-size="14.00">a1</text>
<polyline fill="none" stroke="black" points="0,-46.5 54,-46.5 "/>
<text text-anchor="middle" x="27" y="-31.3" font-family="Helvetica,sans-Serif" font-size="14.00">a2</text>
<polyline fill="none" stroke="black" points="0,-23.5 54,-23.5 "/>
<text text-anchor="middle" x="27" y="-8.3" font-family="Helvetica,sans-Serif" font-size="14.00">a3</text>
</g>
<!-- breg -->
<g id="node2" class="node">
<title>breg</title>
<polygon fill="white" stroke="black" points="99,-0.5 99,-92.5 153,-92.5 153,-0.5 99,-0.5"/>
<text text-anchor="middle" x="126" y="-77.3" font-family="Helvetica,sans-Serif" font-size="14.00">b0</text>
<polyline fill="none" stroke="black" points="99,-69.5 153,-69.5 "/>
<text text-anchor="middle" x="126" y="-54.3" font-family="Helvetica,sans-Serif" font-size="14.00">b1</text>
<polyline fill="none" stroke="black" points="99,-46.5 153,-46.5 "/>
<text text-anchor="middle" x="126" y="-31.3" font-family="Helvetica,sans-Serif" font-size="14.00">b2</text>
<polyline fill="none" stroke="black" points="99,-23.5 153,-23.5 "/>
<text text-anchor="middle" x="126" y="-8.3" font-family="Helvetica,sans-Serif" font-size="14.00">b3</text>
</g>
<!-- areg&#45;&gt;breg -->
<g id="edge1" class="edge">
<title>areg:a0&#45;&gt;breg:b0</title>
<path fill="none" stroke="white" d="M54,-81.5C70.09,-81.5 76.47,-81.5 88.77,-81.5"/>
<polygon fill="white" stroke="white" points="89,-85 99,-81.5 89,-78 89,-85"/>
<text text-anchor="middle" x="76.5" y="-85.3" font-family="Times,serif" font-size="14.00" fill="white">+</text>
</g>
<!-- areg&#45;&gt;breg -->
<g id="edge2" class="edge">
<title>areg:a1&#45;&gt;breg:b1</title>
<path fill="none" stroke="white" d="M54,-58.5C70.09,-58.5 76.47,-58.5 88.77,-58.5"/>
<polygon fill="white" stroke="white" points="89,-62 99,-58.5 89,-55 89,-62"/>
<text text-anchor="middle" x="76.5" y="-62.3" font-family="Times,serif" font-size="14.00" fill="white">+</text>
</g>
<!-- areg&#45;&gt;breg -->
<g id="edge3" class="edge">
<title>areg:a2&#45;&gt;breg:b2</title>
<path fill="none" stroke="white" d="M54,-34.5C70.09,-34.5 76.47,-34.5 88.77,-34.5"/>
<polygon fill="white" stroke="white" points="89,-38 99,-34.5 89,-31 89,-38"/>
<text text-anchor="middle" x="76.5" y="-38.3" font-family="Times,serif" font-size="14.00" fill="white">+</text>
</g>
<!-- areg&#45;&gt;breg -->
<g id="edge4" class="edge">
<title>areg:a3&#45;&gt;breg:b3</title>
<path fill="none" stroke="white" d="M54,-11.5C70.09,-11.5 76.47,-11.5 88.77,-11.5"/>
<polygon fill="white" stroke="white" points="89,-15 99,-11.5 89,-8 89,-15"/>
<text text-anchor="middle" x="76.5" y="-15.3" font-family="Times,serif" font-size="14.00" fill="white">+</text>
</g>
<!-- creg -->
<g id="node3" class="node">
<title>creg</title>
<polygon fill="white" stroke="black" points="198,-0.5 198,-92.5 252,-92.5 252,-0.5 198,-0.5"/>
<text text-anchor="middle" x="225" y="-77.3" font-family="Helvetica,sans-Serif" font-size="14.00">c0</text>
<polyline fill="none" stroke="black" points="198,-69.5 252,-69.5 "/>
<text text-anchor="middle" x="225" y="-54.3" font-family="Helvetica,sans-Serif" font-size="14.00">c1</text>
<polyline fill="none" stroke="black" points="198,-46.5 252,-46.5 "/>
<text text-anchor="middle" x="225" y="-31.3" font-family="Helvetica,sans-Serif" font-size="14.00">c2</text>
<polyline fill="none" stroke="black" points="198,-23.5 252,-23.5 "/>
<text text-anchor="middle" x="225" y="-8.3" font-family="Helvetica,sans-Serif" font-size="14.00">c3</text>
</g>
<!-- breg&#45;&gt;creg -->
<g id="edge5" class="edge">
<title>breg:b0&#45;&gt;creg:c0</title>
<path fill="none" stroke="white" d="M153,-81.5C169.09,-81.5 175.47,-81.5 187.77,-81.5"/>
<polygon fill="white" stroke="white" points="188,-85 198,-81.5 188,-78 188,-85"/>
<text text-anchor="middle" x="175.5" y="-85.3" font-family="Times,serif" font-size="14.00" fill="white">=</text>
</g>
<!-- breg&#45;&gt;creg -->
<g id="edge6" class="edge">
<title>breg:b1&#45;&gt;creg:c1</title>
<path fill="none" stroke="white" d="M153,-58.5C169.09,-58.5 175.47,-58.5 187.77,-58.5"/>
<polygon fill="white" stroke="white" points="188,-62 198,-58.5 188,-55 188,-62"/>
<text text-anchor="middle" x="175.5" y="-62.3" font-family="Times,serif" font-size="14.00" fill="white">=</text>
</g>
<!-- breg&#45;&gt;creg -->
<g id="edge7" class="edge">
<title>breg:b2&#45;&gt;creg:c2</title>
<path fill="none" stroke="white" d="M153,-34.5C169.09,-34.5 175.47,-34.5 187.77,-34.5"/>
<polygon fill="white" stroke="white" points="188,-38 198,-34.5 188,-31 188,-38"/>
<text text-anchor="middle" x="175.5" y="-38.3" font-family="Times,serif" font-size="14.00" fill="white">=</text>
</g>
<!-- breg&#45;&gt;creg -->
<g id="edge8" class="edge">
<title>breg:b3&#45;&gt;creg:c3</title>
<path fill="none" stroke="white" d="M153,-11.5C169.09,-11.5 175.47,-11.5 187.77,-11.5"/>
<polygon fill="white" stroke="white" points="188,-15 198,-11.5 188,-8 188,-15"/>
<text text-anchor="middle" x="175.5" y="-15.3" font-family="Times,serif" font-size="14.00" fill="white">=</text>
</g>
</g>
</svg>
