<?xml version="1.0" encoding="utf-8" standalone="no"?>
<!DOCTYPE svg PUBLIC "-//W3C//DTD SVG 1.1//EN"
  "http://www.w3.org/Graphics/SVG/1.1/DTD/svg11.dtd">
<svg height="432pt" version="1.1" viewBox="0 0 576 432" width="576pt" xmlns="http://www.w3.org/2000/svg" xmlns:xlink="http://www.w3.org/1999/xlink">
 <metadata>
  <rdf:RDF xmlns:cc="http://creativecommons.org/ns#" xmlns:dc="http://purl.org/dc/elements/1.1/" xmlns:rdf="http://www.w3.org/1999/02/22-rdf-syntax-ns#">
   <cc:Work>
    <dc:type rdf:resource="http://purl.org/dc/dcmitype/StillImage"/>
    <dc:date>2021-04-20T12:00:18.582248</dc:date>
    <dc:format>image/svg+xml</dc:format>
    <dc:creator>
     <cc:Agent>
      <dc:title>Matplotlib v3.4.1, https://matplotlib.org/</dc:title>
     </cc:Agent>
    </dc:creator>
   </cc:Work>
  </rdf:RDF>
 </metadata>
 <defs>
  <style type="text/css">*{stroke-linecap:butt;stroke-linejoin:round;}</style>
 </defs>
 <g id="figure_1">
  <g id="patch_1">
   <path d="M 0 432 
L 576 432 
L 576 0 
L 0 0 
z
" style="fill:none;"/>
  </g>
  <g id="axes_1">
   <g id="patch_2">
    <path d="M 130.75 390.04 
L 565.2 390.04 
L 565.2 25.44 
L 130.75 25.44 
z
" style="fill:#ffffff;"/>
   </g>
   <g id="patch_3">
    <path clip-path="url(#pa488297af7)" d="M 130.75 361.507573 
L 235.597492 361.507573 
L 235.597492 349.547873 
L 130.75 349.547873 
z
" style="fill:#1f77b4;"/>
   </g>
   <g id="patch_4">
    <path clip-path="url(#pa488297af7)" d="M 130.75 327.337001 
L 235.994767 327.337001 
L 235.994767 315.377301 
L 130.75 315.377301 
z
" style="fill:#1f77b4;"/>
   </g>
   <g id="patch_5">
    <path clip-path="url(#pa488297af7)" d="M 130.75 293.166429 
L 239.504029 293.166429 
L 239.504029 281.206729 
L 130.75 281.206729 
z
" style="fill:#1f77b4;"/>
   </g>
   <g id="patch_6">
    <path clip-path="url(#pa488297af7)" d="M 130.75 258.995858 
L 239.66956 258.995858 
L 239.66956 247.036157 
L 130.75 247.036157 
z
" style="fill:#1f77b4;"/>
   </g>
   <g id="patch_7">
    <path clip-path="url(#pa488297af7)" d="M 130.75 224.825286 
L 245.628685 224.825286 
L 245.628685 212.865586 
L 130.75 212.865586 
z
" style="fill:#1f77b4;"/>
   </g>
   <g id="patch_8">
    <path clip-path="url(#pa488297af7)" d="M 130.75 190.654714 
L 262.97636 190.654714 
L 262.97636 178.695014 
L 130.75 178.695014 
z
" style="fill:#1f77b4;"/>
   </g>
   <g id="patch_9">
    <path clip-path="url(#pa488297af7)" d="M 130.75 156.484142 
L 277.178941 156.484142 
L 277.178941 144.524442 
L 130.75 144.524442 
z
" style="fill:#1f77b4;"/>
   </g>
   <g id="patch_10">
    <path clip-path="url(#pa488297af7)" d="M 130.75 122.313571 
L 334.055477 122.313571 
L 334.055477 110.353871 
L 130.75 110.353871 
z
" style="fill:#1f77b4;"/>
   </g>
   <g id="patch_11">
    <path clip-path="url(#pa488297af7)" d="M 130.75 88.142999 
L 353.952333 88.142999 
L 353.952333 76.183299 
L 130.75 76.183299 
z
" style="fill:#1f77b4;"/>
   </g>
   <g id="patch_12">
    <path clip-path="url(#pa488297af7)" d="M 130.75 53.972427 
L 544.511905 53.972427 
L 544.511905 42.012727 
L 130.75 42.012727 
z
" style="fill:#1f77b4;"/>
   </g>
   <g id="patch_13">
    <path clip-path="url(#pa488297af7)" d="M 130.75 373.467273 
L 256.979234 373.467273 
L 256.979234 361.507573 
L 130.75 361.507573 
z
" style="fill:#ff7f0e;"/>
   </g>
   <g id="patch_14">
    <path clip-path="url(#pa488297af7)" d="M 130.75 339.296701 
L 243.939713 339.296701 
L 243.939713 327.337001 
L 130.75 327.337001 
z
" style="fill:#ff7f0e;"/>
   </g>
   <g id="patch_15">
    <path clip-path="url(#pa488297af7)" d="M 130.75 305.126129 
L 210.692733 305.126129 
L 210.692733 293.166429 
L 130.75 293.166429 
z
" style="fill:#ff7f0e;"/>
   </g>
   <g id="patch_16">
    <path clip-path="url(#pa488297af7)" d="M 130.75 270.955558 
L 231.983764 270.955558 
L 231.983764 258.995858 
L 130.75 258.995858 
z
" style="fill:#ff7f0e;"/>
   </g>
   <g id="patch_17">
    <path clip-path="url(#pa488297af7)" d="M 130.75 236.784986 
L 240.806547 236.784986 
L 240.806547 224.825286 
L 130.75 224.825286 
z
" style="fill:#ff7f0e;"/>
   </g>
   <g id="patch_18">
    <path clip-path="url(#pa488297af7)" d="M 130.75 202.614414 
L 405.605923 202.614414 
L 405.605923 190.654714 
L 130.75 190.654714 
z
" style="fill:#ff7f0e;"/>
   </g>
   <g id="patch_19">
    <path clip-path="url(#pa488297af7)" d="M 130.75 168.443843 
L 216.476272 168.443843 
L 216.476272 156.484142 
L 130.75 156.484142 
z
" style="fill:#ff7f0e;"/>
   </g>
   <g id="patch_20">
    <path clip-path="url(#pa488297af7)" d="M 130.75 134.273271 
L 172.079094 134.273271 
L 172.079094 122.313571 
L 130.75 122.313571 
z
" style="fill:#ff7f0e;"/>
   </g>
   <g id="patch_21">
    <path clip-path="url(#pa488297af7)" d="M 130.75 100.102699 
L 204.329046 100.102699 
L 204.329046 88.142999 
L 130.75 88.142999 
z
" style="fill:#ff7f0e;"/>
   </g>
   <g id="patch_22">
    <path clip-path="url(#pa488297af7)" d="M 130.75 65.932127 
L 159.275535 65.932127 
L 159.275535 53.972427 
L 130.75 53.972427 
z
" style="fill:#ff7f0e;"/>
   </g>
   <g id="matplotlib.axis_1">
    <g id="xtick_1">
     <g id="line2d_1">
      <defs>
       <path d="M 0 0 
L 0 3.5 
" id="ma19d267341" style="stroke:#ffffff;stroke-width:0.8;"/>
      </defs>
      <g>
       <use style="fill:#ffffff;stroke:#ffffff;stroke-width:0.8;" x="130.75" xlink:href="#ma19d267341" y="390.04"/>
      </g>
     </g>
     <g id="text_1">
      <!-- 0 -->
      <g style="fill:#ffffff;" transform="translate(127.56875 404.638438)scale(0.1 -0.1)">
       <defs>
        <path d="M 2034 4250 
Q 1547 4250 1301 3770 
Q 1056 3291 1056 2328 
Q 1056 1369 1301 889 
Q 1547 409 2034 409 
Q 2525 409 2770 889 
Q 3016 1369 3016 2328 
Q 3016 3291 2770 3770 
Q 2525 4250 2034 4250 
z
M 2034 4750 
Q 2819 4750 3233 4129 
Q 3647 3509 3647 2328 
Q 3647 1150 3233 529 
Q 2819 -91 2034 -91 
Q 1250 -91 836 529 
Q 422 1150 422 2328 
Q 422 3509 836 4129 
Q 1250 4750 2034 4750 
z
" id="DejaVuSans-30" transform="scale(0.015625)"/>
       </defs>
       <use xlink:href="#DejaVuSans-30"/>
      </g>
     </g>
    </g>
    <g id="xtick_2">
     <g id="line2d_2">
      <g>
       <use style="fill:#ffffff;stroke:#ffffff;stroke-width:0.8;" x="194.689424" xlink:href="#ma19d267341" y="390.04"/>
      </g>
     </g>
     <g id="text_2">
      <!-- 2 -->
      <g style="fill:#ffffff;" transform="translate(191.508174 404.638438)scale(0.1 -0.1)">
       <defs>
        <path d="M 1228 531 
L 3431 531 
L 3431 0 
L 469 0 
L 469 531 
Q 828 903 1448 1529 
Q 2069 2156 2228 2338 
Q 2531 2678 2651 2914 
Q 2772 3150 2772 3378 
Q 2772 3750 2511 3984 
Q 2250 4219 1831 4219 
Q 1534 4219 1204 4116 
Q 875 4013 500 3803 
L 500 4441 
Q 881 4594 1212 4672 
Q 1544 4750 1819 4750 
Q 2544 4750 2975 4387 
Q 3406 4025 3406 3419 
Q 3406 3131 3298 2873 
Q 3191 2616 2906 2266 
Q 2828 2175 2409 1742 
Q 1991 1309 1228 531 
z
" id="DejaVuSans-32" transform="scale(0.015625)"/>
       </defs>
       <use xlink:href="#DejaVuSans-32"/>
      </g>
     </g>
    </g>
    <g id="xtick_3">
     <g id="line2d_3">
      <g>
       <use style="fill:#ffffff;stroke:#ffffff;stroke-width:0.8;" x="258.628847" xlink:href="#ma19d267341" y="390.04"/>
      </g>
     </g>
     <g id="text_3">
      <!-- 4 -->
      <g style="fill:#ffffff;" transform="translate(255.447597 404.638438)scale(0.1 -0.1)">
       <defs>
        <path d="M 2419 4116 
L 825 1625 
L 2419 1625 
L 2419 4116 
z
M 2253 4666 
L 3047 4666 
L 3047 1625 
L 3713 1625 
L 3713 1100 
L 3047 1100 
L 3047 0 
L 2419 0 
L 2419 1100 
L 313 1100 
L 313 1709 
L 2253 4666 
z
" id="DejaVuSans-34" transform="scale(0.015625)"/>
       </defs>
       <use xlink:href="#DejaVuSans-34"/>
      </g>
     </g>
    </g>
    <g id="xtick_4">
     <g id="line2d_4">
      <g>
       <use style="fill:#ffffff;stroke:#ffffff;stroke-width:0.8;" x="322.568271" xlink:href="#ma19d267341" y="390.04"/>
      </g>
     </g>
     <g id="text_4">
      <!-- 6 -->
      <g style="fill:#ffffff;" transform="translate(319.387021 404.638438)scale(0.1 -0.1)">
       <defs>
        <path d="M 2113 2584 
Q 1688 2584 1439 2293 
Q 1191 2003 1191 1497 
Q 1191 994 1439 701 
Q 1688 409 2113 409 
Q 2538 409 2786 701 
Q 3034 994 3034 1497 
Q 3034 2003 2786 2293 
Q 2538 2584 2113 2584 
z
M 3366 4563 
L 3366 3988 
Q 3128 4100 2886 4159 
Q 2644 4219 2406 4219 
Q 1781 4219 1451 3797 
Q 1122 3375 1075 2522 
Q 1259 2794 1537 2939 
Q 1816 3084 2150 3084 
Q 2853 3084 3261 2657 
Q 3669 2231 3669 1497 
Q 3669 778 3244 343 
Q 2819 -91 2113 -91 
Q 1303 -91 875 529 
Q 447 1150 447 2328 
Q 447 3434 972 4092 
Q 1497 4750 2381 4750 
Q 2619 4750 2861 4703 
Q 3103 4656 3366 4563 
z
" id="DejaVuSans-36" transform="scale(0.015625)"/>
       </defs>
       <use xlink:href="#DejaVuSans-36"/>
      </g>
     </g>
    </g>
    <g id="xtick_5">
     <g id="line2d_5">
      <g>
       <use style="fill:#ffffff;stroke:#ffffff;stroke-width:0.8;" x="386.507695" xlink:href="#ma19d267341" y="390.04"/>
      </g>
     </g>
     <g id="text_5">
      <!-- 8 -->
      <g style="fill:#ffffff;" transform="translate(383.326445 404.638438)scale(0.1 -0.1)">
       <defs>
        <path d="M 2034 2216 
Q 1584 2216 1326 1975 
Q 1069 1734 1069 1313 
Q 1069 891 1326 650 
Q 1584 409 2034 409 
Q 2484 409 2743 651 
Q 3003 894 3003 1313 
Q 3003 1734 2745 1975 
Q 2488 2216 2034 2216 
z
M 1403 2484 
Q 997 2584 770 2862 
Q 544 3141 544 3541 
Q 544 4100 942 4425 
Q 1341 4750 2034 4750 
Q 2731 4750 3128 4425 
Q 3525 4100 3525 3541 
Q 3525 3141 3298 2862 
Q 3072 2584 2669 2484 
Q 3125 2378 3379 2068 
Q 3634 1759 3634 1313 
Q 3634 634 3220 271 
Q 2806 -91 2034 -91 
Q 1263 -91 848 271 
Q 434 634 434 1313 
Q 434 1759 690 2068 
Q 947 2378 1403 2484 
z
M 1172 3481 
Q 1172 3119 1398 2916 
Q 1625 2713 2034 2713 
Q 2441 2713 2670 2916 
Q 2900 3119 2900 3481 
Q 2900 3844 2670 4047 
Q 2441 4250 2034 4250 
Q 1625 4250 1398 4047 
Q 1172 3844 1172 3481 
z
" id="DejaVuSans-38" transform="scale(0.015625)"/>
       </defs>
       <use xlink:href="#DejaVuSans-38"/>
      </g>
     </g>
    </g>
    <g id="xtick_6">
     <g id="line2d_6">
      <g>
       <use style="fill:#ffffff;stroke:#ffffff;stroke-width:0.8;" x="450.447118" xlink:href="#ma19d267341" y="390.04"/>
      </g>
     </g>
     <g id="text_6">
      <!-- 10 -->
      <g style="fill:#ffffff;" transform="translate(444.084618 404.638438)scale(0.1 -0.1)">
       <defs>
        <path d="M 794 531 
L 1825 531 
L 1825 4091 
L 703 3866 
L 703 4441 
L 1819 4666 
L 2450 4666 
L 2450 531 
L 3481 531 
L 3481 0 
L 794 0 
L 794 531 
z
" id="DejaVuSans-31" transform="scale(0.015625)"/>
       </defs>
       <use xlink:href="#DejaVuSans-31"/>
       <use x="63.623047" xlink:href="#DejaVuSans-30"/>
      </g>
     </g>
    </g>
    <g id="xtick_7">
     <g id="line2d_7">
      <g>
       <use style="fill:#ffffff;stroke:#ffffff;stroke-width:0.8;" x="514.386542" xlink:href="#ma19d267341" y="390.04"/>
      </g>
     </g>
     <g id="text_7">
      <!-- 12 -->
      <g style="fill:#ffffff;" transform="translate(508.024042 404.638438)scale(0.1 -0.1)">
       <use xlink:href="#DejaVuSans-31"/>
       <use x="63.623047" xlink:href="#DejaVuSans-32"/>
      </g>
     </g>
    </g>
    <g id="text_8">
     <!-- % Runtime -->
     <g style="fill:#ffffff;" transform="translate(320.752344 418.316562)scale(0.1 -0.1)">
      <defs>
       <path d="M 4653 2053 
Q 4381 2053 4226 1822 
Q 4072 1591 4072 1178 
Q 4072 772 4226 539 
Q 4381 306 4653 306 
Q 4919 306 5073 539 
Q 5228 772 5228 1178 
Q 5228 1588 5073 1820 
Q 4919 2053 4653 2053 
z
M 4653 2450 
Q 5147 2450 5437 2106 
Q 5728 1763 5728 1178 
Q 5728 594 5436 251 
Q 5144 -91 4653 -91 
Q 4153 -91 3862 251 
Q 3572 594 3572 1178 
Q 3572 1766 3864 2108 
Q 4156 2450 4653 2450 
z
M 1428 4353 
Q 1159 4353 1004 4120 
Q 850 3888 850 3481 
Q 850 3069 1003 2837 
Q 1156 2606 1428 2606 
Q 1700 2606 1854 2837 
Q 2009 3069 2009 3481 
Q 2009 3884 1853 4118 
Q 1697 4353 1428 4353 
z
M 4250 4750 
L 4750 4750 
L 1831 -91 
L 1331 -91 
L 4250 4750 
z
M 1428 4750 
Q 1922 4750 2215 4408 
Q 2509 4066 2509 3481 
Q 2509 2891 2217 2550 
Q 1925 2209 1428 2209 
Q 931 2209 642 2551 
Q 353 2894 353 3481 
Q 353 4063 643 4406 
Q 934 4750 1428 4750 
z
" id="DejaVuSans-25" transform="scale(0.015625)"/>
       <path id="DejaVuSans-20" transform="scale(0.015625)"/>
       <path d="M 2841 2188 
Q 3044 2119 3236 1894 
Q 3428 1669 3622 1275 
L 4263 0 
L 3584 0 
L 2988 1197 
Q 2756 1666 2539 1819 
Q 2322 1972 1947 1972 
L 1259 1972 
L 1259 0 
L 628 0 
L 628 4666 
L 2053 4666 
Q 2853 4666 3247 4331 
Q 3641 3997 3641 3322 
Q 3641 2881 3436 2590 
Q 3231 2300 2841 2188 
z
M 1259 4147 
L 1259 2491 
L 2053 2491 
Q 2509 2491 2742 2702 
Q 2975 2913 2975 3322 
Q 2975 3731 2742 3939 
Q 2509 4147 2053 4147 
L 1259 4147 
z
" id="DejaVuSans-52" transform="scale(0.015625)"/>
       <path d="M 544 1381 
L 544 3500 
L 1119 3500 
L 1119 1403 
Q 1119 906 1312 657 
Q 1506 409 1894 409 
Q 2359 409 2629 706 
Q 2900 1003 2900 1516 
L 2900 3500 
L 3475 3500 
L 3475 0 
L 2900 0 
L 2900 538 
Q 2691 219 2414 64 
Q 2138 -91 1772 -91 
Q 1169 -91 856 284 
Q 544 659 544 1381 
z
M 1991 3584 
L 1991 3584 
z
" id="DejaVuSans-75" transform="scale(0.015625)"/>
       <path d="M 3513 2113 
L 3513 0 
L 2938 0 
L 2938 2094 
Q 2938 2591 2744 2837 
Q 2550 3084 2163 3084 
Q 1697 3084 1428 2787 
Q 1159 2491 1159 1978 
L 1159 0 
L 581 0 
L 581 3500 
L 1159 3500 
L 1159 2956 
Q 1366 3272 1645 3428 
Q 1925 3584 2291 3584 
Q 2894 3584 3203 3211 
Q 3513 2838 3513 2113 
z
" id="DejaVuSans-6e" transform="scale(0.015625)"/>
       <path d="M 1172 4494 
L 1172 3500 
L 2356 3500 
L 2356 3053 
L 1172 3053 
L 1172 1153 
Q 1172 725 1289 603 
Q 1406 481 1766 481 
L 2356 481 
L 2356 0 
L 1766 0 
Q 1100 0 847 248 
Q 594 497 594 1153 
L 594 3053 
L 172 3053 
L 172 3500 
L 594 3500 
L 594 4494 
L 1172 4494 
z
" id="DejaVuSans-74" transform="scale(0.015625)"/>
       <path d="M 603 3500 
L 1178 3500 
L 1178 0 
L 603 0 
L 603 3500 
z
M 603 4863 
L 1178 4863 
L 1178 4134 
L 603 4134 
L 603 4863 
z
" id="DejaVuSans-69" transform="scale(0.015625)"/>
       <path d="M 3328 2828 
Q 3544 3216 3844 3400 
Q 4144 3584 4550 3584 
Q 5097 3584 5394 3201 
Q 5691 2819 5691 2113 
L 5691 0 
L 5113 0 
L 5113 2094 
Q 5113 2597 4934 2840 
Q 4756 3084 4391 3084 
Q 3944 3084 3684 2787 
Q 3425 2491 3425 1978 
L 3425 0 
L 2847 0 
L 2847 2094 
Q 2847 2600 2669 2842 
Q 2491 3084 2119 3084 
Q 1678 3084 1418 2786 
Q 1159 2488 1159 1978 
L 1159 0 
L 581 0 
L 581 3500 
L 1159 3500 
L 1159 2956 
Q 1356 3278 1631 3431 
Q 1906 3584 2284 3584 
Q 2666 3584 2933 3390 
Q 3200 3197 3328 2828 
z
" id="DejaVuSans-6d" transform="scale(0.015625)"/>
       <path d="M 3597 1894 
L 3597 1613 
L 953 1613 
Q 991 1019 1311 708 
Q 1631 397 2203 397 
Q 2534 397 2845 478 
Q 3156 559 3463 722 
L 3463 178 
Q 3153 47 2828 -22 
Q 2503 -91 2169 -91 
Q 1331 -91 842 396 
Q 353 884 353 1716 
Q 353 2575 817 3079 
Q 1281 3584 2069 3584 
Q 2775 3584 3186 3129 
Q 3597 2675 3597 1894 
z
M 3022 2063 
Q 3016 2534 2758 2815 
Q 2500 3097 2075 3097 
Q 1594 3097 1305 2825 
Q 1016 2553 972 2059 
L 3022 2063 
z
" id="DejaVuSans-65" transform="scale(0.015625)"/>
      </defs>
      <use xlink:href="#DejaVuSans-25"/>
      <use x="95.019531" xlink:href="#DejaVuSans-20"/>
      <use x="126.806641" xlink:href="#DejaVuSans-52"/>
      <use x="191.789062" xlink:href="#DejaVuSans-75"/>
      <use x="255.167969" xlink:href="#DejaVuSans-6e"/>
      <use x="318.546875" xlink:href="#DejaVuSans-74"/>
      <use x="357.755859" xlink:href="#DejaVuSans-69"/>
      <use x="385.539062" xlink:href="#DejaVuSans-6d"/>
      <use x="482.951172" xlink:href="#DejaVuSans-65"/>
     </g>
    </g>
   </g>
   <g id="matplotlib.axis_2">
    <g id="ytick_1">
     <g id="line2d_8">
      <defs>
       <path d="M 0 0 
L -3.5 0 
" id="m3ed6c14911" style="stroke:#ffffff;stroke-width:0.8;"/>
      </defs>
      <g>
       <use style="fill:#ffffff;stroke:#ffffff;stroke-width:0.8;" x="130.75" xlink:href="#m3ed6c14911" y="361.507573"/>
      </g>
     </g>
     <g id="text_9">
      <!-- meridional_flux_adjust -->
      <g style="fill:#ffffff;" transform="translate(11.201562 365.306791)scale(0.1 -0.1)">
       <defs>
        <path d="M 2631 2963 
Q 2534 3019 2420 3045 
Q 2306 3072 2169 3072 
Q 1681 3072 1420 2755 
Q 1159 2438 1159 1844 
L 1159 0 
L 581 0 
L 581 3500 
L 1159 3500 
L 1159 2956 
Q 1341 3275 1631 3429 
Q 1922 3584 2338 3584 
Q 2397 3584 2469 3576 
Q 2541 3569 2628 3553 
L 2631 2963 
z
" id="DejaVuSans-72" transform="scale(0.015625)"/>
        <path d="M 2906 2969 
L 2906 4863 
L 3481 4863 
L 3481 0 
L 2906 0 
L 2906 525 
Q 2725 213 2448 61 
Q 2172 -91 1784 -91 
Q 1150 -91 751 415 
Q 353 922 353 1747 
Q 353 2572 751 3078 
Q 1150 3584 1784 3584 
Q 2172 3584 2448 3432 
Q 2725 3281 2906 2969 
z
M 947 1747 
Q 947 1113 1208 752 
Q 1469 391 1925 391 
Q 2381 391 2643 752 
Q 2906 1113 2906 1747 
Q 2906 2381 2643 2742 
Q 2381 3103 1925 3103 
Q 1469 3103 1208 2742 
Q 947 2381 947 1747 
z
" id="DejaVuSans-64" transform="scale(0.015625)"/>
        <path d="M 1959 3097 
Q 1497 3097 1228 2736 
Q 959 2375 959 1747 
Q 959 1119 1226 758 
Q 1494 397 1959 397 
Q 2419 397 2687 759 
Q 2956 1122 2956 1747 
Q 2956 2369 2687 2733 
Q 2419 3097 1959 3097 
z
M 1959 3584 
Q 2709 3584 3137 3096 
Q 3566 2609 3566 1747 
Q 3566 888 3137 398 
Q 2709 -91 1959 -91 
Q 1206 -91 779 398 
Q 353 888 353 1747 
Q 353 2609 779 3096 
Q 1206 3584 1959 3584 
z
" id="DejaVuSans-6f" transform="scale(0.015625)"/>
        <path d="M 2194 1759 
Q 1497 1759 1228 1600 
Q 959 1441 959 1056 
Q 959 750 1161 570 
Q 1363 391 1709 391 
Q 2188 391 2477 730 
Q 2766 1069 2766 1631 
L 2766 1759 
L 2194 1759 
z
M 3341 1997 
L 3341 0 
L 2766 0 
L 2766 531 
Q 2569 213 2275 61 
Q 1981 -91 1556 -91 
Q 1019 -91 701 211 
Q 384 513 384 1019 
Q 384 1609 779 1909 
Q 1175 2209 1959 2209 
L 2766 2209 
L 2766 2266 
Q 2766 2663 2505 2880 
Q 2244 3097 1772 3097 
Q 1472 3097 1187 3025 
Q 903 2953 641 2809 
L 641 3341 
Q 956 3463 1253 3523 
Q 1550 3584 1831 3584 
Q 2591 3584 2966 3190 
Q 3341 2797 3341 1997 
z
" id="DejaVuSans-61" transform="scale(0.015625)"/>
        <path d="M 603 4863 
L 1178 4863 
L 1178 0 
L 603 0 
L 603 4863 
z
" id="DejaVuSans-6c" transform="scale(0.015625)"/>
        <path d="M 3263 -1063 
L 3263 -1509 
L -63 -1509 
L -63 -1063 
L 3263 -1063 
z
" id="DejaVuSans-5f" transform="scale(0.015625)"/>
        <path d="M 2375 4863 
L 2375 4384 
L 1825 4384 
Q 1516 4384 1395 4259 
Q 1275 4134 1275 3809 
L 1275 3500 
L 2222 3500 
L 2222 3053 
L 1275 3053 
L 1275 0 
L 697 0 
L 697 3053 
L 147 3053 
L 147 3500 
L 697 3500 
L 697 3744 
Q 697 4328 969 4595 
Q 1241 4863 1831 4863 
L 2375 4863 
z
" id="DejaVuSans-66" transform="scale(0.015625)"/>
        <path d="M 3513 3500 
L 2247 1797 
L 3578 0 
L 2900 0 
L 1881 1375 
L 863 0 
L 184 0 
L 1544 1831 
L 300 3500 
L 978 3500 
L 1906 2253 
L 2834 3500 
L 3513 3500 
z
" id="DejaVuSans-78" transform="scale(0.015625)"/>
        <path d="M 603 3500 
L 1178 3500 
L 1178 -63 
Q 1178 -731 923 -1031 
Q 669 -1331 103 -1331 
L -116 -1331 
L -116 -844 
L 38 -844 
Q 366 -844 484 -692 
Q 603 -541 603 -63 
L 603 3500 
z
M 603 4863 
L 1178 4863 
L 1178 4134 
L 603 4134 
L 603 4863 
z
" id="DejaVuSans-6a" transform="scale(0.015625)"/>
        <path d="M 2834 3397 
L 2834 2853 
Q 2591 2978 2328 3040 
Q 2066 3103 1784 3103 
Q 1356 3103 1142 2972 
Q 928 2841 928 2578 
Q 928 2378 1081 2264 
Q 1234 2150 1697 2047 
L 1894 2003 
Q 2506 1872 2764 1633 
Q 3022 1394 3022 966 
Q 3022 478 2636 193 
Q 2250 -91 1575 -91 
Q 1294 -91 989 -36 
Q 684 19 347 128 
L 347 722 
Q 666 556 975 473 
Q 1284 391 1588 391 
Q 1994 391 2212 530 
Q 2431 669 2431 922 
Q 2431 1156 2273 1281 
Q 2116 1406 1581 1522 
L 1381 1569 
Q 847 1681 609 1914 
Q 372 2147 372 2553 
Q 372 3047 722 3315 
Q 1072 3584 1716 3584 
Q 2034 3584 2315 3537 
Q 2597 3491 2834 3397 
z
" id="DejaVuSans-73" transform="scale(0.015625)"/>
       </defs>
       <use xlink:href="#DejaVuSans-6d"/>
       <use x="97.412109" xlink:href="#DejaVuSans-65"/>
       <use x="158.935547" xlink:href="#DejaVuSans-72"/>
       <use x="200.048828" xlink:href="#DejaVuSans-69"/>
       <use x="227.832031" xlink:href="#DejaVuSans-64"/>
       <use x="291.308594" xlink:href="#DejaVuSans-69"/>
       <use x="319.091797" xlink:href="#DejaVuSans-6f"/>
       <use x="380.273438" xlink:href="#DejaVuSans-6e"/>
       <use x="443.652344" xlink:href="#DejaVuSans-61"/>
       <use x="504.931641" xlink:href="#DejaVuSans-6c"/>
       <use x="532.714844" xlink:href="#DejaVuSans-5f"/>
       <use x="582.714844" xlink:href="#DejaVuSans-66"/>
       <use x="617.919922" xlink:href="#DejaVuSans-6c"/>
       <use x="645.703125" xlink:href="#DejaVuSans-75"/>
       <use x="709.082031" xlink:href="#DejaVuSans-78"/>
       <use x="768.261719" xlink:href="#DejaVuSans-5f"/>
       <use x="818.261719" xlink:href="#DejaVuSans-61"/>
       <use x="879.541016" xlink:href="#DejaVuSans-64"/>
       <use x="943.017578" xlink:href="#DejaVuSans-6a"/>
       <use x="970.800781" xlink:href="#DejaVuSans-75"/>
       <use x="1034.179688" xlink:href="#DejaVuSans-73"/>
       <use x="1086.279297" xlink:href="#DejaVuSans-74"/>
      </g>
     </g>
    </g>
    <g id="ytick_2">
     <g id="line2d_9">
      <g>
       <use style="fill:#ffffff;stroke:#ffffff;stroke-width:0.8;" x="130.75" xlink:href="#m3ed6c14911" y="327.337001"/>
      </g>
     </g>
     <g id="text_10">
      <!-- zonal_flux_layer -->
      <g style="fill:#ffffff;" transform="translate(43.495312 331.13622)scale(0.1 -0.1)">
       <defs>
        <path d="M 353 3500 
L 3084 3500 
L 3084 2975 
L 922 459 
L 3084 459 
L 3084 0 
L 275 0 
L 275 525 
L 2438 3041 
L 353 3041 
L 353 3500 
z
" id="DejaVuSans-7a" transform="scale(0.015625)"/>
        <path d="M 2059 -325 
Q 1816 -950 1584 -1140 
Q 1353 -1331 966 -1331 
L 506 -1331 
L 506 -850 
L 844 -850 
Q 1081 -850 1212 -737 
Q 1344 -625 1503 -206 
L 1606 56 
L 191 3500 
L 800 3500 
L 1894 763 
L 2988 3500 
L 3597 3500 
L 2059 -325 
z
" id="DejaVuSans-79" transform="scale(0.015625)"/>
       </defs>
       <use xlink:href="#DejaVuSans-7a"/>
       <use x="52.490234" xlink:href="#DejaVuSans-6f"/>
       <use x="113.671875" xlink:href="#DejaVuSans-6e"/>
       <use x="177.050781" xlink:href="#DejaVuSans-61"/>
       <use x="238.330078" xlink:href="#DejaVuSans-6c"/>
       <use x="266.113281" xlink:href="#DejaVuSans-5f"/>
       <use x="316.113281" xlink:href="#DejaVuSans-66"/>
       <use x="351.318359" xlink:href="#DejaVuSans-6c"/>
       <use x="379.101562" xlink:href="#DejaVuSans-75"/>
       <use x="442.480469" xlink:href="#DejaVuSans-78"/>
       <use x="501.660156" xlink:href="#DejaVuSans-5f"/>
       <use x="551.660156" xlink:href="#DejaVuSans-6c"/>
       <use x="579.443359" xlink:href="#DejaVuSans-61"/>
       <use x="640.722656" xlink:href="#DejaVuSans-79"/>
       <use x="699.902344" xlink:href="#DejaVuSans-65"/>
       <use x="761.425781" xlink:href="#DejaVuSans-72"/>
      </g>
     </g>
    </g>
    <g id="ytick_3">
     <g id="line2d_10">
      <g>
       <use style="fill:#ffffff;stroke:#ffffff;stroke-width:0.8;" x="130.75" xlink:href="#m3ed6c14911" y="293.166429"/>
      </g>
     </g>
     <g id="text_11">
      <!-- find_coupling_coef -->
      <g style="fill:#ffffff;" transform="translate(30.929688 296.965648)scale(0.1 -0.1)">
       <defs>
        <path d="M 3122 3366 
L 3122 2828 
Q 2878 2963 2633 3030 
Q 2388 3097 2138 3097 
Q 1578 3097 1268 2742 
Q 959 2388 959 1747 
Q 959 1106 1268 751 
Q 1578 397 2138 397 
Q 2388 397 2633 464 
Q 2878 531 3122 666 
L 3122 134 
Q 2881 22 2623 -34 
Q 2366 -91 2075 -91 
Q 1284 -91 818 406 
Q 353 903 353 1747 
Q 353 2603 823 3093 
Q 1294 3584 2113 3584 
Q 2378 3584 2631 3529 
Q 2884 3475 3122 3366 
z
" id="DejaVuSans-63" transform="scale(0.015625)"/>
        <path d="M 1159 525 
L 1159 -1331 
L 581 -1331 
L 581 3500 
L 1159 3500 
L 1159 2969 
Q 1341 3281 1617 3432 
Q 1894 3584 2278 3584 
Q 2916 3584 3314 3078 
Q 3713 2572 3713 1747 
Q 3713 922 3314 415 
Q 2916 -91 2278 -91 
Q 1894 -91 1617 61 
Q 1341 213 1159 525 
z
M 3116 1747 
Q 3116 2381 2855 2742 
Q 2594 3103 2138 3103 
Q 1681 3103 1420 2742 
Q 1159 2381 1159 1747 
Q 1159 1113 1420 752 
Q 1681 391 2138 391 
Q 2594 391 2855 752 
Q 3116 1113 3116 1747 
z
" id="DejaVuSans-70" transform="scale(0.015625)"/>
        <path d="M 2906 1791 
Q 2906 2416 2648 2759 
Q 2391 3103 1925 3103 
Q 1463 3103 1205 2759 
Q 947 2416 947 1791 
Q 947 1169 1205 825 
Q 1463 481 1925 481 
Q 2391 481 2648 825 
Q 2906 1169 2906 1791 
z
M 3481 434 
Q 3481 -459 3084 -895 
Q 2688 -1331 1869 -1331 
Q 1566 -1331 1297 -1286 
Q 1028 -1241 775 -1147 
L 775 -588 
Q 1028 -725 1275 -790 
Q 1522 -856 1778 -856 
Q 2344 -856 2625 -561 
Q 2906 -266 2906 331 
L 2906 616 
Q 2728 306 2450 153 
Q 2172 0 1784 0 
Q 1141 0 747 490 
Q 353 981 353 1791 
Q 353 2603 747 3093 
Q 1141 3584 1784 3584 
Q 2172 3584 2450 3431 
Q 2728 3278 2906 2969 
L 2906 3500 
L 3481 3500 
L 3481 434 
z
" id="DejaVuSans-67" transform="scale(0.015625)"/>
       </defs>
       <use xlink:href="#DejaVuSans-66"/>
       <use x="35.205078" xlink:href="#DejaVuSans-69"/>
       <use x="62.988281" xlink:href="#DejaVuSans-6e"/>
       <use x="126.367188" xlink:href="#DejaVuSans-64"/>
       <use x="189.84375" xlink:href="#DejaVuSans-5f"/>
       <use x="239.84375" xlink:href="#DejaVuSans-63"/>
       <use x="294.824219" xlink:href="#DejaVuSans-6f"/>
       <use x="356.005859" xlink:href="#DejaVuSans-75"/>
       <use x="419.384766" xlink:href="#DejaVuSans-70"/>
       <use x="482.861328" xlink:href="#DejaVuSans-6c"/>
       <use x="510.644531" xlink:href="#DejaVuSans-69"/>
       <use x="538.427734" xlink:href="#DejaVuSans-6e"/>
       <use x="601.806641" xlink:href="#DejaVuSans-67"/>
       <use x="665.283203" xlink:href="#DejaVuSans-5f"/>
       <use x="715.283203" xlink:href="#DejaVuSans-63"/>
       <use x="770.263672" xlink:href="#DejaVuSans-6f"/>
       <use x="831.445312" xlink:href="#DejaVuSans-65"/>
       <use x="892.96875" xlink:href="#DejaVuSans-66"/>
      </g>
     </g>
    </g>
    <g id="ytick_4">
     <g id="line2d_11">
      <g>
       <use style="fill:#ffffff;stroke:#ffffff;stroke-width:0.8;" x="130.75" xlink:href="#m3ed6c14911" y="258.995858"/>
      </g>
     </g>
     <g id="text_12">
      <!-- set_merid_bt_cont -->
      <g style="fill:#ffffff;" transform="translate(32.192187 262.795076)scale(0.1 -0.1)">
       <defs>
        <path d="M 3116 1747 
Q 3116 2381 2855 2742 
Q 2594 3103 2138 3103 
Q 1681 3103 1420 2742 
Q 1159 2381 1159 1747 
Q 1159 1113 1420 752 
Q 1681 391 2138 391 
Q 2594 391 2855 752 
Q 3116 1113 3116 1747 
z
M 1159 2969 
Q 1341 3281 1617 3432 
Q 1894 3584 2278 3584 
Q 2916 3584 3314 3078 
Q 3713 2572 3713 1747 
Q 3713 922 3314 415 
Q 2916 -91 2278 -91 
Q 1894 -91 1617 61 
Q 1341 213 1159 525 
L 1159 0 
L 581 0 
L 581 4863 
L 1159 4863 
L 1159 2969 
z
" id="DejaVuSans-62" transform="scale(0.015625)"/>
       </defs>
       <use xlink:href="#DejaVuSans-73"/>
       <use x="52.099609" xlink:href="#DejaVuSans-65"/>
       <use x="113.623047" xlink:href="#DejaVuSans-74"/>
       <use x="152.832031" xlink:href="#DejaVuSans-5f"/>
       <use x="202.832031" xlink:href="#DejaVuSans-6d"/>
       <use x="300.244141" xlink:href="#DejaVuSans-65"/>
       <use x="361.767578" xlink:href="#DejaVuSans-72"/>
       <use x="402.880859" xlink:href="#DejaVuSans-69"/>
       <use x="430.664062" xlink:href="#DejaVuSans-64"/>
       <use x="494.140625" xlink:href="#DejaVuSans-5f"/>
       <use x="544.140625" xlink:href="#DejaVuSans-62"/>
       <use x="607.617188" xlink:href="#DejaVuSans-74"/>
       <use x="646.826172" xlink:href="#DejaVuSans-5f"/>
       <use x="696.826172" xlink:href="#DejaVuSans-63"/>
       <use x="751.806641" xlink:href="#DejaVuSans-6f"/>
       <use x="812.988281" xlink:href="#DejaVuSans-6e"/>
       <use x="876.367188" xlink:href="#DejaVuSans-74"/>
      </g>
     </g>
    </g>
    <g id="ytick_5">
     <g id="line2d_12">
      <g>
       <use style="fill:#ffffff;stroke:#ffffff;stroke-width:0.8;" x="130.75" xlink:href="#m3ed6c14911" y="224.825286"/>
      </g>
     </g>
     <g id="text_13">
      <!-- zonal_flux_adjust -->
      <g style="fill:#ffffff;" transform="translate(37.8625 228.624505)scale(0.1 -0.1)">
       <use xlink:href="#DejaVuSans-7a"/>
       <use x="52.490234" xlink:href="#DejaVuSans-6f"/>
       <use x="113.671875" xlink:href="#DejaVuSans-6e"/>
       <use x="177.050781" xlink:href="#DejaVuSans-61"/>
       <use x="238.330078" xlink:href="#DejaVuSans-6c"/>
       <use x="266.113281" xlink:href="#DejaVuSans-5f"/>
       <use x="316.113281" xlink:href="#DejaVuSans-66"/>
       <use x="351.318359" xlink:href="#DejaVuSans-6c"/>
       <use x="379.101562" xlink:href="#DejaVuSans-75"/>
       <use x="442.480469" xlink:href="#DejaVuSans-78"/>
       <use x="501.660156" xlink:href="#DejaVuSans-5f"/>
       <use x="551.660156" xlink:href="#DejaVuSans-61"/>
       <use x="612.939453" xlink:href="#DejaVuSans-64"/>
       <use x="676.416016" xlink:href="#DejaVuSans-6a"/>
       <use x="704.199219" xlink:href="#DejaVuSans-75"/>
       <use x="767.578125" xlink:href="#DejaVuSans-73"/>
       <use x="819.677734" xlink:href="#DejaVuSans-74"/>
      </g>
     </g>
    </g>
    <g id="ytick_6">
     <g id="line2d_13">
      <g>
       <use style="fill:#ffffff;stroke:#ffffff;stroke-width:0.8;" x="130.75" xlink:href="#m3ed6c14911" y="190.654714"/>
      </g>
     </g>
     <g id="text_14">
      <!-- int_density_dz_wright -->
      <g style="fill:#ffffff;" transform="translate(15.778125 194.453933)scale(0.1 -0.1)">
       <defs>
        <path d="M 269 3500 
L 844 3500 
L 1563 769 
L 2278 3500 
L 2956 3500 
L 3675 769 
L 4391 3500 
L 4966 3500 
L 4050 0 
L 3372 0 
L 2619 2869 
L 1863 0 
L 1184 0 
L 269 3500 
z
" id="DejaVuSans-77" transform="scale(0.015625)"/>
        <path d="M 3513 2113 
L 3513 0 
L 2938 0 
L 2938 2094 
Q 2938 2591 2744 2837 
Q 2550 3084 2163 3084 
Q 1697 3084 1428 2787 
Q 1159 2491 1159 1978 
L 1159 0 
L 581 0 
L 581 4863 
L 1159 4863 
L 1159 2956 
Q 1366 3272 1645 3428 
Q 1925 3584 2291 3584 
Q 2894 3584 3203 3211 
Q 3513 2838 3513 2113 
z
" id="DejaVuSans-68" transform="scale(0.015625)"/>
       </defs>
       <use xlink:href="#DejaVuSans-69"/>
       <use x="27.783203" xlink:href="#DejaVuSans-6e"/>
       <use x="91.162109" xlink:href="#DejaVuSans-74"/>
       <use x="130.371094" xlink:href="#DejaVuSans-5f"/>
       <use x="180.371094" xlink:href="#DejaVuSans-64"/>
       <use x="243.847656" xlink:href="#DejaVuSans-65"/>
       <use x="305.371094" xlink:href="#DejaVuSans-6e"/>
       <use x="368.75" xlink:href="#DejaVuSans-73"/>
       <use x="420.849609" xlink:href="#DejaVuSans-69"/>
       <use x="448.632812" xlink:href="#DejaVuSans-74"/>
       <use x="487.841797" xlink:href="#DejaVuSans-79"/>
       <use x="547.021484" xlink:href="#DejaVuSans-5f"/>
       <use x="597.021484" xlink:href="#DejaVuSans-64"/>
       <use x="660.498047" xlink:href="#DejaVuSans-7a"/>
       <use x="712.988281" xlink:href="#DejaVuSans-5f"/>
       <use x="762.988281" xlink:href="#DejaVuSans-77"/>
       <use x="844.775391" xlink:href="#DejaVuSans-72"/>
       <use x="885.888672" xlink:href="#DejaVuSans-69"/>
       <use x="913.671875" xlink:href="#DejaVuSans-67"/>
       <use x="977.148438" xlink:href="#DejaVuSans-68"/>
       <use x="1040.527344" xlink:href="#DejaVuSans-74"/>
      </g>
     </g>
    </g>
    <g id="ytick_7">
     <g id="line2d_14">
      <g>
       <use style="fill:#ffffff;stroke:#ffffff;stroke-width:0.8;" x="130.75" xlink:href="#m3ed6c14911" y="156.484142"/>
      </g>
     </g>
     <g id="text_15">
      <!-- coradcalc -->
      <g style="fill:#ffffff;" transform="translate(75.642188 160.283361)scale(0.1 -0.1)">
       <use xlink:href="#DejaVuSans-63"/>
       <use x="54.980469" xlink:href="#DejaVuSans-6f"/>
       <use x="116.162109" xlink:href="#DejaVuSans-72"/>
       <use x="157.275391" xlink:href="#DejaVuSans-61"/>
       <use x="218.554688" xlink:href="#DejaVuSans-64"/>
       <use x="282.03125" xlink:href="#DejaVuSans-63"/>
       <use x="337.011719" xlink:href="#DejaVuSans-61"/>
       <use x="398.291016" xlink:href="#DejaVuSans-6c"/>
       <use x="426.074219" xlink:href="#DejaVuSans-63"/>
      </g>
     </g>
    </g>
    <g id="ytick_8">
     <g id="line2d_15">
      <g>
       <use style="fill:#ffffff;stroke:#ffffff;stroke-width:0.8;" x="130.75" xlink:href="#m3ed6c14911" y="122.313571"/>
      </g>
     </g>
     <g id="text_16">
      <!-- vertvisc_coef -->
      <g style="fill:#ffffff;" transform="translate(57.951562 126.11279)scale(0.1 -0.1)">
       <defs>
        <path d="M 191 3500 
L 800 3500 
L 1894 563 
L 2988 3500 
L 3597 3500 
L 2284 0 
L 1503 0 
L 191 3500 
z
" id="DejaVuSans-76" transform="scale(0.015625)"/>
       </defs>
       <use xlink:href="#DejaVuSans-76"/>
       <use x="59.179688" xlink:href="#DejaVuSans-65"/>
       <use x="120.703125" xlink:href="#DejaVuSans-72"/>
       <use x="161.816406" xlink:href="#DejaVuSans-74"/>
       <use x="201.025391" xlink:href="#DejaVuSans-76"/>
       <use x="260.205078" xlink:href="#DejaVuSans-69"/>
       <use x="287.988281" xlink:href="#DejaVuSans-73"/>
       <use x="340.087891" xlink:href="#DejaVuSans-63"/>
       <use x="395.068359" xlink:href="#DejaVuSans-5f"/>
       <use x="445.068359" xlink:href="#DejaVuSans-63"/>
       <use x="500.048828" xlink:href="#DejaVuSans-6f"/>
       <use x="561.230469" xlink:href="#DejaVuSans-65"/>
       <use x="622.753906" xlink:href="#DejaVuSans-66"/>
      </g>
     </g>
    </g>
    <g id="ytick_9">
     <g id="line2d_16">
      <g>
       <use style="fill:#ffffff;stroke:#ffffff;stroke-width:0.8;" x="130.75" xlink:href="#m3ed6c14911" y="88.142999"/>
      </g>
     </g>
     <g id="text_17">
      <!-- horizontal_viscosity -->
      <g style="fill:#ffffff;" transform="translate(25.523438 91.942218)scale(0.1 -0.1)">
       <use xlink:href="#DejaVuSans-68"/>
       <use x="63.378906" xlink:href="#DejaVuSans-6f"/>
       <use x="124.560547" xlink:href="#DejaVuSans-72"/>
       <use x="165.673828" xlink:href="#DejaVuSans-69"/>
       <use x="193.457031" xlink:href="#DejaVuSans-7a"/>
       <use x="245.947266" xlink:href="#DejaVuSans-6f"/>
       <use x="307.128906" xlink:href="#DejaVuSans-6e"/>
       <use x="370.507812" xlink:href="#DejaVuSans-74"/>
       <use x="409.716797" xlink:href="#DejaVuSans-61"/>
       <use x="470.996094" xlink:href="#DejaVuSans-6c"/>
       <use x="498.779297" xlink:href="#DejaVuSans-5f"/>
       <use x="548.779297" xlink:href="#DejaVuSans-76"/>
       <use x="607.958984" xlink:href="#DejaVuSans-69"/>
       <use x="635.742188" xlink:href="#DejaVuSans-73"/>
       <use x="687.841797" xlink:href="#DejaVuSans-63"/>
       <use x="742.822266" xlink:href="#DejaVuSans-6f"/>
       <use x="804.003906" xlink:href="#DejaVuSans-73"/>
       <use x="856.103516" xlink:href="#DejaVuSans-69"/>
       <use x="883.886719" xlink:href="#DejaVuSans-74"/>
       <use x="923.095703" xlink:href="#DejaVuSans-79"/>
      </g>
     </g>
    </g>
    <g id="ytick_10">
     <g id="line2d_17">
      <g>
       <use style="fill:#ffffff;stroke:#ffffff;stroke-width:0.8;" x="130.75" xlink:href="#m3ed6c14911" y="53.972427"/>
      </g>
     </g>
     <g id="text_18">
      <!-- btstep -->
      <g style="fill:#ffffff;" transform="translate(91.85 57.771646)scale(0.1 -0.1)">
       <use xlink:href="#DejaVuSans-62"/>
       <use x="63.476562" xlink:href="#DejaVuSans-74"/>
       <use x="102.685547" xlink:href="#DejaVuSans-73"/>
       <use x="154.785156" xlink:href="#DejaVuSans-74"/>
       <use x="193.994141" xlink:href="#DejaVuSans-65"/>
       <use x="255.517578" xlink:href="#DejaVuSans-70"/>
      </g>
     </g>
    </g>
   </g>
   <g id="patch_23">
    <path d="M 130.75 390.04 
L 130.75 25.44 
" style="fill:none;stroke:#000000;stroke-linecap:square;stroke-linejoin:miter;stroke-width:0.8;"/>
   </g>
   <g id="patch_24">
    <path d="M 565.2 390.04 
L 565.2 25.44 
" style="fill:none;stroke:#000000;stroke-linecap:square;stroke-linejoin:miter;stroke-width:0.8;"/>
   </g>
   <g id="patch_25">
    <path d="M 130.75 390.04 
L 565.2 390.04 
" style="fill:none;stroke:#000000;stroke-linecap:square;stroke-linejoin:miter;stroke-width:0.8;"/>
   </g>
   <g id="patch_26">
    <path d="M 130.75 25.44 
L 565.2 25.44 
" style="fill:none;stroke:#000000;stroke-linecap:square;stroke-linejoin:miter;stroke-width:0.8;"/>
   </g>
   <g id="text_19">
    <!-- 3.3 -->
    <g transform="translate(236.597492 357.826282)scale(0.0833 -0.0833)">
     <defs>
      <path d="M 2597 2516 
Q 3050 2419 3304 2112 
Q 3559 1806 3559 1356 
Q 3559 666 3084 287 
Q 2609 -91 1734 -91 
Q 1441 -91 1130 -33 
Q 819 25 488 141 
L 488 750 
Q 750 597 1062 519 
Q 1375 441 1716 441 
Q 2309 441 2620 675 
Q 2931 909 2931 1356 
Q 2931 1769 2642 2001 
Q 2353 2234 1838 2234 
L 1294 2234 
L 1294 2753 
L 1863 2753 
Q 2328 2753 2575 2939 
Q 2822 3125 2822 3475 
Q 2822 3834 2567 4026 
Q 2313 4219 1838 4219 
Q 1578 4219 1281 4162 
Q 984 4106 628 3988 
L 628 4550 
Q 988 4650 1302 4700 
Q 1616 4750 1894 4750 
Q 2613 4750 3031 4423 
Q 3450 4097 3450 3541 
Q 3450 3153 3228 2886 
Q 3006 2619 2597 2516 
z
" id="DejaVuSans-33" transform="scale(0.015625)"/>
      <path d="M 684 794 
L 1344 794 
L 1344 0 
L 684 0 
L 684 794 
z
" id="DejaVuSans-2e" transform="scale(0.015625)"/>
     </defs>
     <use xlink:href="#DejaVuSans-33"/>
     <use x="63.623047" xlink:href="#DejaVuSans-2e"/>
     <use x="95.410156" xlink:href="#DejaVuSans-33"/>
    </g>
   </g>
   <g id="text_20">
    <!-- 3.3 -->
    <g transform="translate(236.994767 323.65571)scale(0.0833 -0.0833)">
     <use xlink:href="#DejaVuSans-33"/>
     <use x="63.623047" xlink:href="#DejaVuSans-2e"/>
     <use x="95.410156" xlink:href="#DejaVuSans-33"/>
    </g>
   </g>
   <g id="text_21">
    <!-- 3.4 -->
    <g transform="translate(240.504029 289.485139)scale(0.0833 -0.0833)">
     <use xlink:href="#DejaVuSans-33"/>
     <use x="63.623047" xlink:href="#DejaVuSans-2e"/>
     <use x="95.410156" xlink:href="#DejaVuSans-34"/>
    </g>
   </g>
   <g id="text_22">
    <!-- 3.4 -->
    <g transform="translate(240.66956 255.314567)scale(0.0833 -0.0833)">
     <use xlink:href="#DejaVuSans-33"/>
     <use x="63.623047" xlink:href="#DejaVuSans-2e"/>
     <use x="95.410156" xlink:href="#DejaVuSans-34"/>
    </g>
   </g>
   <g id="text_23">
    <!-- 3.6 -->
    <g transform="translate(246.628685 221.143995)scale(0.0833 -0.0833)">
     <use xlink:href="#DejaVuSans-33"/>
     <use x="63.623047" xlink:href="#DejaVuSans-2e"/>
     <use x="95.410156" xlink:href="#DejaVuSans-36"/>
    </g>
   </g>
   <g id="text_24">
    <!-- 4.1 -->
    <g transform="translate(263.97636 186.973423)scale(0.0833 -0.0833)">
     <use xlink:href="#DejaVuSans-34"/>
     <use x="63.623047" xlink:href="#DejaVuSans-2e"/>
     <use x="95.410156" xlink:href="#DejaVuSans-31"/>
    </g>
   </g>
   <g id="text_25">
    <!-- 4.6 -->
    <g transform="translate(278.178941 152.802852)scale(0.0833 -0.0833)">
     <use xlink:href="#DejaVuSans-34"/>
     <use x="63.623047" xlink:href="#DejaVuSans-2e"/>
     <use x="95.410156" xlink:href="#DejaVuSans-36"/>
    </g>
   </g>
   <g id="text_26">
    <!-- 6.4 -->
    <g transform="translate(335.055477 118.63228)scale(0.0833 -0.0833)">
     <use xlink:href="#DejaVuSans-36"/>
     <use x="63.623047" xlink:href="#DejaVuSans-2e"/>
     <use x="95.410156" xlink:href="#DejaVuSans-34"/>
    </g>
   </g>
   <g id="text_27">
    <!-- 7.0 -->
    <g transform="translate(354.952333 84.461708)scale(0.0833 -0.0833)">
     <defs>
      <path d="M 525 4666 
L 3525 4666 
L 3525 4397 
L 1831 0 
L 1172 0 
L 2766 4134 
L 525 4134 
L 525 4666 
z
" id="DejaVuSans-37" transform="scale(0.015625)"/>
     </defs>
     <use xlink:href="#DejaVuSans-37"/>
     <use x="63.623047" xlink:href="#DejaVuSans-2e"/>
     <use x="95.410156" xlink:href="#DejaVuSans-30"/>
    </g>
   </g>
   <g id="text_28">
    <!-- 12.9 -->
    <g transform="translate(545.511905 50.291137)scale(0.0833 -0.0833)">
     <defs>
      <path d="M 703 97 
L 703 672 
Q 941 559 1184 500 
Q 1428 441 1663 441 
Q 2288 441 2617 861 
Q 2947 1281 2994 2138 
Q 2813 1869 2534 1725 
Q 2256 1581 1919 1581 
Q 1219 1581 811 2004 
Q 403 2428 403 3163 
Q 403 3881 828 4315 
Q 1253 4750 1959 4750 
Q 2769 4750 3195 4129 
Q 3622 3509 3622 2328 
Q 3622 1225 3098 567 
Q 2575 -91 1691 -91 
Q 1453 -91 1209 -44 
Q 966 3 703 97 
z
M 1959 2075 
Q 2384 2075 2632 2365 
Q 2881 2656 2881 3163 
Q 2881 3666 2632 3958 
Q 2384 4250 1959 4250 
Q 1534 4250 1286 3958 
Q 1038 3666 1038 3163 
Q 1038 2656 1286 2365 
Q 1534 2075 1959 2075 
z
" id="DejaVuSans-39" transform="scale(0.015625)"/>
     </defs>
     <use xlink:href="#DejaVuSans-31"/>
     <use x="63.623047" xlink:href="#DejaVuSans-32"/>
     <use x="127.246094" xlink:href="#DejaVuSans-2e"/>
     <use x="159.033203" xlink:href="#DejaVuSans-39"/>
    </g>
   </g>
   <g id="text_29">
    <!-- 3.9 -->
    <g transform="translate(257.979234 369.785982)scale(0.0833 -0.0833)">
     <use xlink:href="#DejaVuSans-33"/>
     <use x="63.623047" xlink:href="#DejaVuSans-2e"/>
     <use x="95.410156" xlink:href="#DejaVuSans-39"/>
    </g>
   </g>
   <g id="text_30">
    <!-- 3.5 -->
    <g transform="translate(244.939713 335.61541)scale(0.0833 -0.0833)">
     <defs>
      <path d="M 691 4666 
L 3169 4666 
L 3169 4134 
L 1269 4134 
L 1269 2991 
Q 1406 3038 1543 3061 
Q 1681 3084 1819 3084 
Q 2600 3084 3056 2656 
Q 3513 2228 3513 1497 
Q 3513 744 3044 326 
Q 2575 -91 1722 -91 
Q 1428 -91 1123 -41 
Q 819 9 494 109 
L 494 744 
Q 775 591 1075 516 
Q 1375 441 1709 441 
Q 2250 441 2565 725 
Q 2881 1009 2881 1497 
Q 2881 1984 2565 2268 
Q 2250 2553 1709 2553 
Q 1456 2553 1204 2497 
Q 953 2441 691 2322 
L 691 4666 
z
" id="DejaVuSans-35" transform="scale(0.015625)"/>
     </defs>
     <use xlink:href="#DejaVuSans-33"/>
     <use x="63.623047" xlink:href="#DejaVuSans-2e"/>
     <use x="95.410156" xlink:href="#DejaVuSans-35"/>
    </g>
   </g>
   <g id="text_31">
    <!-- 2.5 -->
    <g transform="translate(211.692733 301.444839)scale(0.0833 -0.0833)">
     <use xlink:href="#DejaVuSans-32"/>
     <use x="63.623047" xlink:href="#DejaVuSans-2e"/>
     <use x="95.410156" xlink:href="#DejaVuSans-35"/>
    </g>
   </g>
   <g id="text_32">
    <!-- 3.2 -->
    <g transform="translate(232.983764 267.274267)scale(0.0833 -0.0833)">
     <use xlink:href="#DejaVuSans-33"/>
     <use x="63.623047" xlink:href="#DejaVuSans-2e"/>
     <use x="95.410156" xlink:href="#DejaVuSans-32"/>
    </g>
   </g>
   <g id="text_33">
    <!-- 3.4 -->
    <g transform="translate(241.806547 233.103695)scale(0.0833 -0.0833)">
     <use xlink:href="#DejaVuSans-33"/>
     <use x="63.623047" xlink:href="#DejaVuSans-2e"/>
     <use x="95.410156" xlink:href="#DejaVuSans-34"/>
    </g>
   </g>
   <g id="text_34">
    <!-- 8.6 -->
    <g transform="translate(406.605923 198.933124)scale(0.0833 -0.0833)">
     <use xlink:href="#DejaVuSans-38"/>
     <use x="63.623047" xlink:href="#DejaVuSans-2e"/>
     <use x="95.410156" xlink:href="#DejaVuSans-36"/>
    </g>
   </g>
   <g id="text_35">
    <!-- 2.7 -->
    <g transform="translate(217.476272 164.762552)scale(0.0833 -0.0833)">
     <use xlink:href="#DejaVuSans-32"/>
     <use x="63.623047" xlink:href="#DejaVuSans-2e"/>
     <use x="95.410156" xlink:href="#DejaVuSans-37"/>
    </g>
   </g>
   <g id="text_36">
    <!-- 1.3 -->
    <g transform="translate(173.079094 130.59198)scale(0.0833 -0.0833)">
     <use xlink:href="#DejaVuSans-31"/>
     <use x="63.623047" xlink:href="#DejaVuSans-2e"/>
     <use x="95.410156" xlink:href="#DejaVuSans-33"/>
    </g>
   </g>
   <g id="text_37">
    <!-- 2.3 -->
    <g transform="translate(205.329046 96.421408)scale(0.0833 -0.0833)">
     <use xlink:href="#DejaVuSans-32"/>
     <use x="63.623047" xlink:href="#DejaVuSans-2e"/>
     <use x="95.410156" xlink:href="#DejaVuSans-33"/>
    </g>
   </g>
   <g id="text_38">
    <!-- 0.9 -->
    <g transform="translate(160.275535 62.250837)scale(0.0833 -0.0833)">
     <use xlink:href="#DejaVuSans-30"/>
     <use x="63.623047" xlink:href="#DejaVuSans-2e"/>
     <use x="95.410156" xlink:href="#DejaVuSans-39"/>
    </g>
   </g>
   <g id="text_39">
    <!-- Relative subroutine runtimes -->
    <g style="fill:#ffffff;" transform="translate(261.155937 19.44)scale(0.12 -0.12)">
     <use xlink:href="#DejaVuSans-52"/>
     <use x="64.982422" xlink:href="#DejaVuSans-65"/>
     <use x="126.505859" xlink:href="#DejaVuSans-6c"/>
     <use x="154.289062" xlink:href="#DejaVuSans-61"/>
     <use x="215.568359" xlink:href="#DejaVuSans-74"/>
     <use x="254.777344" xlink:href="#DejaVuSans-69"/>
     <use x="282.560547" xlink:href="#DejaVuSans-76"/>
     <use x="341.740234" xlink:href="#DejaVuSans-65"/>
     <use x="403.263672" xlink:href="#DejaVuSans-20"/>
     <use x="435.050781" xlink:href="#DejaVuSans-73"/>
     <use x="487.150391" xlink:href="#DejaVuSans-75"/>
     <use x="550.529297" xlink:href="#DejaVuSans-62"/>
     <use x="614.005859" xlink:href="#DejaVuSans-72"/>
     <use x="652.869141" xlink:href="#DejaVuSans-6f"/>
     <use x="714.050781" xlink:href="#DejaVuSans-75"/>
     <use x="777.429688" xlink:href="#DejaVuSans-74"/>
     <use x="816.638672" xlink:href="#DejaVuSans-69"/>
     <use x="844.421875" xlink:href="#DejaVuSans-6e"/>
     <use x="907.800781" xlink:href="#DejaVuSans-65"/>
     <use x="969.324219" xlink:href="#DejaVuSans-20"/>
     <use x="1001.111328" xlink:href="#DejaVuSans-72"/>
     <use x="1042.224609" xlink:href="#DejaVuSans-75"/>
     <use x="1105.603516" xlink:href="#DejaVuSans-6e"/>
     <use x="1168.982422" xlink:href="#DejaVuSans-74"/>
     <use x="1208.191406" xlink:href="#DejaVuSans-69"/>
     <use x="1235.974609" xlink:href="#DejaVuSans-6d"/>
     <use x="1333.386719" xlink:href="#DejaVuSans-65"/>
     <use x="1394.910156" xlink:href="#DejaVuSans-73"/>
    </g>
   </g>
   <g id="legend_1">
    <g id="patch_27">
     <path d="M 485.010937 385.04 
L 558.2 385.04 
Q 560.2 385.04 560.2 383.04 
L 560.2 354.68375 
Q 560.2 352.68375 558.2 352.68375 
L 485.010937 352.68375 
Q 483.010937 352.68375 483.010937 354.68375 
L 483.010937 383.04 
Q 483.010937 385.04 485.010937 385.04 
z
" style="fill:#ffffff;opacity:0.8;stroke:#cccccc;stroke-linejoin:miter;"/>
    </g>
    <g id="patch_28">
     <path d="M 487.010937 364.282187 
L 507.010937 364.282187 
L 507.010937 357.282187 
L 487.010937 357.282187 
z
" style="fill:#1f77b4;"/>
    </g>
    <g id="text_40">
     <!-- % time -->
     <g transform="translate(515.010937 364.282187)scale(0.1 -0.1)">
      <use xlink:href="#DejaVuSans-25"/>
      <use x="95.019531" xlink:href="#DejaVuSans-20"/>
      <use x="126.806641" xlink:href="#DejaVuSans-74"/>
      <use x="166.015625" xlink:href="#DejaVuSans-69"/>
      <use x="193.798828" xlink:href="#DejaVuSans-6d"/>
      <use x="291.210938" xlink:href="#DejaVuSans-65"/>
     </g>
    </g>
    <g id="patch_29">
     <path d="M 487.010937 378.960312 
L 507.010937 378.960312 
L 507.010937 371.960312 
L 487.010937 371.960312 
z
" style="fill:#ff7f0e;"/>
    </g>
    <g id="text_41">
     <!-- GFLOP/s -->
     <g transform="translate(515.010937 378.960312)scale(0.1 -0.1)">
      <defs>
       <path d="M 3809 666 
L 3809 1919 
L 2778 1919 
L 2778 2438 
L 4434 2438 
L 4434 434 
Q 4069 175 3628 42 
Q 3188 -91 2688 -91 
Q 1594 -91 976 548 
Q 359 1188 359 2328 
Q 359 3472 976 4111 
Q 1594 4750 2688 4750 
Q 3144 4750 3555 4637 
Q 3966 4525 4313 4306 
L 4313 3634 
Q 3963 3931 3569 4081 
Q 3175 4231 2741 4231 
Q 1884 4231 1454 3753 
Q 1025 3275 1025 2328 
Q 1025 1384 1454 906 
Q 1884 428 2741 428 
Q 3075 428 3337 486 
Q 3600 544 3809 666 
z
" id="DejaVuSans-47" transform="scale(0.015625)"/>
       <path d="M 628 4666 
L 3309 4666 
L 3309 4134 
L 1259 4134 
L 1259 2759 
L 3109 2759 
L 3109 2228 
L 1259 2228 
L 1259 0 
L 628 0 
L 628 4666 
z
" id="DejaVuSans-46" transform="scale(0.015625)"/>
       <path d="M 628 4666 
L 1259 4666 
L 1259 531 
L 3531 531 
L 3531 0 
L 628 0 
L 628 4666 
z
" id="DejaVuSans-4c" transform="scale(0.015625)"/>
       <path d="M 2522 4238 
Q 1834 4238 1429 3725 
Q 1025 3213 1025 2328 
Q 1025 1447 1429 934 
Q 1834 422 2522 422 
Q 3209 422 3611 934 
Q 4013 1447 4013 2328 
Q 4013 3213 3611 3725 
Q 3209 4238 2522 4238 
z
M 2522 4750 
Q 3503 4750 4090 4092 
Q 4678 3434 4678 2328 
Q 4678 1225 4090 567 
Q 3503 -91 2522 -91 
Q 1538 -91 948 565 
Q 359 1222 359 2328 
Q 359 3434 948 4092 
Q 1538 4750 2522 4750 
z
" id="DejaVuSans-4f" transform="scale(0.015625)"/>
       <path d="M 1259 4147 
L 1259 2394 
L 2053 2394 
Q 2494 2394 2734 2622 
Q 2975 2850 2975 3272 
Q 2975 3691 2734 3919 
Q 2494 4147 2053 4147 
L 1259 4147 
z
M 628 4666 
L 2053 4666 
Q 2838 4666 3239 4311 
Q 3641 3956 3641 3272 
Q 3641 2581 3239 2228 
Q 2838 1875 2053 1875 
L 1259 1875 
L 1259 0 
L 628 0 
L 628 4666 
z
" id="DejaVuSans-50" transform="scale(0.015625)"/>
       <path d="M 1625 4666 
L 2156 4666 
L 531 -594 
L 0 -594 
L 1625 4666 
z
" id="DejaVuSans-2f" transform="scale(0.015625)"/>
      </defs>
      <use xlink:href="#DejaVuSans-47"/>
      <use x="77.490234" xlink:href="#DejaVuSans-46"/>
      <use x="135.009766" xlink:href="#DejaVuSans-4c"/>
      <use x="187.097656" xlink:href="#DejaVuSans-4f"/>
      <use x="265.808594" xlink:href="#DejaVuSans-50"/>
      <use x="326.111328" xlink:href="#DejaVuSans-2f"/>
      <use x="359.802734" xlink:href="#DejaVuSans-73"/>
     </g>
    </g>
   </g>
  </g>
  <g id="axes_2">
   <g id="patch_30">
    <path d="M 439.865 312.12 
L 547.865 312.12 
L 547.865 96.12 
L 439.865 96.12 
z
" style="fill:#ffffff;"/>
   </g>
   <g id="patch_31">
    <path clip-path="url(#pb2845e2e24)" d="M 439.865 302.301818 
L 441.683805 302.301818 
L 441.683805 299.147382 
L 439.865 299.147382 
z
" style="fill:#1f77b4;"/>
   </g>
   <g id="patch_32">
    <path clip-path="url(#pb2845e2e24)" d="M 439.865 298.358773 
L 441.741415 298.358773 
L 441.741415 295.204337 
L 439.865 295.204337 
z
" style="fill:#1f77b4;"/>
   </g>
   <g id="patch_33">
    <path clip-path="url(#pb2845e2e24)" d="M 439.865 294.415728 
L 441.782564 294.415728 
L 441.782564 291.261292 
L 439.865 291.261292 
z
" style="fill:#1f77b4;"/>
   </g>
   <g id="patch_34">
    <path clip-path="url(#pb2845e2e24)" d="M 439.865 290.472683 
L 441.938932 290.472683 
L 441.938932 287.318248 
L 439.865 287.318248 
z
" style="fill:#1f77b4;"/>
   </g>
   <g id="patch_35">
    <path clip-path="url(#pb2845e2e24)" d="M 439.865 286.529639 
L 441.963621 286.529639 
L 441.963621 283.375203 
L 439.865 283.375203 
z
" style="fill:#1f77b4;"/>
   </g>
   <g id="patch_36">
    <path clip-path="url(#pb2845e2e24)" d="M 439.865 282.586594 
L 442.021231 282.586594 
L 442.021231 279.432158 
L 439.865 279.432158 
z
" style="fill:#1f77b4;"/>
   </g>
   <g id="patch_37">
    <path clip-path="url(#pb2845e2e24)" d="M 439.865 278.643549 
L 442.07884 278.643549 
L 442.07884 275.489113 
L 439.865 275.489113 
z
" style="fill:#1f77b4;"/>
   </g>
   <g id="patch_38">
    <path clip-path="url(#pb2845e2e24)" d="M 439.865 274.700504 
L 442.136449 274.700504 
L 442.136449 271.546068 
L 439.865 271.546068 
z
" style="fill:#1f77b4;"/>
   </g>
   <g id="patch_39">
    <path clip-path="url(#pb2845e2e24)" d="M 439.865 270.757459 
L 442.152909 270.757459 
L 442.152909 267.603023 
L 439.865 267.603023 
z
" style="fill:#1f77b4;"/>
   </g>
   <g id="patch_40">
    <path clip-path="url(#pb2845e2e24)" d="M 439.865 266.814414 
L 442.251668 266.814414 
L 442.251668 263.659978 
L 439.865 263.659978 
z
" style="fill:#1f77b4;"/>
   </g>
   <g id="patch_41">
    <path clip-path="url(#pb2845e2e24)" d="M 439.865 262.871369 
L 442.301047 262.871369 
L 442.301047 259.716933 
L 439.865 259.716933 
z
" style="fill:#1f77b4;"/>
   </g>
   <g id="patch_42">
    <path clip-path="url(#pb2845e2e24)" d="M 439.865 258.928324 
L 442.325737 258.928324 
L 442.325737 255.773888 
L 439.865 255.773888 
z
" style="fill:#1f77b4;"/>
   </g>
   <g id="patch_43">
    <path clip-path="url(#pb2845e2e24)" d="M 439.865 254.985279 
L 442.597323 254.985279 
L 442.597323 251.830843 
L 439.865 251.830843 
z
" style="fill:#1f77b4;"/>
   </g>
   <g id="patch_44">
    <path clip-path="url(#pb2845e2e24)" d="M 439.865 251.042234 
L 442.992358 251.042234 
L 442.992358 247.887798 
L 439.865 247.887798 
z
" style="fill:#1f77b4;"/>
   </g>
   <g id="patch_45">
    <path clip-path="url(#pb2845e2e24)" d="M 439.865 247.099189 
L 443.831806 247.099189 
L 443.831806 243.944754 
L 439.865 243.944754 
z
" style="fill:#1f77b4;"/>
   </g>
   <g id="patch_46">
    <path clip-path="url(#pb2845e2e24)" d="M 439.865 243.156145 
L 444.226841 243.156145 
L 444.226841 240.001709 
L 439.865 240.001709 
z
" style="fill:#1f77b4;"/>
   </g>
   <g id="patch_47">
    <path clip-path="url(#pb2845e2e24)" d="M 439.865 239.2131 
L 444.942841 239.2131 
L 444.942841 236.058664 
L 439.865 236.058664 
z
" style="fill:#1f77b4;"/>
   </g>
   <g id="patch_48">
    <path clip-path="url(#pb2845e2e24)" d="M 439.865 235.270055 
L 445.230887 235.270055 
L 445.230887 232.115619 
L 439.865 232.115619 
z
" style="fill:#1f77b4;"/>
   </g>
   <g id="patch_49">
    <path clip-path="url(#pb2845e2e24)" d="M 439.865 231.32701 
L 445.988037 231.32701 
L 445.988037 228.172574 
L 439.865 228.172574 
z
" style="fill:#1f77b4;"/>
   </g>
   <g id="patch_50">
    <path clip-path="url(#pb2845e2e24)" d="M 439.865 227.383965 
L 446.893325 227.383965 
L 446.893325 224.229529 
L 439.865 224.229529 
z
" style="fill:#1f77b4;"/>
   </g>
   <g id="patch_51">
    <path clip-path="url(#pb2845e2e24)" d="M 439.865 223.44092 
L 447.025003 223.44092 
L 447.025003 220.286484 
L 439.865 220.286484 
z
" style="fill:#1f77b4;"/>
   </g>
   <g id="patch_52">
    <path clip-path="url(#pb2845e2e24)" d="M 439.865 219.497875 
L 447.23898 219.497875 
L 447.23898 216.343439 
L 439.865 216.343439 
z
" style="fill:#1f77b4;"/>
   </g>
   <g id="patch_53">
    <path clip-path="url(#pb2845e2e24)" d="M 439.865 215.55483 
L 447.362428 215.55483 
L 447.362428 212.400394 
L 439.865 212.400394 
z
" style="fill:#1f77b4;"/>
   </g>
   <g id="patch_54">
    <path clip-path="url(#pb2845e2e24)" d="M 439.865 211.611785 
L 448.086658 211.611785 
L 448.086658 208.457349 
L 439.865 208.457349 
z
" style="fill:#1f77b4;"/>
   </g>
   <g id="patch_55">
    <path clip-path="url(#pb2845e2e24)" d="M 439.865 207.66874 
L 448.168957 207.66874 
L 448.168957 204.514304 
L 439.865 204.514304 
z
" style="fill:#1f77b4;"/>
   </g>
   <g id="patch_56">
    <path clip-path="url(#pb2845e2e24)" d="M 439.865 203.725696 
L 448.465233 203.725696 
L 448.465233 200.57126 
L 439.865 200.57126 
z
" style="fill:#1f77b4;"/>
   </g>
   <g id="patch_57">
    <path clip-path="url(#pb2845e2e24)" d="M 439.865 199.782651 
L 450.102981 199.782651 
L 450.102981 196.628215 
L 439.865 196.628215 
z
" style="fill:#1f77b4;"/>
   </g>
   <g id="patch_58">
    <path clip-path="url(#pb2845e2e24)" d="M 439.865 195.839606 
L 450.15236 195.839606 
L 450.15236 192.68517 
L 439.865 192.68517 
z
" style="fill:#1f77b4;"/>
   </g>
   <g id="patch_59">
    <path clip-path="url(#pb2845e2e24)" d="M 439.865 191.896561 
L 450.316958 191.896561 
L 450.316958 188.742125 
L 439.865 188.742125 
z
" style="fill:#1f77b4;"/>
   </g>
   <g id="patch_60">
    <path clip-path="url(#pb2845e2e24)" d="M 439.865 187.953516 
L 450.374567 187.953516 
L 450.374567 184.79908 
L 439.865 184.79908 
z
" style="fill:#1f77b4;"/>
   </g>
   <g id="patch_61">
    <path clip-path="url(#pb2845e2e24)" d="M 439.865 184.010471 
L 451.427993 184.010471 
L 451.427993 180.856035 
L 439.865 180.856035 
z
" style="fill:#1f77b4;"/>
   </g>
   <g id="patch_62">
    <path clip-path="url(#pb2845e2e24)" d="M 439.865 180.067426 
L 452.670706 180.067426 
L 452.670706 176.91299 
L 439.865 176.91299 
z
" style="fill:#1f77b4;"/>
   </g>
   <g id="patch_63">
    <path clip-path="url(#pb2845e2e24)" d="M 439.865 176.124381 
L 455.098523 176.124381 
L 455.098523 172.969945 
L 439.865 172.969945 
z
" style="fill:#1f77b4;"/>
   </g>
   <g id="patch_64">
    <path clip-path="url(#pb2845e2e24)" d="M 439.865 172.181336 
L 455.756914 172.181336 
L 455.756914 169.0269 
L 439.865 169.0269 
z
" style="fill:#1f77b4;"/>
   </g>
   <g id="patch_65">
    <path clip-path="url(#pb2845e2e24)" d="M 439.865 168.238291 
L 457.970754 168.238291 
L 457.970754 165.083855 
L 439.865 165.083855 
z
" style="fill:#1f77b4;"/>
   </g>
   <g id="patch_66">
    <path clip-path="url(#pb2845e2e24)" d="M 439.865 164.295246 
L 459.410985 164.295246 
L 459.410985 161.140811 
L 439.865 161.140811 
z
" style="fill:#1f77b4;"/>
   </g>
   <g id="patch_67">
    <path clip-path="url(#pb2845e2e24)" d="M 439.865 160.352202 
L 461.493146 160.352202 
L 461.493146 157.197766 
L 439.865 157.197766 
z
" style="fill:#1f77b4;"/>
   </g>
   <g id="patch_68">
    <path clip-path="url(#pb2845e2e24)" d="M 439.865 156.409157 
L 462.595951 156.409157 
L 462.595951 153.254721 
L 439.865 153.254721 
z
" style="fill:#1f77b4;"/>
   </g>
   <g id="patch_69">
    <path clip-path="url(#pb2845e2e24)" d="M 439.865 152.466112 
L 464.422986 152.466112 
L 464.422986 149.311676 
L 439.865 149.311676 
z
" style="fill:#1f77b4;"/>
   </g>
   <g id="patch_70">
    <path clip-path="url(#pb2845e2e24)" d="M 439.865 148.523067 
L 464.431216 148.523067 
L 464.431216 145.368631 
L 439.865 145.368631 
z
" style="fill:#1f77b4;"/>
   </g>
   <g id="patch_71">
    <path clip-path="url(#pb2845e2e24)" d="M 439.865 144.580022 
L 465.929056 144.580022 
L 465.929056 141.425586 
L 439.865 141.425586 
z
" style="fill:#1f77b4;"/>
   </g>
   <g id="patch_72">
    <path clip-path="url(#pb2845e2e24)" d="M 439.865 140.636977 
L 466.027815 140.636977 
L 466.027815 137.482541 
L 439.865 137.482541 
z
" style="fill:#1f77b4;"/>
   </g>
   <g id="patch_73">
    <path clip-path="url(#pb2845e2e24)" d="M 439.865 136.693932 
L 466.900183 136.693932 
L 466.900183 133.539496 
L 439.865 133.539496 
z
" style="fill:#1f77b4;"/>
   </g>
   <g id="patch_74">
    <path clip-path="url(#pb2845e2e24)" d="M 439.865 132.750887 
L 466.941332 132.750887 
L 466.941332 129.596451 
L 439.865 129.596451 
z
" style="fill:#1f77b4;"/>
   </g>
   <g id="patch_75">
    <path clip-path="url(#pb2845e2e24)" d="M 439.865 128.807842 
L 468.422712 128.807842 
L 468.422712 125.653406 
L 439.865 125.653406 
z
" style="fill:#1f77b4;"/>
   </g>
   <g id="patch_76">
    <path clip-path="url(#pb2845e2e24)" d="M 439.865 124.864797 
L 472.735174 124.864797 
L 472.735174 121.710361 
L 439.865 121.710361 
z
" style="fill:#1f77b4;"/>
   </g>
   <g id="patch_77">
    <path clip-path="url(#pb2845e2e24)" d="M 439.865 120.921752 
L 476.265796 120.921752 
L 476.265796 117.767317 
L 439.865 117.767317 
z
" style="fill:#1f77b4;"/>
   </g>
   <g id="patch_78">
    <path clip-path="url(#pb2845e2e24)" d="M 439.865 116.978708 
L 490.404744 116.978708 
L 490.404744 113.824272 
L 439.865 113.824272 
z
" style="fill:#1f77b4;"/>
   </g>
   <g id="patch_79">
    <path clip-path="url(#pb2845e2e24)" d="M 439.865 113.035663 
L 495.350906 113.035663 
L 495.350906 109.881227 
L 439.865 109.881227 
z
" style="fill:#1f77b4;"/>
   </g>
   <g id="patch_80">
    <path clip-path="url(#pb2845e2e24)" d="M 439.865 109.092618 
L 542.722143 109.092618 
L 542.722143 105.938182 
L 439.865 105.938182 
z
" style="fill:#1f77b4;"/>
   </g>
   <g id="matplotlib.axis_3">
    <g id="xtick_8">
     <g id="line2d_18">
      <defs>
       <path d="M 0 0 
L 0 3.5 
" id="m5387326a51" style="stroke:#000000;stroke-width:0.8;"/>
      </defs>
      <g>
       <use style="stroke:#000000;stroke-width:0.8;" x="439.865" xlink:href="#m5387326a51" y="312.12"/>
      </g>
     </g>
     <g id="text_42">
      <!-- 0 -->
      <g transform="translate(436.68375 326.718437)scale(0.1 -0.1)">
       <use xlink:href="#DejaVuSans-30"/>
      </g>
     </g>
    </g>
    <g id="xtick_9">
     <g id="line2d_19">
      <g>
       <use style="stroke:#000000;stroke-width:0.8;" x="479.601781" xlink:href="#m5387326a51" y="312.12"/>
      </g>
     </g>
     <g id="text_43">
      <!-- 5 -->
      <g transform="translate(476.420531 326.718437)scale(0.1 -0.1)">
       <use xlink:href="#DejaVuSans-35"/>
      </g>
     </g>
    </g>
    <g id="xtick_10">
     <g id="line2d_20">
      <g>
       <use style="stroke:#000000;stroke-width:0.8;" x="519.338561" xlink:href="#m5387326a51" y="312.12"/>
      </g>
     </g>
     <g id="text_44">
      <!-- 10 -->
      <g transform="translate(512.976061 326.718437)scale(0.1 -0.1)">
       <use xlink:href="#DejaVuSans-31"/>
       <use x="63.623047" xlink:href="#DejaVuSans-30"/>
      </g>
     </g>
    </g>
   </g>
   <g id="patch_81">
    <path d="M 439.865 312.12 
L 439.865 96.12 
" style="fill:none;stroke:#000000;stroke-linecap:square;stroke-linejoin:miter;stroke-width:0.8;"/>
   </g>
   <g id="patch_82">
    <path d="M 547.865 312.12 
L 547.865 96.12 
" style="fill:none;stroke:#000000;stroke-linecap:square;stroke-linejoin:miter;stroke-width:0.8;"/>
   </g>
   <g id="patch_83">
    <path d="M 439.865 312.12 
L 547.865 312.12 
" style="fill:none;stroke:#000000;stroke-linecap:square;stroke-linejoin:miter;stroke-width:0.8;"/>
   </g>
   <g id="patch_84">
    <path d="M 439.865 96.12 
L 547.865 96.12 
" style="fill:none;stroke:#000000;stroke-linecap:square;stroke-linejoin:miter;stroke-width:0.8;"/>
   </g>
   <g id="text_45">
    <!-- Top 50 -->
    <g transform="translate(474.198125 90.12)scale(0.12 -0.12)">
     <defs>
      <path d="M -19 4666 
L 3928 4666 
L 3928 4134 
L 2272 4134 
L 2272 0 
L 1638 0 
L 1638 4134 
L -19 4134 
L -19 4666 
z
" id="DejaVuSans-54" transform="scale(0.015625)"/>
     </defs>
     <use xlink:href="#DejaVuSans-54"/>
     <use x="44.083984" xlink:href="#DejaVuSans-6f"/>
     <use x="105.265625" xlink:href="#DejaVuSans-70"/>
     <use x="168.742188" xlink:href="#DejaVuSans-20"/>
     <use x="200.529297" xlink:href="#DejaVuSans-35"/>
     <use x="264.152344" xlink:href="#DejaVuSans-30"/>
    </g>
   </g>
  </g>
 </g>
 <defs>
  <clipPath id="pa488297af7">
   <rect height="364.6" width="434.45" x="130.75" y="25.44"/>
  </clipPath>
  <clipPath id="pb2845e2e24">
   <rect height="216" width="108" x="439.865" y="96.12"/>
  </clipPath>
 </defs>
</svg>
