<?xml version="1.0" encoding="utf-8" standalone="no"?>
<!DOCTYPE svg PUBLIC "-//W3C//DTD SVG 1.1//EN"
  "http://www.w3.org/Graphics/SVG/1.1/DTD/svg11.dtd">
<svg height="432pt" version="1.1" viewBox="0 0 576 432" width="576pt" xmlns="http://www.w3.org/2000/svg" xmlns:xlink="http://www.w3.org/1999/xlink">
 <metadata>
  <rdf:RDF xmlns:cc="http://creativecommons.org/ns#" xmlns:dc="http://purl.org/dc/elements/1.1/" xmlns:rdf="http://www.w3.org/1999/02/22-rdf-syntax-ns#">
   <cc:Work>
    <dc:type rdf:resource="http://purl.org/dc/dcmitype/StillImage"/>
    <dc:date>2021-04-20T18:39:50.684712</dc:date>
    <dc:format>image/svg+xml</dc:format>
    <dc:creator>
     <cc:Agent>
      <dc:title>Matplotlib v3.4.1, https://matplotlib.org/</dc:title>
     </cc:Agent>
    </dc:creator>
   </cc:Work>
  </rdf:RDF>
 </metadata>
 <defs>
  <style type="text/css">*{stroke-linecap:butt;stroke-linejoin:round;}</style>
 </defs>
 <g id="figure_1">
  <g id="patch_1">
   <path d="M 0 432 
L 576 432 
L 576 0 
L 0 0 
z
" style="fill:none;"/>
  </g>
  <g id="axes_1">
   <g id="patch_2">
    <path d="M 141.19 390.04 
L 565.2 390.04 
L 565.2 25.44 
L 141.19 25.44 
z
" style="fill:#ffffff;"/>
   </g>
   <g id="patch_3">
    <path clip-path="url(#pc137dbca75)" d="M 141.19 365.575498 
L 216.653635 365.575498 
L 216.653635 357.683723 
L 141.19 357.683723 
z
" style="fill:#1f77b4;"/>
   </g>
   <g id="patch_4">
    <path clip-path="url(#pc137dbca75)" d="M 141.19 343.02757 
L 228.715008 343.02757 
L 228.715008 335.135795 
L 141.19 335.135795 
z
" style="fill:#1f77b4;"/>
   </g>
   <g id="patch_5">
    <path clip-path="url(#pc137dbca75)" d="M 141.19 320.479641 
L 237.43193 320.479641 
L 237.43193 312.587866 
L 141.19 312.587866 
z
" style="fill:#1f77b4;"/>
   </g>
   <g id="patch_6">
    <path clip-path="url(#pc137dbca75)" d="M 141.19 297.931713 
L 245.188211 297.931713 
L 245.188211 290.039938 
L 141.19 290.039938 
z
" style="fill:#1f77b4;"/>
   </g>
   <g id="patch_7">
    <path clip-path="url(#pc137dbca75)" d="M 141.19 275.383785 
L 260.87867 275.383785 
L 260.87867 267.49201 
L 141.19 267.49201 
z
" style="fill:#1f77b4;"/>
   </g>
   <g id="patch_8">
    <path clip-path="url(#pc137dbca75)" d="M 141.19 252.835857 
L 269.986963 252.835857 
L 269.986963 244.944082 
L 141.19 244.944082 
z
" style="fill:#1f77b4;"/>
   </g>
   <g id="patch_9">
    <path clip-path="url(#pc137dbca75)" d="M 141.19 230.287928 
L 280.162635 230.287928 
L 280.162635 222.396153 
L 141.19 222.396153 
z
" style="fill:#1f77b4;"/>
   </g>
   <g id="patch_10">
    <path clip-path="url(#pc137dbca75)" d="M 141.19 207.74 
L 292.437484 207.74 
L 292.437484 199.848225 
L 141.19 199.848225 
z
" style="fill:#1f77b4;"/>
   </g>
   <g id="patch_11">
    <path clip-path="url(#pc137dbca75)" d="M 141.19 185.192072 
L 293.398124 185.192072 
L 293.398124 177.300297 
L 141.19 177.300297 
z
" style="fill:#1f77b4;"/>
   </g>
   <g id="patch_12">
    <path clip-path="url(#pc137dbca75)" d="M 141.19 162.644143 
L 293.967393 162.644143 
L 293.967393 154.752369 
L 141.19 154.752369 
z
" style="fill:#1f77b4;"/>
   </g>
   <g id="patch_13">
    <path clip-path="url(#pc137dbca75)" d="M 141.19 140.096215 
L 297.52532 140.096215 
L 297.52532 132.20444 
L 141.19 132.20444 
z
" style="fill:#1f77b4;"/>
   </g>
   <g id="patch_14">
    <path clip-path="url(#pc137dbca75)" d="M 141.19 117.548287 
L 303.075686 117.548287 
L 303.075686 109.656512 
L 141.19 109.656512 
z
" style="fill:#1f77b4;"/>
   </g>
   <g id="patch_15">
    <path clip-path="url(#pc137dbca75)" d="M 141.19 95.000359 
L 377.329626 95.000359 
L 377.329626 87.108584 
L 141.19 87.108584 
z
" style="fill:#1f77b4;"/>
   </g>
   <g id="patch_16">
    <path clip-path="url(#pc137dbca75)" d="M 141.19 72.45243 
L 457.987835 72.45243 
L 457.987835 64.560656 
L 141.19 64.560656 
z
" style="fill:#1f77b4;"/>
   </g>
   <g id="patch_17">
    <path clip-path="url(#pc137dbca75)" d="M 141.19 49.904502 
L 474.887989 49.904502 
L 474.887989 42.012727 
L 141.19 42.012727 
z
" style="fill:#1f77b4;"/>
   </g>
   <g id="patch_18">
    <path clip-path="url(#pc137dbca75)" d="M 141.19 373.467273 
L 204.53026 373.467273 
L 204.53026 365.575498 
L 141.19 365.575498 
z
" style="fill:#ff7f0e;"/>
   </g>
   <g id="patch_19">
    <path clip-path="url(#pc137dbca75)" d="M 141.19 350.919344 
L 279.291701 350.919344 
L 279.291701 343.02757 
L 141.19 343.02757 
z
" style="fill:#ff7f0e;"/>
   </g>
   <g id="patch_20">
    <path clip-path="url(#pc137dbca75)" d="M 141.19 328.371416 
L 230.219068 328.371416 
L 230.219068 320.479641 
L 141.19 320.479641 
z
" style="fill:#ff7f0e;"/>
   </g>
   <g id="patch_21">
    <path clip-path="url(#pc137dbca75)" d="M 141.19 305.823488 
L 545.009048 305.823488 
L 545.009048 297.931713 
L 141.19 297.931713 
z
" style="fill:#ff7f0e;"/>
   </g>
   <g id="patch_22">
    <path clip-path="url(#pc137dbca75)" d="M 141.19 283.27556 
L 259.419745 283.27556 
L 259.419745 275.383785 
L 141.19 275.383785 
z
" style="fill:#ff7f0e;"/>
   </g>
   <g id="patch_23">
    <path clip-path="url(#pc137dbca75)" d="M 141.19 260.727631 
L 197.92797 260.727631 
L 197.92797 252.835857 
L 141.19 252.835857 
z
" style="fill:#ff7f0e;"/>
   </g>
   <g id="patch_24">
    <path clip-path="url(#pc137dbca75)" d="M 141.19 238.179703 
L 232.873566 238.179703 
L 232.873566 230.287928 
L 141.19 230.287928 
z
" style="fill:#ff7f0e;"/>
   </g>
   <g id="patch_25">
    <path clip-path="url(#pc137dbca75)" d="M 141.19 215.631775 
L 237.095216 215.631775 
L 237.095216 207.74 
L 141.19 207.74 
z
" style="fill:#ff7f0e;"/>
   </g>
   <g id="patch_26">
    <path clip-path="url(#pc137dbca75)" d="M 141.19 193.083847 
L 237.175809 193.083847 
L 237.175809 185.192072 
L 141.19 185.192072 
z
" style="fill:#ff7f0e;"/>
   </g>
   <g id="patch_27">
    <path clip-path="url(#pc137dbca75)" d="M 141.19 170.535918 
L 206.948937 170.535918 
L 206.948937 162.644143 
L 141.19 162.644143 
z
" style="fill:#ff7f0e;"/>
   </g>
   <g id="patch_28">
    <path clip-path="url(#pc137dbca75)" d="M 141.19 147.98799 
L 229.242134 147.98799 
L 229.242134 140.096215 
L 141.19 140.096215 
z
" style="fill:#ff7f0e;"/>
   </g>
   <g id="patch_29">
    <path clip-path="url(#pc137dbca75)" d="M 141.19 125.440062 
L 235.661121 125.440062 
L 235.661121 117.548287 
L 141.19 117.548287 
z
" style="fill:#ff7f0e;"/>
   </g>
   <g id="patch_30">
    <path clip-path="url(#pc137dbca75)" d="M 141.19 102.892134 
L 182.307397 102.892134 
L 182.307397 95.000359 
L 141.19 95.000359 
z
" style="fill:#ff7f0e;"/>
   </g>
   <g id="patch_31">
    <path clip-path="url(#pc137dbca75)" d="M 141.19 80.344205 
L 201.094604 80.344205 
L 201.094604 72.45243 
L 141.19 72.45243 
z
" style="fill:#ff7f0e;"/>
   </g>
   <g id="patch_32">
    <path clip-path="url(#pc137dbca75)" d="M 141.19 57.796277 
L 182.061468 57.796277 
L 182.061468 49.904502 
L 141.19 49.904502 
z
" style="fill:#ff7f0e;"/>
   </g>
   <g id="matplotlib.axis_1">
    <g id="xtick_1">
     <g id="line2d_1">
      <defs>
       <path d="M 0 0 
L 0 3.5 
" id="m4947d2c510" style="stroke:#ffffff;stroke-width:0.8;"/>
      </defs>
      <g>
       <use style="fill:#ffffff;stroke:#ffffff;stroke-width:0.8;" x="141.19" xlink:href="#m4947d2c510" y="390.04"/>
      </g>
     </g>
     <g id="text_1">
      <!-- 0 -->
      <g style="fill:#ffffff;" transform="translate(138.00875 404.638438)scale(0.1 -0.1)">
       <defs>
        <path d="M 2034 4250 
Q 1547 4250 1301 3770 
Q 1056 3291 1056 2328 
Q 1056 1369 1301 889 
Q 1547 409 2034 409 
Q 2525 409 2770 889 
Q 3016 1369 3016 2328 
Q 3016 3291 2770 3770 
Q 2525 4250 2034 4250 
z
M 2034 4750 
Q 2819 4750 3233 4129 
Q 3647 3509 3647 2328 
Q 3647 1150 3233 529 
Q 2819 -91 2034 -91 
Q 1250 -91 836 529 
Q 422 1150 422 2328 
Q 422 3509 836 4129 
Q 1250 4750 2034 4750 
z
" id="DejaVuSans-30" transform="scale(0.015625)"/>
       </defs>
       <use xlink:href="#DejaVuSans-30"/>
      </g>
     </g>
    </g>
    <g id="xtick_2">
     <g id="line2d_2">
      <g>
       <use style="fill:#ffffff;stroke:#ffffff;stroke-width:0.8;" x="209.922712" xlink:href="#m4947d2c510" y="390.04"/>
      </g>
     </g>
     <g id="text_2">
      <!-- 2 -->
      <g style="fill:#ffffff;" transform="translate(206.741462 404.638438)scale(0.1 -0.1)">
       <defs>
        <path d="M 1228 531 
L 3431 531 
L 3431 0 
L 469 0 
L 469 531 
Q 828 903 1448 1529 
Q 2069 2156 2228 2338 
Q 2531 2678 2651 2914 
Q 2772 3150 2772 3378 
Q 2772 3750 2511 3984 
Q 2250 4219 1831 4219 
Q 1534 4219 1204 4116 
Q 875 4013 500 3803 
L 500 4441 
Q 881 4594 1212 4672 
Q 1544 4750 1819 4750 
Q 2544 4750 2975 4387 
Q 3406 4025 3406 3419 
Q 3406 3131 3298 2873 
Q 3191 2616 2906 2266 
Q 2828 2175 2409 1742 
Q 1991 1309 1228 531 
z
" id="DejaVuSans-32" transform="scale(0.015625)"/>
       </defs>
       <use xlink:href="#DejaVuSans-32"/>
      </g>
     </g>
    </g>
    <g id="xtick_3">
     <g id="line2d_3">
      <g>
       <use style="fill:#ffffff;stroke:#ffffff;stroke-width:0.8;" x="278.655424" xlink:href="#m4947d2c510" y="390.04"/>
      </g>
     </g>
     <g id="text_3">
      <!-- 4 -->
      <g style="fill:#ffffff;" transform="translate(275.474174 404.638438)scale(0.1 -0.1)">
       <defs>
        <path d="M 2419 4116 
L 825 1625 
L 2419 1625 
L 2419 4116 
z
M 2253 4666 
L 3047 4666 
L 3047 1625 
L 3713 1625 
L 3713 1100 
L 3047 1100 
L 3047 0 
L 2419 0 
L 2419 1100 
L 313 1100 
L 313 1709 
L 2253 4666 
z
" id="DejaVuSans-34" transform="scale(0.015625)"/>
       </defs>
       <use xlink:href="#DejaVuSans-34"/>
      </g>
     </g>
    </g>
    <g id="xtick_4">
     <g id="line2d_4">
      <g>
       <use style="fill:#ffffff;stroke:#ffffff;stroke-width:0.8;" x="347.388136" xlink:href="#m4947d2c510" y="390.04"/>
      </g>
     </g>
     <g id="text_4">
      <!-- 6 -->
      <g style="fill:#ffffff;" transform="translate(344.206886 404.638438)scale(0.1 -0.1)">
       <defs>
        <path d="M 2113 2584 
Q 1688 2584 1439 2293 
Q 1191 2003 1191 1497 
Q 1191 994 1439 701 
Q 1688 409 2113 409 
Q 2538 409 2786 701 
Q 3034 994 3034 1497 
Q 3034 2003 2786 2293 
Q 2538 2584 2113 2584 
z
M 3366 4563 
L 3366 3988 
Q 3128 4100 2886 4159 
Q 2644 4219 2406 4219 
Q 1781 4219 1451 3797 
Q 1122 3375 1075 2522 
Q 1259 2794 1537 2939 
Q 1816 3084 2150 3084 
Q 2853 3084 3261 2657 
Q 3669 2231 3669 1497 
Q 3669 778 3244 343 
Q 2819 -91 2113 -91 
Q 1303 -91 875 529 
Q 447 1150 447 2328 
Q 447 3434 972 4092 
Q 1497 4750 2381 4750 
Q 2619 4750 2861 4703 
Q 3103 4656 3366 4563 
z
" id="DejaVuSans-36" transform="scale(0.015625)"/>
       </defs>
       <use xlink:href="#DejaVuSans-36"/>
      </g>
     </g>
    </g>
    <g id="xtick_5">
     <g id="line2d_5">
      <g>
       <use style="fill:#ffffff;stroke:#ffffff;stroke-width:0.8;" x="416.120848" xlink:href="#m4947d2c510" y="390.04"/>
      </g>
     </g>
     <g id="text_5">
      <!-- 8 -->
      <g style="fill:#ffffff;" transform="translate(412.939598 404.638438)scale(0.1 -0.1)">
       <defs>
        <path d="M 2034 2216 
Q 1584 2216 1326 1975 
Q 1069 1734 1069 1313 
Q 1069 891 1326 650 
Q 1584 409 2034 409 
Q 2484 409 2743 651 
Q 3003 894 3003 1313 
Q 3003 1734 2745 1975 
Q 2488 2216 2034 2216 
z
M 1403 2484 
Q 997 2584 770 2862 
Q 544 3141 544 3541 
Q 544 4100 942 4425 
Q 1341 4750 2034 4750 
Q 2731 4750 3128 4425 
Q 3525 4100 3525 3541 
Q 3525 3141 3298 2862 
Q 3072 2584 2669 2484 
Q 3125 2378 3379 2068 
Q 3634 1759 3634 1313 
Q 3634 634 3220 271 
Q 2806 -91 2034 -91 
Q 1263 -91 848 271 
Q 434 634 434 1313 
Q 434 1759 690 2068 
Q 947 2378 1403 2484 
z
M 1172 3481 
Q 1172 3119 1398 2916 
Q 1625 2713 2034 2713 
Q 2441 2713 2670 2916 
Q 2900 3119 2900 3481 
Q 2900 3844 2670 4047 
Q 2441 4250 2034 4250 
Q 1625 4250 1398 4047 
Q 1172 3844 1172 3481 
z
" id="DejaVuSans-38" transform="scale(0.015625)"/>
       </defs>
       <use xlink:href="#DejaVuSans-38"/>
      </g>
     </g>
    </g>
    <g id="xtick_6">
     <g id="line2d_6">
      <g>
       <use style="fill:#ffffff;stroke:#ffffff;stroke-width:0.8;" x="484.85356" xlink:href="#m4947d2c510" y="390.04"/>
      </g>
     </g>
     <g id="text_6">
      <!-- 10 -->
      <g style="fill:#ffffff;" transform="translate(478.49106 404.638438)scale(0.1 -0.1)">
       <defs>
        <path d="M 794 531 
L 1825 531 
L 1825 4091 
L 703 3866 
L 703 4441 
L 1819 4666 
L 2450 4666 
L 2450 531 
L 3481 531 
L 3481 0 
L 794 0 
L 794 531 
z
" id="DejaVuSans-31" transform="scale(0.015625)"/>
       </defs>
       <use xlink:href="#DejaVuSans-31"/>
       <use x="63.623047" xlink:href="#DejaVuSans-30"/>
      </g>
     </g>
    </g>
    <g id="xtick_7">
     <g id="line2d_7">
      <g>
       <use style="fill:#ffffff;stroke:#ffffff;stroke-width:0.8;" x="553.586272" xlink:href="#m4947d2c510" y="390.04"/>
      </g>
     </g>
     <g id="text_7">
      <!-- 12 -->
      <g style="fill:#ffffff;" transform="translate(547.223772 404.638438)scale(0.1 -0.1)">
       <use xlink:href="#DejaVuSans-31"/>
       <use x="63.623047" xlink:href="#DejaVuSans-32"/>
      </g>
     </g>
    </g>
    <g id="text_8">
     <!-- % Runtime -->
     <g style="fill:#ffffff;" transform="translate(325.972344 418.316562)scale(0.1 -0.1)">
      <defs>
       <path d="M 4653 2053 
Q 4381 2053 4226 1822 
Q 4072 1591 4072 1178 
Q 4072 772 4226 539 
Q 4381 306 4653 306 
Q 4919 306 5073 539 
Q 5228 772 5228 1178 
Q 5228 1588 5073 1820 
Q 4919 2053 4653 2053 
z
M 4653 2450 
Q 5147 2450 5437 2106 
Q 5728 1763 5728 1178 
Q 5728 594 5436 251 
Q 5144 -91 4653 -91 
Q 4153 -91 3862 251 
Q 3572 594 3572 1178 
Q 3572 1766 3864 2108 
Q 4156 2450 4653 2450 
z
M 1428 4353 
Q 1159 4353 1004 4120 
Q 850 3888 850 3481 
Q 850 3069 1003 2837 
Q 1156 2606 1428 2606 
Q 1700 2606 1854 2837 
Q 2009 3069 2009 3481 
Q 2009 3884 1853 4118 
Q 1697 4353 1428 4353 
z
M 4250 4750 
L 4750 4750 
L 1831 -91 
L 1331 -91 
L 4250 4750 
z
M 1428 4750 
Q 1922 4750 2215 4408 
Q 2509 4066 2509 3481 
Q 2509 2891 2217 2550 
Q 1925 2209 1428 2209 
Q 931 2209 642 2551 
Q 353 2894 353 3481 
Q 353 4063 643 4406 
Q 934 4750 1428 4750 
z
" id="DejaVuSans-25" transform="scale(0.015625)"/>
       <path id="DejaVuSans-20" transform="scale(0.015625)"/>
       <path d="M 2841 2188 
Q 3044 2119 3236 1894 
Q 3428 1669 3622 1275 
L 4263 0 
L 3584 0 
L 2988 1197 
Q 2756 1666 2539 1819 
Q 2322 1972 1947 1972 
L 1259 1972 
L 1259 0 
L 628 0 
L 628 4666 
L 2053 4666 
Q 2853 4666 3247 4331 
Q 3641 3997 3641 3322 
Q 3641 2881 3436 2590 
Q 3231 2300 2841 2188 
z
M 1259 4147 
L 1259 2491 
L 2053 2491 
Q 2509 2491 2742 2702 
Q 2975 2913 2975 3322 
Q 2975 3731 2742 3939 
Q 2509 4147 2053 4147 
L 1259 4147 
z
" id="DejaVuSans-52" transform="scale(0.015625)"/>
       <path d="M 544 1381 
L 544 3500 
L 1119 3500 
L 1119 1403 
Q 1119 906 1312 657 
Q 1506 409 1894 409 
Q 2359 409 2629 706 
Q 2900 1003 2900 1516 
L 2900 3500 
L 3475 3500 
L 3475 0 
L 2900 0 
L 2900 538 
Q 2691 219 2414 64 
Q 2138 -91 1772 -91 
Q 1169 -91 856 284 
Q 544 659 544 1381 
z
M 1991 3584 
L 1991 3584 
z
" id="DejaVuSans-75" transform="scale(0.015625)"/>
       <path d="M 3513 2113 
L 3513 0 
L 2938 0 
L 2938 2094 
Q 2938 2591 2744 2837 
Q 2550 3084 2163 3084 
Q 1697 3084 1428 2787 
Q 1159 2491 1159 1978 
L 1159 0 
L 581 0 
L 581 3500 
L 1159 3500 
L 1159 2956 
Q 1366 3272 1645 3428 
Q 1925 3584 2291 3584 
Q 2894 3584 3203 3211 
Q 3513 2838 3513 2113 
z
" id="DejaVuSans-6e" transform="scale(0.015625)"/>
       <path d="M 1172 4494 
L 1172 3500 
L 2356 3500 
L 2356 3053 
L 1172 3053 
L 1172 1153 
Q 1172 725 1289 603 
Q 1406 481 1766 481 
L 2356 481 
L 2356 0 
L 1766 0 
Q 1100 0 847 248 
Q 594 497 594 1153 
L 594 3053 
L 172 3053 
L 172 3500 
L 594 3500 
L 594 4494 
L 1172 4494 
z
" id="DejaVuSans-74" transform="scale(0.015625)"/>
       <path d="M 603 3500 
L 1178 3500 
L 1178 0 
L 603 0 
L 603 3500 
z
M 603 4863 
L 1178 4863 
L 1178 4134 
L 603 4134 
L 603 4863 
z
" id="DejaVuSans-69" transform="scale(0.015625)"/>
       <path d="M 3328 2828 
Q 3544 3216 3844 3400 
Q 4144 3584 4550 3584 
Q 5097 3584 5394 3201 
Q 5691 2819 5691 2113 
L 5691 0 
L 5113 0 
L 5113 2094 
Q 5113 2597 4934 2840 
Q 4756 3084 4391 3084 
Q 3944 3084 3684 2787 
Q 3425 2491 3425 1978 
L 3425 0 
L 2847 0 
L 2847 2094 
Q 2847 2600 2669 2842 
Q 2491 3084 2119 3084 
Q 1678 3084 1418 2786 
Q 1159 2488 1159 1978 
L 1159 0 
L 581 0 
L 581 3500 
L 1159 3500 
L 1159 2956 
Q 1356 3278 1631 3431 
Q 1906 3584 2284 3584 
Q 2666 3584 2933 3390 
Q 3200 3197 3328 2828 
z
" id="DejaVuSans-6d" transform="scale(0.015625)"/>
       <path d="M 3597 1894 
L 3597 1613 
L 953 1613 
Q 991 1019 1311 708 
Q 1631 397 2203 397 
Q 2534 397 2845 478 
Q 3156 559 3463 722 
L 3463 178 
Q 3153 47 2828 -22 
Q 2503 -91 2169 -91 
Q 1331 -91 842 396 
Q 353 884 353 1716 
Q 353 2575 817 3079 
Q 1281 3584 2069 3584 
Q 2775 3584 3186 3129 
Q 3597 2675 3597 1894 
z
M 3022 2063 
Q 3016 2534 2758 2815 
Q 2500 3097 2075 3097 
Q 1594 3097 1305 2825 
Q 1016 2553 972 2059 
L 3022 2063 
z
" id="DejaVuSans-65" transform="scale(0.015625)"/>
      </defs>
      <use xlink:href="#DejaVuSans-25"/>
      <use x="95.019531" xlink:href="#DejaVuSans-20"/>
      <use x="126.806641" xlink:href="#DejaVuSans-52"/>
      <use x="191.789062" xlink:href="#DejaVuSans-75"/>
      <use x="255.167969" xlink:href="#DejaVuSans-6e"/>
      <use x="318.546875" xlink:href="#DejaVuSans-74"/>
      <use x="357.755859" xlink:href="#DejaVuSans-69"/>
      <use x="385.539062" xlink:href="#DejaVuSans-6d"/>
      <use x="482.951172" xlink:href="#DejaVuSans-65"/>
     </g>
    </g>
   </g>
   <g id="matplotlib.axis_2">
    <g id="ytick_1">
     <g id="line2d_8">
      <defs>
       <path d="M 0 0 
L -3.5 0 
" id="me18dfbb37f" style="stroke:#ffffff;stroke-width:0.8;"/>
      </defs>
      <g>
       <use style="fill:#ffffff;stroke:#ffffff;stroke-width:0.8;" x="141.19" xlink:href="#me18dfbb37f" y="365.575498"/>
      </g>
     </g>
     <g id="text_9">
      <!-- step_mom_dyn_split_rk2 -->
      <g style="fill:#ffffff;" transform="translate(11.055625 369.374717)scale(0.1 -0.1)">
       <defs>
        <path d="M 2834 3397 
L 2834 2853 
Q 2591 2978 2328 3040 
Q 2066 3103 1784 3103 
Q 1356 3103 1142 2972 
Q 928 2841 928 2578 
Q 928 2378 1081 2264 
Q 1234 2150 1697 2047 
L 1894 2003 
Q 2506 1872 2764 1633 
Q 3022 1394 3022 966 
Q 3022 478 2636 193 
Q 2250 -91 1575 -91 
Q 1294 -91 989 -36 
Q 684 19 347 128 
L 347 722 
Q 666 556 975 473 
Q 1284 391 1588 391 
Q 1994 391 2212 530 
Q 2431 669 2431 922 
Q 2431 1156 2273 1281 
Q 2116 1406 1581 1522 
L 1381 1569 
Q 847 1681 609 1914 
Q 372 2147 372 2553 
Q 372 3047 722 3315 
Q 1072 3584 1716 3584 
Q 2034 3584 2315 3537 
Q 2597 3491 2834 3397 
z
" id="DejaVuSans-73" transform="scale(0.015625)"/>
        <path d="M 1159 525 
L 1159 -1331 
L 581 -1331 
L 581 3500 
L 1159 3500 
L 1159 2969 
Q 1341 3281 1617 3432 
Q 1894 3584 2278 3584 
Q 2916 3584 3314 3078 
Q 3713 2572 3713 1747 
Q 3713 922 3314 415 
Q 2916 -91 2278 -91 
Q 1894 -91 1617 61 
Q 1341 213 1159 525 
z
M 3116 1747 
Q 3116 2381 2855 2742 
Q 2594 3103 2138 3103 
Q 1681 3103 1420 2742 
Q 1159 2381 1159 1747 
Q 1159 1113 1420 752 
Q 1681 391 2138 391 
Q 2594 391 2855 752 
Q 3116 1113 3116 1747 
z
" id="DejaVuSans-70" transform="scale(0.015625)"/>
        <path d="M 3263 -1063 
L 3263 -1509 
L -63 -1509 
L -63 -1063 
L 3263 -1063 
z
" id="DejaVuSans-5f" transform="scale(0.015625)"/>
        <path d="M 1959 3097 
Q 1497 3097 1228 2736 
Q 959 2375 959 1747 
Q 959 1119 1226 758 
Q 1494 397 1959 397 
Q 2419 397 2687 759 
Q 2956 1122 2956 1747 
Q 2956 2369 2687 2733 
Q 2419 3097 1959 3097 
z
M 1959 3584 
Q 2709 3584 3137 3096 
Q 3566 2609 3566 1747 
Q 3566 888 3137 398 
Q 2709 -91 1959 -91 
Q 1206 -91 779 398 
Q 353 888 353 1747 
Q 353 2609 779 3096 
Q 1206 3584 1959 3584 
z
" id="DejaVuSans-6f" transform="scale(0.015625)"/>
        <path d="M 2906 2969 
L 2906 4863 
L 3481 4863 
L 3481 0 
L 2906 0 
L 2906 525 
Q 2725 213 2448 61 
Q 2172 -91 1784 -91 
Q 1150 -91 751 415 
Q 353 922 353 1747 
Q 353 2572 751 3078 
Q 1150 3584 1784 3584 
Q 2172 3584 2448 3432 
Q 2725 3281 2906 2969 
z
M 947 1747 
Q 947 1113 1208 752 
Q 1469 391 1925 391 
Q 2381 391 2643 752 
Q 2906 1113 2906 1747 
Q 2906 2381 2643 2742 
Q 2381 3103 1925 3103 
Q 1469 3103 1208 2742 
Q 947 2381 947 1747 
z
" id="DejaVuSans-64" transform="scale(0.015625)"/>
        <path d="M 2059 -325 
Q 1816 -950 1584 -1140 
Q 1353 -1331 966 -1331 
L 506 -1331 
L 506 -850 
L 844 -850 
Q 1081 -850 1212 -737 
Q 1344 -625 1503 -206 
L 1606 56 
L 191 3500 
L 800 3500 
L 1894 763 
L 2988 3500 
L 3597 3500 
L 2059 -325 
z
" id="DejaVuSans-79" transform="scale(0.015625)"/>
        <path d="M 603 4863 
L 1178 4863 
L 1178 0 
L 603 0 
L 603 4863 
z
" id="DejaVuSans-6c" transform="scale(0.015625)"/>
        <path d="M 2631 2963 
Q 2534 3019 2420 3045 
Q 2306 3072 2169 3072 
Q 1681 3072 1420 2755 
Q 1159 2438 1159 1844 
L 1159 0 
L 581 0 
L 581 3500 
L 1159 3500 
L 1159 2956 
Q 1341 3275 1631 3429 
Q 1922 3584 2338 3584 
Q 2397 3584 2469 3576 
Q 2541 3569 2628 3553 
L 2631 2963 
z
" id="DejaVuSans-72" transform="scale(0.015625)"/>
        <path d="M 581 4863 
L 1159 4863 
L 1159 1991 
L 2875 3500 
L 3609 3500 
L 1753 1863 
L 3688 0 
L 2938 0 
L 1159 1709 
L 1159 0 
L 581 0 
L 581 4863 
z
" id="DejaVuSans-6b" transform="scale(0.015625)"/>
       </defs>
       <use xlink:href="#DejaVuSans-73"/>
       <use x="52.099609" xlink:href="#DejaVuSans-74"/>
       <use x="91.308594" xlink:href="#DejaVuSans-65"/>
       <use x="152.832031" xlink:href="#DejaVuSans-70"/>
       <use x="216.308594" xlink:href="#DejaVuSans-5f"/>
       <use x="266.308594" xlink:href="#DejaVuSans-6d"/>
       <use x="363.720703" xlink:href="#DejaVuSans-6f"/>
       <use x="424.902344" xlink:href="#DejaVuSans-6d"/>
       <use x="522.314453" xlink:href="#DejaVuSans-5f"/>
       <use x="572.314453" xlink:href="#DejaVuSans-64"/>
       <use x="635.791016" xlink:href="#DejaVuSans-79"/>
       <use x="694.970703" xlink:href="#DejaVuSans-6e"/>
       <use x="758.349609" xlink:href="#DejaVuSans-5f"/>
       <use x="808.349609" xlink:href="#DejaVuSans-73"/>
       <use x="860.449219" xlink:href="#DejaVuSans-70"/>
       <use x="923.925781" xlink:href="#DejaVuSans-6c"/>
       <use x="951.708984" xlink:href="#DejaVuSans-69"/>
       <use x="979.492188" xlink:href="#DejaVuSans-74"/>
       <use x="1018.701172" xlink:href="#DejaVuSans-5f"/>
       <use x="1068.701172" xlink:href="#DejaVuSans-72"/>
       <use x="1109.814453" xlink:href="#DejaVuSans-6b"/>
       <use x="1167.724609" xlink:href="#DejaVuSans-32"/>
      </g>
     </g>
    </g>
    <g id="ytick_2">
     <g id="line2d_9">
      <g>
       <use style="fill:#ffffff;stroke:#ffffff;stroke-width:0.8;" x="141.19" xlink:href="#me18dfbb37f" y="343.02757"/>
      </g>
     </g>
     <g id="text_10">
      <!-- meridional_mass_flux -->
      <g style="fill:#ffffff;" transform="translate(26.075937 346.826788)scale(0.1 -0.1)">
       <defs>
        <path d="M 2194 1759 
Q 1497 1759 1228 1600 
Q 959 1441 959 1056 
Q 959 750 1161 570 
Q 1363 391 1709 391 
Q 2188 391 2477 730 
Q 2766 1069 2766 1631 
L 2766 1759 
L 2194 1759 
z
M 3341 1997 
L 3341 0 
L 2766 0 
L 2766 531 
Q 2569 213 2275 61 
Q 1981 -91 1556 -91 
Q 1019 -91 701 211 
Q 384 513 384 1019 
Q 384 1609 779 1909 
Q 1175 2209 1959 2209 
L 2766 2209 
L 2766 2266 
Q 2766 2663 2505 2880 
Q 2244 3097 1772 3097 
Q 1472 3097 1187 3025 
Q 903 2953 641 2809 
L 641 3341 
Q 956 3463 1253 3523 
Q 1550 3584 1831 3584 
Q 2591 3584 2966 3190 
Q 3341 2797 3341 1997 
z
" id="DejaVuSans-61" transform="scale(0.015625)"/>
        <path d="M 2375 4863 
L 2375 4384 
L 1825 4384 
Q 1516 4384 1395 4259 
Q 1275 4134 1275 3809 
L 1275 3500 
L 2222 3500 
L 2222 3053 
L 1275 3053 
L 1275 0 
L 697 0 
L 697 3053 
L 147 3053 
L 147 3500 
L 697 3500 
L 697 3744 
Q 697 4328 969 4595 
Q 1241 4863 1831 4863 
L 2375 4863 
z
" id="DejaVuSans-66" transform="scale(0.015625)"/>
        <path d="M 3513 3500 
L 2247 1797 
L 3578 0 
L 2900 0 
L 1881 1375 
L 863 0 
L 184 0 
L 1544 1831 
L 300 3500 
L 978 3500 
L 1906 2253 
L 2834 3500 
L 3513 3500 
z
" id="DejaVuSans-78" transform="scale(0.015625)"/>
       </defs>
       <use xlink:href="#DejaVuSans-6d"/>
       <use x="97.412109" xlink:href="#DejaVuSans-65"/>
       <use x="158.935547" xlink:href="#DejaVuSans-72"/>
       <use x="200.048828" xlink:href="#DejaVuSans-69"/>
       <use x="227.832031" xlink:href="#DejaVuSans-64"/>
       <use x="291.308594" xlink:href="#DejaVuSans-69"/>
       <use x="319.091797" xlink:href="#DejaVuSans-6f"/>
       <use x="380.273438" xlink:href="#DejaVuSans-6e"/>
       <use x="443.652344" xlink:href="#DejaVuSans-61"/>
       <use x="504.931641" xlink:href="#DejaVuSans-6c"/>
       <use x="532.714844" xlink:href="#DejaVuSans-5f"/>
       <use x="582.714844" xlink:href="#DejaVuSans-6d"/>
       <use x="680.126953" xlink:href="#DejaVuSans-61"/>
       <use x="741.40625" xlink:href="#DejaVuSans-73"/>
       <use x="793.505859" xlink:href="#DejaVuSans-73"/>
       <use x="845.605469" xlink:href="#DejaVuSans-5f"/>
       <use x="895.605469" xlink:href="#DejaVuSans-66"/>
       <use x="930.810547" xlink:href="#DejaVuSans-6c"/>
       <use x="958.59375" xlink:href="#DejaVuSans-75"/>
       <use x="1021.972656" xlink:href="#DejaVuSans-78"/>
      </g>
     </g>
    </g>
    <g id="ytick_3">
     <g id="line2d_10">
      <g>
       <use style="fill:#ffffff;stroke:#ffffff;stroke-width:0.8;" x="141.19" xlink:href="#me18dfbb37f" y="320.479641"/>
      </g>
     </g>
     <g id="text_11">
      <!-- thickness_diffuse_full -->
      <g style="fill:#ffffff;" transform="translate(27.674375 324.27886)scale(0.1 -0.1)">
       <defs>
        <path d="M 3513 2113 
L 3513 0 
L 2938 0 
L 2938 2094 
Q 2938 2591 2744 2837 
Q 2550 3084 2163 3084 
Q 1697 3084 1428 2787 
Q 1159 2491 1159 1978 
L 1159 0 
L 581 0 
L 581 4863 
L 1159 4863 
L 1159 2956 
Q 1366 3272 1645 3428 
Q 1925 3584 2291 3584 
Q 2894 3584 3203 3211 
Q 3513 2838 3513 2113 
z
" id="DejaVuSans-68" transform="scale(0.015625)"/>
        <path d="M 3122 3366 
L 3122 2828 
Q 2878 2963 2633 3030 
Q 2388 3097 2138 3097 
Q 1578 3097 1268 2742 
Q 959 2388 959 1747 
Q 959 1106 1268 751 
Q 1578 397 2138 397 
Q 2388 397 2633 464 
Q 2878 531 3122 666 
L 3122 134 
Q 2881 22 2623 -34 
Q 2366 -91 2075 -91 
Q 1284 -91 818 406 
Q 353 903 353 1747 
Q 353 2603 823 3093 
Q 1294 3584 2113 3584 
Q 2378 3584 2631 3529 
Q 2884 3475 3122 3366 
z
" id="DejaVuSans-63" transform="scale(0.015625)"/>
       </defs>
       <use xlink:href="#DejaVuSans-74"/>
       <use x="39.208984" xlink:href="#DejaVuSans-68"/>
       <use x="102.587891" xlink:href="#DejaVuSans-69"/>
       <use x="130.371094" xlink:href="#DejaVuSans-63"/>
       <use x="185.351562" xlink:href="#DejaVuSans-6b"/>
       <use x="243.261719" xlink:href="#DejaVuSans-6e"/>
       <use x="306.640625" xlink:href="#DejaVuSans-65"/>
       <use x="368.164062" xlink:href="#DejaVuSans-73"/>
       <use x="420.263672" xlink:href="#DejaVuSans-73"/>
       <use x="472.363281" xlink:href="#DejaVuSans-5f"/>
       <use x="522.363281" xlink:href="#DejaVuSans-64"/>
       <use x="585.839844" xlink:href="#DejaVuSans-69"/>
       <use x="613.623047" xlink:href="#DejaVuSans-66"/>
       <use x="648.828125" xlink:href="#DejaVuSans-66"/>
       <use x="684.033203" xlink:href="#DejaVuSans-75"/>
       <use x="747.412109" xlink:href="#DejaVuSans-73"/>
       <use x="799.511719" xlink:href="#DejaVuSans-65"/>
       <use x="861.035156" xlink:href="#DejaVuSans-5f"/>
       <use x="911.035156" xlink:href="#DejaVuSans-66"/>
       <use x="946.240234" xlink:href="#DejaVuSans-75"/>
       <use x="1009.619141" xlink:href="#DejaVuSans-6c"/>
       <use x="1037.402344" xlink:href="#DejaVuSans-6c"/>
      </g>
     </g>
    </g>
    <g id="ytick_4">
     <g id="line2d_11">
      <g>
       <use style="fill:#ffffff;stroke:#ffffff;stroke-width:0.8;" x="141.19" xlink:href="#me18dfbb37f" y="297.931713"/>
      </g>
     </g>
     <g id="text_12">
      <!-- int_density_dz_wright -->
      <g style="fill:#ffffff;" transform="translate(26.218125 301.730932)scale(0.1 -0.1)">
       <defs>
        <path d="M 353 3500 
L 3084 3500 
L 3084 2975 
L 922 459 
L 3084 459 
L 3084 0 
L 275 0 
L 275 525 
L 2438 3041 
L 353 3041 
L 353 3500 
z
" id="DejaVuSans-7a" transform="scale(0.015625)"/>
        <path d="M 269 3500 
L 844 3500 
L 1563 769 
L 2278 3500 
L 2956 3500 
L 3675 769 
L 4391 3500 
L 4966 3500 
L 4050 0 
L 3372 0 
L 2619 2869 
L 1863 0 
L 1184 0 
L 269 3500 
z
" id="DejaVuSans-77" transform="scale(0.015625)"/>
        <path d="M 2906 1791 
Q 2906 2416 2648 2759 
Q 2391 3103 1925 3103 
Q 1463 3103 1205 2759 
Q 947 2416 947 1791 
Q 947 1169 1205 825 
Q 1463 481 1925 481 
Q 2391 481 2648 825 
Q 2906 1169 2906 1791 
z
M 3481 434 
Q 3481 -459 3084 -895 
Q 2688 -1331 1869 -1331 
Q 1566 -1331 1297 -1286 
Q 1028 -1241 775 -1147 
L 775 -588 
Q 1028 -725 1275 -790 
Q 1522 -856 1778 -856 
Q 2344 -856 2625 -561 
Q 2906 -266 2906 331 
L 2906 616 
Q 2728 306 2450 153 
Q 2172 0 1784 0 
Q 1141 0 747 490 
Q 353 981 353 1791 
Q 353 2603 747 3093 
Q 1141 3584 1784 3584 
Q 2172 3584 2450 3431 
Q 2728 3278 2906 2969 
L 2906 3500 
L 3481 3500 
L 3481 434 
z
" id="DejaVuSans-67" transform="scale(0.015625)"/>
       </defs>
       <use xlink:href="#DejaVuSans-69"/>
       <use x="27.783203" xlink:href="#DejaVuSans-6e"/>
       <use x="91.162109" xlink:href="#DejaVuSans-74"/>
       <use x="130.371094" xlink:href="#DejaVuSans-5f"/>
       <use x="180.371094" xlink:href="#DejaVuSans-64"/>
       <use x="243.847656" xlink:href="#DejaVuSans-65"/>
       <use x="305.371094" xlink:href="#DejaVuSans-6e"/>
       <use x="368.75" xlink:href="#DejaVuSans-73"/>
       <use x="420.849609" xlink:href="#DejaVuSans-69"/>
       <use x="448.632812" xlink:href="#DejaVuSans-74"/>
       <use x="487.841797" xlink:href="#DejaVuSans-79"/>
       <use x="547.021484" xlink:href="#DejaVuSans-5f"/>
       <use x="597.021484" xlink:href="#DejaVuSans-64"/>
       <use x="660.498047" xlink:href="#DejaVuSans-7a"/>
       <use x="712.988281" xlink:href="#DejaVuSans-5f"/>
       <use x="762.988281" xlink:href="#DejaVuSans-77"/>
       <use x="844.775391" xlink:href="#DejaVuSans-72"/>
       <use x="885.888672" xlink:href="#DejaVuSans-69"/>
       <use x="913.671875" xlink:href="#DejaVuSans-67"/>
       <use x="977.148438" xlink:href="#DejaVuSans-68"/>
       <use x="1040.527344" xlink:href="#DejaVuSans-74"/>
      </g>
     </g>
    </g>
    <g id="ytick_5">
     <g id="line2d_12">
      <g>
       <use style="fill:#ffffff;stroke:#ffffff;stroke-width:0.8;" x="141.19" xlink:href="#me18dfbb37f" y="275.383785"/>
      </g>
     </g>
     <g id="text_13">
      <!-- zonal_mass_flux -->
      <g style="fill:#ffffff;" transform="translate(52.736875 279.183004)scale(0.1 -0.1)">
       <use xlink:href="#DejaVuSans-7a"/>
       <use x="52.490234" xlink:href="#DejaVuSans-6f"/>
       <use x="113.671875" xlink:href="#DejaVuSans-6e"/>
       <use x="177.050781" xlink:href="#DejaVuSans-61"/>
       <use x="238.330078" xlink:href="#DejaVuSans-6c"/>
       <use x="266.113281" xlink:href="#DejaVuSans-5f"/>
       <use x="316.113281" xlink:href="#DejaVuSans-6d"/>
       <use x="413.525391" xlink:href="#DejaVuSans-61"/>
       <use x="474.804688" xlink:href="#DejaVuSans-73"/>
       <use x="526.904297" xlink:href="#DejaVuSans-73"/>
       <use x="579.003906" xlink:href="#DejaVuSans-5f"/>
       <use x="629.003906" xlink:href="#DejaVuSans-66"/>
       <use x="664.208984" xlink:href="#DejaVuSans-6c"/>
       <use x="691.992188" xlink:href="#DejaVuSans-75"/>
       <use x="755.371094" xlink:href="#DejaVuSans-78"/>
      </g>
     </g>
    </g>
    <g id="ytick_6">
     <g id="line2d_13">
      <g>
       <use style="fill:#ffffff;stroke:#ffffff;stroke-width:0.8;" x="141.19" xlink:href="#me18dfbb37f" y="252.835857"/>
      </g>
     </g>
     <g id="text_14">
      <!-- vertvisc_remnant -->
      <g style="fill:#ffffff;" transform="translate(47.179062 256.635075)scale(0.1 -0.1)">
       <defs>
        <path d="M 191 3500 
L 800 3500 
L 1894 563 
L 2988 3500 
L 3597 3500 
L 2284 0 
L 1503 0 
L 191 3500 
z
" id="DejaVuSans-76" transform="scale(0.015625)"/>
       </defs>
       <use xlink:href="#DejaVuSans-76"/>
       <use x="59.179688" xlink:href="#DejaVuSans-65"/>
       <use x="120.703125" xlink:href="#DejaVuSans-72"/>
       <use x="161.816406" xlink:href="#DejaVuSans-74"/>
       <use x="201.025391" xlink:href="#DejaVuSans-76"/>
       <use x="260.205078" xlink:href="#DejaVuSans-69"/>
       <use x="287.988281" xlink:href="#DejaVuSans-73"/>
       <use x="340.087891" xlink:href="#DejaVuSans-63"/>
       <use x="395.068359" xlink:href="#DejaVuSans-5f"/>
       <use x="445.068359" xlink:href="#DejaVuSans-72"/>
       <use x="483.931641" xlink:href="#DejaVuSans-65"/>
       <use x="545.455078" xlink:href="#DejaVuSans-6d"/>
       <use x="642.867188" xlink:href="#DejaVuSans-6e"/>
       <use x="706.246094" xlink:href="#DejaVuSans-61"/>
       <use x="767.525391" xlink:href="#DejaVuSans-6e"/>
       <use x="830.904297" xlink:href="#DejaVuSans-74"/>
      </g>
     </g>
    </g>
    <g id="ytick_7">
     <g id="line2d_14">
      <g>
       <use style="fill:#ffffff;stroke:#ffffff;stroke-width:0.8;" x="141.19" xlink:href="#me18dfbb37f" y="230.287928"/>
      </g>
     </g>
     <g id="text_15">
      <!-- set_merid_bt_cont -->
      <g style="fill:#ffffff;" transform="translate(42.632187 234.087147)scale(0.1 -0.1)">
       <defs>
        <path d="M 3116 1747 
Q 3116 2381 2855 2742 
Q 2594 3103 2138 3103 
Q 1681 3103 1420 2742 
Q 1159 2381 1159 1747 
Q 1159 1113 1420 752 
Q 1681 391 2138 391 
Q 2594 391 2855 752 
Q 3116 1113 3116 1747 
z
M 1159 2969 
Q 1341 3281 1617 3432 
Q 1894 3584 2278 3584 
Q 2916 3584 3314 3078 
Q 3713 2572 3713 1747 
Q 3713 922 3314 415 
Q 2916 -91 2278 -91 
Q 1894 -91 1617 61 
Q 1341 213 1159 525 
L 1159 0 
L 581 0 
L 581 4863 
L 1159 4863 
L 1159 2969 
z
" id="DejaVuSans-62" transform="scale(0.015625)"/>
       </defs>
       <use xlink:href="#DejaVuSans-73"/>
       <use x="52.099609" xlink:href="#DejaVuSans-65"/>
       <use x="113.623047" xlink:href="#DejaVuSans-74"/>
       <use x="152.832031" xlink:href="#DejaVuSans-5f"/>
       <use x="202.832031" xlink:href="#DejaVuSans-6d"/>
       <use x="300.244141" xlink:href="#DejaVuSans-65"/>
       <use x="361.767578" xlink:href="#DejaVuSans-72"/>
       <use x="402.880859" xlink:href="#DejaVuSans-69"/>
       <use x="430.664062" xlink:href="#DejaVuSans-64"/>
       <use x="494.140625" xlink:href="#DejaVuSans-5f"/>
       <use x="544.140625" xlink:href="#DejaVuSans-62"/>
       <use x="607.617188" xlink:href="#DejaVuSans-74"/>
       <use x="646.826172" xlink:href="#DejaVuSans-5f"/>
       <use x="696.826172" xlink:href="#DejaVuSans-63"/>
       <use x="751.806641" xlink:href="#DejaVuSans-6f"/>
       <use x="812.988281" xlink:href="#DejaVuSans-6e"/>
       <use x="876.367188" xlink:href="#DejaVuSans-74"/>
      </g>
     </g>
    </g>
    <g id="ytick_8">
     <g id="line2d_15">
      <g>
       <use style="fill:#ffffff;stroke:#ffffff;stroke-width:0.8;" x="141.19" xlink:href="#me18dfbb37f" y="207.74"/>
      </g>
     </g>
     <g id="text_16">
      <!-- coradcalc -->
      <g style="fill:#ffffff;" transform="translate(86.082188 211.539219)scale(0.1 -0.1)">
       <use xlink:href="#DejaVuSans-63"/>
       <use x="54.980469" xlink:href="#DejaVuSans-6f"/>
       <use x="116.162109" xlink:href="#DejaVuSans-72"/>
       <use x="157.275391" xlink:href="#DejaVuSans-61"/>
       <use x="218.554688" xlink:href="#DejaVuSans-64"/>
       <use x="282.03125" xlink:href="#DejaVuSans-63"/>
       <use x="337.011719" xlink:href="#DejaVuSans-61"/>
       <use x="398.291016" xlink:href="#DejaVuSans-6c"/>
       <use x="426.074219" xlink:href="#DejaVuSans-63"/>
      </g>
     </g>
    </g>
    <g id="ytick_9">
     <g id="line2d_16">
      <g>
       <use style="fill:#ffffff;stroke:#ffffff;stroke-width:0.8;" x="141.19" xlink:href="#me18dfbb37f" y="185.192072"/>
      </g>
     </g>
     <g id="text_17">
      <!-- zonal_flux_adjust -->
      <g style="fill:#ffffff;" transform="translate(48.3025 188.99129)scale(0.1 -0.1)">
       <defs>
        <path d="M 603 3500 
L 1178 3500 
L 1178 -63 
Q 1178 -731 923 -1031 
Q 669 -1331 103 -1331 
L -116 -1331 
L -116 -844 
L 38 -844 
Q 366 -844 484 -692 
Q 603 -541 603 -63 
L 603 3500 
z
M 603 4863 
L 1178 4863 
L 1178 4134 
L 603 4134 
L 603 4863 
z
" id="DejaVuSans-6a" transform="scale(0.015625)"/>
       </defs>
       <use xlink:href="#DejaVuSans-7a"/>
       <use x="52.490234" xlink:href="#DejaVuSans-6f"/>
       <use x="113.671875" xlink:href="#DejaVuSans-6e"/>
       <use x="177.050781" xlink:href="#DejaVuSans-61"/>
       <use x="238.330078" xlink:href="#DejaVuSans-6c"/>
       <use x="266.113281" xlink:href="#DejaVuSans-5f"/>
       <use x="316.113281" xlink:href="#DejaVuSans-66"/>
       <use x="351.318359" xlink:href="#DejaVuSans-6c"/>
       <use x="379.101562" xlink:href="#DejaVuSans-75"/>
       <use x="442.480469" xlink:href="#DejaVuSans-78"/>
       <use x="501.660156" xlink:href="#DejaVuSans-5f"/>
       <use x="551.660156" xlink:href="#DejaVuSans-61"/>
       <use x="612.939453" xlink:href="#DejaVuSans-64"/>
       <use x="676.416016" xlink:href="#DejaVuSans-6a"/>
       <use x="704.199219" xlink:href="#DejaVuSans-75"/>
       <use x="767.578125" xlink:href="#DejaVuSans-73"/>
       <use x="819.677734" xlink:href="#DejaVuSans-74"/>
      </g>
     </g>
    </g>
    <g id="ytick_10">
     <g id="line2d_17">
      <g>
       <use style="fill:#ffffff;stroke:#ffffff;stroke-width:0.8;" x="141.19" xlink:href="#me18dfbb37f" y="162.644143"/>
      </g>
     </g>
     <g id="text_18">
      <!-- find_coupling_coef -->
      <g style="fill:#ffffff;" transform="translate(41.369687 166.443362)scale(0.1 -0.1)">
       <use xlink:href="#DejaVuSans-66"/>
       <use x="35.205078" xlink:href="#DejaVuSans-69"/>
       <use x="62.988281" xlink:href="#DejaVuSans-6e"/>
       <use x="126.367188" xlink:href="#DejaVuSans-64"/>
       <use x="189.84375" xlink:href="#DejaVuSans-5f"/>
       <use x="239.84375" xlink:href="#DejaVuSans-63"/>
       <use x="294.824219" xlink:href="#DejaVuSans-6f"/>
       <use x="356.005859" xlink:href="#DejaVuSans-75"/>
       <use x="419.384766" xlink:href="#DejaVuSans-70"/>
       <use x="482.861328" xlink:href="#DejaVuSans-6c"/>
       <use x="510.644531" xlink:href="#DejaVuSans-69"/>
       <use x="538.427734" xlink:href="#DejaVuSans-6e"/>
       <use x="601.806641" xlink:href="#DejaVuSans-67"/>
       <use x="665.283203" xlink:href="#DejaVuSans-5f"/>
       <use x="715.283203" xlink:href="#DejaVuSans-63"/>
       <use x="770.263672" xlink:href="#DejaVuSans-6f"/>
       <use x="831.445312" xlink:href="#DejaVuSans-65"/>
       <use x="892.96875" xlink:href="#DejaVuSans-66"/>
      </g>
     </g>
    </g>
    <g id="ytick_11">
     <g id="line2d_18">
      <g>
       <use style="fill:#ffffff;stroke:#ffffff;stroke-width:0.8;" x="141.19" xlink:href="#me18dfbb37f" y="140.096215"/>
      </g>
     </g>
     <g id="text_19">
      <!-- zonal_flux_layer -->
      <g style="fill:#ffffff;" transform="translate(53.935312 143.895434)scale(0.1 -0.1)">
       <use xlink:href="#DejaVuSans-7a"/>
       <use x="52.490234" xlink:href="#DejaVuSans-6f"/>
       <use x="113.671875" xlink:href="#DejaVuSans-6e"/>
       <use x="177.050781" xlink:href="#DejaVuSans-61"/>
       <use x="238.330078" xlink:href="#DejaVuSans-6c"/>
       <use x="266.113281" xlink:href="#DejaVuSans-5f"/>
       <use x="316.113281" xlink:href="#DejaVuSans-66"/>
       <use x="351.318359" xlink:href="#DejaVuSans-6c"/>
       <use x="379.101562" xlink:href="#DejaVuSans-75"/>
       <use x="442.480469" xlink:href="#DejaVuSans-78"/>
       <use x="501.660156" xlink:href="#DejaVuSans-5f"/>
       <use x="551.660156" xlink:href="#DejaVuSans-6c"/>
       <use x="579.443359" xlink:href="#DejaVuSans-61"/>
       <use x="640.722656" xlink:href="#DejaVuSans-79"/>
       <use x="699.902344" xlink:href="#DejaVuSans-65"/>
       <use x="761.425781" xlink:href="#DejaVuSans-72"/>
      </g>
     </g>
    </g>
    <g id="ytick_12">
     <g id="line2d_19">
      <g>
       <use style="fill:#ffffff;stroke:#ffffff;stroke-width:0.8;" x="141.19" xlink:href="#me18dfbb37f" y="117.548287"/>
      </g>
     </g>
     <g id="text_20">
      <!-- meridional_flux_adjust -->
      <g style="fill:#ffffff;" transform="translate(21.641562 121.347506)scale(0.1 -0.1)">
       <use xlink:href="#DejaVuSans-6d"/>
       <use x="97.412109" xlink:href="#DejaVuSans-65"/>
       <use x="158.935547" xlink:href="#DejaVuSans-72"/>
       <use x="200.048828" xlink:href="#DejaVuSans-69"/>
       <use x="227.832031" xlink:href="#DejaVuSans-64"/>
       <use x="291.308594" xlink:href="#DejaVuSans-69"/>
       <use x="319.091797" xlink:href="#DejaVuSans-6f"/>
       <use x="380.273438" xlink:href="#DejaVuSans-6e"/>
       <use x="443.652344" xlink:href="#DejaVuSans-61"/>
       <use x="504.931641" xlink:href="#DejaVuSans-6c"/>
       <use x="532.714844" xlink:href="#DejaVuSans-5f"/>
       <use x="582.714844" xlink:href="#DejaVuSans-66"/>
       <use x="617.919922" xlink:href="#DejaVuSans-6c"/>
       <use x="645.703125" xlink:href="#DejaVuSans-75"/>
       <use x="709.082031" xlink:href="#DejaVuSans-78"/>
       <use x="768.261719" xlink:href="#DejaVuSans-5f"/>
       <use x="818.261719" xlink:href="#DejaVuSans-61"/>
       <use x="879.541016" xlink:href="#DejaVuSans-64"/>
       <use x="943.017578" xlink:href="#DejaVuSans-6a"/>
       <use x="970.800781" xlink:href="#DejaVuSans-75"/>
       <use x="1034.179688" xlink:href="#DejaVuSans-73"/>
       <use x="1086.279297" xlink:href="#DejaVuSans-74"/>
      </g>
     </g>
    </g>
    <g id="ytick_13">
     <g id="line2d_20">
      <g>
       <use style="fill:#ffffff;stroke:#ffffff;stroke-width:0.8;" x="141.19" xlink:href="#me18dfbb37f" y="95.000359"/>
      </g>
     </g>
     <g id="text_21">
      <!-- vertvisc_coef -->
      <g style="fill:#ffffff;" transform="translate(68.391562 98.799577)scale(0.1 -0.1)">
       <use xlink:href="#DejaVuSans-76"/>
       <use x="59.179688" xlink:href="#DejaVuSans-65"/>
       <use x="120.703125" xlink:href="#DejaVuSans-72"/>
       <use x="161.816406" xlink:href="#DejaVuSans-74"/>
       <use x="201.025391" xlink:href="#DejaVuSans-76"/>
       <use x="260.205078" xlink:href="#DejaVuSans-69"/>
       <use x="287.988281" xlink:href="#DejaVuSans-73"/>
       <use x="340.087891" xlink:href="#DejaVuSans-63"/>
       <use x="395.068359" xlink:href="#DejaVuSans-5f"/>
       <use x="445.068359" xlink:href="#DejaVuSans-63"/>
       <use x="500.048828" xlink:href="#DejaVuSans-6f"/>
       <use x="561.230469" xlink:href="#DejaVuSans-65"/>
       <use x="622.753906" xlink:href="#DejaVuSans-66"/>
      </g>
     </g>
    </g>
    <g id="ytick_14">
     <g id="line2d_21">
      <g>
       <use style="fill:#ffffff;stroke:#ffffff;stroke-width:0.8;" x="141.19" xlink:href="#me18dfbb37f" y="72.45243"/>
      </g>
     </g>
     <g id="text_22">
      <!-- horizontal_viscosity -->
      <g style="fill:#ffffff;" transform="translate(35.963437 76.251649)scale(0.1 -0.1)">
       <use xlink:href="#DejaVuSans-68"/>
       <use x="63.378906" xlink:href="#DejaVuSans-6f"/>
       <use x="124.560547" xlink:href="#DejaVuSans-72"/>
       <use x="165.673828" xlink:href="#DejaVuSans-69"/>
       <use x="193.457031" xlink:href="#DejaVuSans-7a"/>
       <use x="245.947266" xlink:href="#DejaVuSans-6f"/>
       <use x="307.128906" xlink:href="#DejaVuSans-6e"/>
       <use x="370.507812" xlink:href="#DejaVuSans-74"/>
       <use x="409.716797" xlink:href="#DejaVuSans-61"/>
       <use x="470.996094" xlink:href="#DejaVuSans-6c"/>
       <use x="498.779297" xlink:href="#DejaVuSans-5f"/>
       <use x="548.779297" xlink:href="#DejaVuSans-76"/>
       <use x="607.958984" xlink:href="#DejaVuSans-69"/>
       <use x="635.742188" xlink:href="#DejaVuSans-73"/>
       <use x="687.841797" xlink:href="#DejaVuSans-63"/>
       <use x="742.822266" xlink:href="#DejaVuSans-6f"/>
       <use x="804.003906" xlink:href="#DejaVuSans-73"/>
       <use x="856.103516" xlink:href="#DejaVuSans-69"/>
       <use x="883.886719" xlink:href="#DejaVuSans-74"/>
       <use x="923.095703" xlink:href="#DejaVuSans-79"/>
      </g>
     </g>
    </g>
    <g id="ytick_15">
     <g id="line2d_22">
      <g>
       <use style="fill:#ffffff;stroke:#ffffff;stroke-width:0.8;" x="141.19" xlink:href="#me18dfbb37f" y="49.904502"/>
      </g>
     </g>
     <g id="text_23">
      <!-- btstep -->
      <g style="fill:#ffffff;" transform="translate(102.29 53.703721)scale(0.1 -0.1)">
       <use xlink:href="#DejaVuSans-62"/>
       <use x="63.476562" xlink:href="#DejaVuSans-74"/>
       <use x="102.685547" xlink:href="#DejaVuSans-73"/>
       <use x="154.785156" xlink:href="#DejaVuSans-74"/>
       <use x="193.994141" xlink:href="#DejaVuSans-65"/>
       <use x="255.517578" xlink:href="#DejaVuSans-70"/>
      </g>
     </g>
    </g>
   </g>
   <g id="patch_33">
    <path d="M 141.19 390.04 
L 141.19 25.44 
" style="fill:none;stroke:#000000;stroke-linecap:square;stroke-linejoin:miter;stroke-width:0.8;"/>
   </g>
   <g id="patch_34">
    <path d="M 565.2 390.04 
L 565.2 25.44 
" style="fill:none;stroke:#000000;stroke-linecap:square;stroke-linejoin:miter;stroke-width:0.8;"/>
   </g>
   <g id="patch_35">
    <path d="M 141.19 390.04 
L 565.2 390.04 
" style="fill:none;stroke:#000000;stroke-linecap:square;stroke-linejoin:miter;stroke-width:0.8;"/>
   </g>
   <g id="patch_36">
    <path d="M 141.19 25.44 
L 565.2 25.44 
" style="fill:none;stroke:#000000;stroke-linecap:square;stroke-linejoin:miter;stroke-width:0.8;"/>
   </g>
   <g id="text_24">
    <!-- 2.2 -->
    <g transform="translate(217.653635 363.92817)scale(0.0833 -0.0833)">
     <defs>
      <path d="M 684 794 
L 1344 794 
L 1344 0 
L 684 0 
L 684 794 
z
" id="DejaVuSans-2e" transform="scale(0.015625)"/>
     </defs>
     <use xlink:href="#DejaVuSans-32"/>
     <use x="63.623047" xlink:href="#DejaVuSans-2e"/>
     <use x="95.410156" xlink:href="#DejaVuSans-32"/>
    </g>
   </g>
   <g id="text_25">
    <!-- 2.5 -->
    <g transform="translate(229.715008 341.380242)scale(0.0833 -0.0833)">
     <defs>
      <path d="M 691 4666 
L 3169 4666 
L 3169 4134 
L 1269 4134 
L 1269 2991 
Q 1406 3038 1543 3061 
Q 1681 3084 1819 3084 
Q 2600 3084 3056 2656 
Q 3513 2228 3513 1497 
Q 3513 744 3044 326 
Q 2575 -91 1722 -91 
Q 1428 -91 1123 -41 
Q 819 9 494 109 
L 494 744 
Q 775 591 1075 516 
Q 1375 441 1709 441 
Q 2250 441 2565 725 
Q 2881 1009 2881 1497 
Q 2881 1984 2565 2268 
Q 2250 2553 1709 2553 
Q 1456 2553 1204 2497 
Q 953 2441 691 2322 
L 691 4666 
z
" id="DejaVuSans-35" transform="scale(0.015625)"/>
     </defs>
     <use xlink:href="#DejaVuSans-32"/>
     <use x="63.623047" xlink:href="#DejaVuSans-2e"/>
     <use x="95.410156" xlink:href="#DejaVuSans-35"/>
    </g>
   </g>
   <g id="text_26">
    <!-- 2.8 -->
    <g transform="translate(238.43193 318.832313)scale(0.0833 -0.0833)">
     <use xlink:href="#DejaVuSans-32"/>
     <use x="63.623047" xlink:href="#DejaVuSans-2e"/>
     <use x="95.410156" xlink:href="#DejaVuSans-38"/>
    </g>
   </g>
   <g id="text_27">
    <!-- 3.0 -->
    <g transform="translate(246.188211 296.284385)scale(0.0833 -0.0833)">
     <defs>
      <path d="M 2597 2516 
Q 3050 2419 3304 2112 
Q 3559 1806 3559 1356 
Q 3559 666 3084 287 
Q 2609 -91 1734 -91 
Q 1441 -91 1130 -33 
Q 819 25 488 141 
L 488 750 
Q 750 597 1062 519 
Q 1375 441 1716 441 
Q 2309 441 2620 675 
Q 2931 909 2931 1356 
Q 2931 1769 2642 2001 
Q 2353 2234 1838 2234 
L 1294 2234 
L 1294 2753 
L 1863 2753 
Q 2328 2753 2575 2939 
Q 2822 3125 2822 3475 
Q 2822 3834 2567 4026 
Q 2313 4219 1838 4219 
Q 1578 4219 1281 4162 
Q 984 4106 628 3988 
L 628 4550 
Q 988 4650 1302 4700 
Q 1616 4750 1894 4750 
Q 2613 4750 3031 4423 
Q 3450 4097 3450 3541 
Q 3450 3153 3228 2886 
Q 3006 2619 2597 2516 
z
" id="DejaVuSans-33" transform="scale(0.015625)"/>
     </defs>
     <use xlink:href="#DejaVuSans-33"/>
     <use x="63.623047" xlink:href="#DejaVuSans-2e"/>
     <use x="95.410156" xlink:href="#DejaVuSans-30"/>
    </g>
   </g>
   <g id="text_28">
    <!-- 3.5 -->
    <g transform="translate(261.87867 273.736457)scale(0.0833 -0.0833)">
     <use xlink:href="#DejaVuSans-33"/>
     <use x="63.623047" xlink:href="#DejaVuSans-2e"/>
     <use x="95.410156" xlink:href="#DejaVuSans-35"/>
    </g>
   </g>
   <g id="text_29">
    <!-- 3.7 -->
    <g transform="translate(270.986963 251.188528)scale(0.0833 -0.0833)">
     <defs>
      <path d="M 525 4666 
L 3525 4666 
L 3525 4397 
L 1831 0 
L 1172 0 
L 2766 4134 
L 525 4134 
L 525 4666 
z
" id="DejaVuSans-37" transform="scale(0.015625)"/>
     </defs>
     <use xlink:href="#DejaVuSans-33"/>
     <use x="63.623047" xlink:href="#DejaVuSans-2e"/>
     <use x="95.410156" xlink:href="#DejaVuSans-37"/>
    </g>
   </g>
   <g id="text_30">
    <!-- 4.0 -->
    <g transform="translate(281.162635 228.6406)scale(0.0833 -0.0833)">
     <use xlink:href="#DejaVuSans-34"/>
     <use x="63.623047" xlink:href="#DejaVuSans-2e"/>
     <use x="95.410156" xlink:href="#DejaVuSans-30"/>
    </g>
   </g>
   <g id="text_31">
    <!-- 4.4 -->
    <g transform="translate(293.437484 206.092672)scale(0.0833 -0.0833)">
     <use xlink:href="#DejaVuSans-34"/>
     <use x="63.623047" xlink:href="#DejaVuSans-2e"/>
     <use x="95.410156" xlink:href="#DejaVuSans-34"/>
    </g>
   </g>
   <g id="text_32">
    <!-- 4.4 -->
    <g transform="translate(294.398124 183.544744)scale(0.0833 -0.0833)">
     <use xlink:href="#DejaVuSans-34"/>
     <use x="63.623047" xlink:href="#DejaVuSans-2e"/>
     <use x="95.410156" xlink:href="#DejaVuSans-34"/>
    </g>
   </g>
   <g id="text_33">
    <!-- 4.4 -->
    <g transform="translate(294.967393 160.996815)scale(0.0833 -0.0833)">
     <use xlink:href="#DejaVuSans-34"/>
     <use x="63.623047" xlink:href="#DejaVuSans-2e"/>
     <use x="95.410156" xlink:href="#DejaVuSans-34"/>
    </g>
   </g>
   <g id="text_34">
    <!-- 4.5 -->
    <g transform="translate(298.52532 138.448887)scale(0.0833 -0.0833)">
     <use xlink:href="#DejaVuSans-34"/>
     <use x="63.623047" xlink:href="#DejaVuSans-2e"/>
     <use x="95.410156" xlink:href="#DejaVuSans-35"/>
    </g>
   </g>
   <g id="text_35">
    <!-- 4.7 -->
    <g transform="translate(304.075686 115.900959)scale(0.0833 -0.0833)">
     <use xlink:href="#DejaVuSans-34"/>
     <use x="63.623047" xlink:href="#DejaVuSans-2e"/>
     <use x="95.410156" xlink:href="#DejaVuSans-37"/>
    </g>
   </g>
   <g id="text_36">
    <!-- 6.9 -->
    <g transform="translate(378.329626 93.353031)scale(0.0833 -0.0833)">
     <defs>
      <path d="M 703 97 
L 703 672 
Q 941 559 1184 500 
Q 1428 441 1663 441 
Q 2288 441 2617 861 
Q 2947 1281 2994 2138 
Q 2813 1869 2534 1725 
Q 2256 1581 1919 1581 
Q 1219 1581 811 2004 
Q 403 2428 403 3163 
Q 403 3881 828 4315 
Q 1253 4750 1959 4750 
Q 2769 4750 3195 4129 
Q 3622 3509 3622 2328 
Q 3622 1225 3098 567 
Q 2575 -91 1691 -91 
Q 1453 -91 1209 -44 
Q 966 3 703 97 
z
M 1959 2075 
Q 2384 2075 2632 2365 
Q 2881 2656 2881 3163 
Q 2881 3666 2632 3958 
Q 2384 4250 1959 4250 
Q 1534 4250 1286 3958 
Q 1038 3666 1038 3163 
Q 1038 2656 1286 2365 
Q 1534 2075 1959 2075 
z
" id="DejaVuSans-39" transform="scale(0.015625)"/>
     </defs>
     <use xlink:href="#DejaVuSans-36"/>
     <use x="63.623047" xlink:href="#DejaVuSans-2e"/>
     <use x="95.410156" xlink:href="#DejaVuSans-39"/>
    </g>
   </g>
   <g id="text_37">
    <!-- 9.2 -->
    <g transform="translate(458.987835 70.805102)scale(0.0833 -0.0833)">
     <use xlink:href="#DejaVuSans-39"/>
     <use x="63.623047" xlink:href="#DejaVuSans-2e"/>
     <use x="95.410156" xlink:href="#DejaVuSans-32"/>
    </g>
   </g>
   <g id="text_38">
    <!-- 9.7 -->
    <g transform="translate(475.887989 48.257174)scale(0.0833 -0.0833)">
     <use xlink:href="#DejaVuSans-39"/>
     <use x="63.623047" xlink:href="#DejaVuSans-2e"/>
     <use x="95.410156" xlink:href="#DejaVuSans-37"/>
    </g>
   </g>
   <g id="text_39">
    <!-- 1.8 -->
    <g transform="translate(205.53026 373.819945)scale(0.0833 -0.0833)">
     <use xlink:href="#DejaVuSans-31"/>
     <use x="63.623047" xlink:href="#DejaVuSans-2e"/>
     <use x="95.410156" xlink:href="#DejaVuSans-38"/>
    </g>
   </g>
   <g id="text_40">
    <!-- 4.0 -->
    <g transform="translate(280.291701 351.272016)scale(0.0833 -0.0833)">
     <use xlink:href="#DejaVuSans-34"/>
     <use x="63.623047" xlink:href="#DejaVuSans-2e"/>
     <use x="95.410156" xlink:href="#DejaVuSans-30"/>
    </g>
   </g>
   <g id="text_41">
    <!-- 2.6 -->
    <g transform="translate(231.219068 328.724088)scale(0.0833 -0.0833)">
     <use xlink:href="#DejaVuSans-32"/>
     <use x="63.623047" xlink:href="#DejaVuSans-2e"/>
     <use x="95.410156" xlink:href="#DejaVuSans-36"/>
    </g>
   </g>
   <g id="text_42">
    <!-- 11.8 -->
    <g transform="translate(546.009048 306.17616)scale(0.0833 -0.0833)">
     <use xlink:href="#DejaVuSans-31"/>
     <use x="63.623047" xlink:href="#DejaVuSans-31"/>
     <use x="127.246094" xlink:href="#DejaVuSans-2e"/>
     <use x="159.033203" xlink:href="#DejaVuSans-38"/>
    </g>
   </g>
   <g id="text_43">
    <!-- 3.4 -->
    <g transform="translate(260.419745 283.628232)scale(0.0833 -0.0833)">
     <use xlink:href="#DejaVuSans-33"/>
     <use x="63.623047" xlink:href="#DejaVuSans-2e"/>
     <use x="95.410156" xlink:href="#DejaVuSans-34"/>
    </g>
   </g>
   <g id="text_44">
    <!-- 1.7 -->
    <g transform="translate(198.92797 261.080303)scale(0.0833 -0.0833)">
     <use xlink:href="#DejaVuSans-31"/>
     <use x="63.623047" xlink:href="#DejaVuSans-2e"/>
     <use x="95.410156" xlink:href="#DejaVuSans-37"/>
    </g>
   </g>
   <g id="text_45">
    <!-- 2.7 -->
    <g transform="translate(233.873566 238.532375)scale(0.0833 -0.0833)">
     <use xlink:href="#DejaVuSans-32"/>
     <use x="63.623047" xlink:href="#DejaVuSans-2e"/>
     <use x="95.410156" xlink:href="#DejaVuSans-37"/>
    </g>
   </g>
   <g id="text_46">
    <!-- 2.8 -->
    <g transform="translate(238.095216 215.984447)scale(0.0833 -0.0833)">
     <use xlink:href="#DejaVuSans-32"/>
     <use x="63.623047" xlink:href="#DejaVuSans-2e"/>
     <use x="95.410156" xlink:href="#DejaVuSans-38"/>
    </g>
   </g>
   <g id="text_47">
    <!-- 2.8 -->
    <g transform="translate(238.175809 193.436519)scale(0.0833 -0.0833)">
     <use xlink:href="#DejaVuSans-32"/>
     <use x="63.623047" xlink:href="#DejaVuSans-2e"/>
     <use x="95.410156" xlink:href="#DejaVuSans-38"/>
    </g>
   </g>
   <g id="text_48">
    <!-- 1.9 -->
    <g transform="translate(207.948937 170.88859)scale(0.0833 -0.0833)">
     <use xlink:href="#DejaVuSans-31"/>
     <use x="63.623047" xlink:href="#DejaVuSans-2e"/>
     <use x="95.410156" xlink:href="#DejaVuSans-39"/>
    </g>
   </g>
   <g id="text_49">
    <!-- 2.6 -->
    <g transform="translate(230.242134 148.340662)scale(0.0833 -0.0833)">
     <use xlink:href="#DejaVuSans-32"/>
     <use x="63.623047" xlink:href="#DejaVuSans-2e"/>
     <use x="95.410156" xlink:href="#DejaVuSans-36"/>
    </g>
   </g>
   <g id="text_50">
    <!-- 2.7 -->
    <g transform="translate(236.661121 125.792734)scale(0.0833 -0.0833)">
     <use xlink:href="#DejaVuSans-32"/>
     <use x="63.623047" xlink:href="#DejaVuSans-2e"/>
     <use x="95.410156" xlink:href="#DejaVuSans-37"/>
    </g>
   </g>
   <g id="text_51">
    <!-- 1.2 -->
    <g transform="translate(183.307397 103.244806)scale(0.0833 -0.0833)">
     <use xlink:href="#DejaVuSans-31"/>
     <use x="63.623047" xlink:href="#DejaVuSans-2e"/>
     <use x="95.410156" xlink:href="#DejaVuSans-32"/>
    </g>
   </g>
   <g id="text_52">
    <!-- 1.7 -->
    <g transform="translate(202.094604 80.696877)scale(0.0833 -0.0833)">
     <use xlink:href="#DejaVuSans-31"/>
     <use x="63.623047" xlink:href="#DejaVuSans-2e"/>
     <use x="95.410156" xlink:href="#DejaVuSans-37"/>
    </g>
   </g>
   <g id="text_53">
    <!-- 1.2 -->
    <g transform="translate(183.061468 58.148949)scale(0.0833 -0.0833)">
     <use xlink:href="#DejaVuSans-31"/>
     <use x="63.623047" xlink:href="#DejaVuSans-2e"/>
     <use x="95.410156" xlink:href="#DejaVuSans-32"/>
    </g>
   </g>
   <g id="text_54">
    <!-- Relative subroutine runtimes -->
    <g style="fill:#ffffff;" transform="translate(266.375937 19.44)scale(0.12 -0.12)">
     <use xlink:href="#DejaVuSans-52"/>
     <use x="64.982422" xlink:href="#DejaVuSans-65"/>
     <use x="126.505859" xlink:href="#DejaVuSans-6c"/>
     <use x="154.289062" xlink:href="#DejaVuSans-61"/>
     <use x="215.568359" xlink:href="#DejaVuSans-74"/>
     <use x="254.777344" xlink:href="#DejaVuSans-69"/>
     <use x="282.560547" xlink:href="#DejaVuSans-76"/>
     <use x="341.740234" xlink:href="#DejaVuSans-65"/>
     <use x="403.263672" xlink:href="#DejaVuSans-20"/>
     <use x="435.050781" xlink:href="#DejaVuSans-73"/>
     <use x="487.150391" xlink:href="#DejaVuSans-75"/>
     <use x="550.529297" xlink:href="#DejaVuSans-62"/>
     <use x="614.005859" xlink:href="#DejaVuSans-72"/>
     <use x="652.869141" xlink:href="#DejaVuSans-6f"/>
     <use x="714.050781" xlink:href="#DejaVuSans-75"/>
     <use x="777.429688" xlink:href="#DejaVuSans-74"/>
     <use x="816.638672" xlink:href="#DejaVuSans-69"/>
     <use x="844.421875" xlink:href="#DejaVuSans-6e"/>
     <use x="907.800781" xlink:href="#DejaVuSans-65"/>
     <use x="969.324219" xlink:href="#DejaVuSans-20"/>
     <use x="1001.111328" xlink:href="#DejaVuSans-72"/>
     <use x="1042.224609" xlink:href="#DejaVuSans-75"/>
     <use x="1105.603516" xlink:href="#DejaVuSans-6e"/>
     <use x="1168.982422" xlink:href="#DejaVuSans-74"/>
     <use x="1208.191406" xlink:href="#DejaVuSans-69"/>
     <use x="1235.974609" xlink:href="#DejaVuSans-6d"/>
     <use x="1333.386719" xlink:href="#DejaVuSans-65"/>
     <use x="1394.910156" xlink:href="#DejaVuSans-73"/>
    </g>
   </g>
   <g id="legend_1">
    <g id="patch_37">
     <path d="M 485.010937 385.04 
L 558.2 385.04 
Q 560.2 385.04 560.2 383.04 
L 560.2 354.68375 
Q 560.2 352.68375 558.2 352.68375 
L 485.010937 352.68375 
Q 483.010937 352.68375 483.010937 354.68375 
L 483.010937 383.04 
Q 483.010937 385.04 485.010937 385.04 
z
" style="fill:#ffffff;opacity:0.8;stroke:#cccccc;stroke-linejoin:miter;"/>
    </g>
    <g id="patch_38">
     <path d="M 487.010937 364.282187 
L 507.010937 364.282187 
L 507.010937 357.282187 
L 487.010937 357.282187 
z
" style="fill:#1f77b4;"/>
    </g>
    <g id="text_55">
     <!-- % time -->
     <g transform="translate(515.010937 364.282187)scale(0.1 -0.1)">
      <use xlink:href="#DejaVuSans-25"/>
      <use x="95.019531" xlink:href="#DejaVuSans-20"/>
      <use x="126.806641" xlink:href="#DejaVuSans-74"/>
      <use x="166.015625" xlink:href="#DejaVuSans-69"/>
      <use x="193.798828" xlink:href="#DejaVuSans-6d"/>
      <use x="291.210938" xlink:href="#DejaVuSans-65"/>
     </g>
    </g>
    <g id="patch_39">
     <path d="M 487.010937 378.960312 
L 507.010937 378.960312 
L 507.010937 371.960312 
L 487.010937 371.960312 
z
" style="fill:#ff7f0e;"/>
    </g>
    <g id="text_56">
     <!-- GFLOP/s -->
     <g transform="translate(515.010937 378.960312)scale(0.1 -0.1)">
      <defs>
       <path d="M 3809 666 
L 3809 1919 
L 2778 1919 
L 2778 2438 
L 4434 2438 
L 4434 434 
Q 4069 175 3628 42 
Q 3188 -91 2688 -91 
Q 1594 -91 976 548 
Q 359 1188 359 2328 
Q 359 3472 976 4111 
Q 1594 4750 2688 4750 
Q 3144 4750 3555 4637 
Q 3966 4525 4313 4306 
L 4313 3634 
Q 3963 3931 3569 4081 
Q 3175 4231 2741 4231 
Q 1884 4231 1454 3753 
Q 1025 3275 1025 2328 
Q 1025 1384 1454 906 
Q 1884 428 2741 428 
Q 3075 428 3337 486 
Q 3600 544 3809 666 
z
" id="DejaVuSans-47" transform="scale(0.015625)"/>
       <path d="M 628 4666 
L 3309 4666 
L 3309 4134 
L 1259 4134 
L 1259 2759 
L 3109 2759 
L 3109 2228 
L 1259 2228 
L 1259 0 
L 628 0 
L 628 4666 
z
" id="DejaVuSans-46" transform="scale(0.015625)"/>
       <path d="M 628 4666 
L 1259 4666 
L 1259 531 
L 3531 531 
L 3531 0 
L 628 0 
L 628 4666 
z
" id="DejaVuSans-4c" transform="scale(0.015625)"/>
       <path d="M 2522 4238 
Q 1834 4238 1429 3725 
Q 1025 3213 1025 2328 
Q 1025 1447 1429 934 
Q 1834 422 2522 422 
Q 3209 422 3611 934 
Q 4013 1447 4013 2328 
Q 4013 3213 3611 3725 
Q 3209 4238 2522 4238 
z
M 2522 4750 
Q 3503 4750 4090 4092 
Q 4678 3434 4678 2328 
Q 4678 1225 4090 567 
Q 3503 -91 2522 -91 
Q 1538 -91 948 565 
Q 359 1222 359 2328 
Q 359 3434 948 4092 
Q 1538 4750 2522 4750 
z
" id="DejaVuSans-4f" transform="scale(0.015625)"/>
       <path d="M 1259 4147 
L 1259 2394 
L 2053 2394 
Q 2494 2394 2734 2622 
Q 2975 2850 2975 3272 
Q 2975 3691 2734 3919 
Q 2494 4147 2053 4147 
L 1259 4147 
z
M 628 4666 
L 2053 4666 
Q 2838 4666 3239 4311 
Q 3641 3956 3641 3272 
Q 3641 2581 3239 2228 
Q 2838 1875 2053 1875 
L 1259 1875 
L 1259 0 
L 628 0 
L 628 4666 
z
" id="DejaVuSans-50" transform="scale(0.015625)"/>
       <path d="M 1625 4666 
L 2156 4666 
L 531 -594 
L 0 -594 
L 1625 4666 
z
" id="DejaVuSans-2f" transform="scale(0.015625)"/>
      </defs>
      <use xlink:href="#DejaVuSans-47"/>
      <use x="77.490234" xlink:href="#DejaVuSans-46"/>
      <use x="135.009766" xlink:href="#DejaVuSans-4c"/>
      <use x="187.097656" xlink:href="#DejaVuSans-4f"/>
      <use x="265.808594" xlink:href="#DejaVuSans-50"/>
      <use x="326.111328" xlink:href="#DejaVuSans-2f"/>
      <use x="359.802734" xlink:href="#DejaVuSans-73"/>
     </g>
    </g>
   </g>
  </g>
  <g id="axes_2">
   <g id="patch_40">
    <path d="M 464.1975 275.66 
L 554.1975 275.66 
L 554.1975 95.66 
L 464.1975 95.66 
z
" style="fill:#ffffff;"/>
   </g>
   <g id="patch_41">
    <path clip-path="url(#p4b0be82f85)" d="M 464.1975 267.478182 
L 466.107542 267.478182 
L 466.107542 264.849485 
L 464.1975 264.849485 
z
" style="fill:#1f77b4;"/>
   </g>
   <g id="patch_42">
    <path clip-path="url(#p4b0be82f85)" d="M 464.1975 264.192311 
L 466.12582 264.192311 
L 466.12582 261.563614 
L 464.1975 261.563614 
z
" style="fill:#1f77b4;"/>
   </g>
   <g id="patch_43">
    <path clip-path="url(#p4b0be82f85)" d="M 464.1975 260.90644 
L 466.262904 260.90644 
L 466.262904 258.277744 
L 464.1975 258.277744 
z
" style="fill:#1f77b4;"/>
   </g>
   <g id="patch_44">
    <path clip-path="url(#p4b0be82f85)" d="M 464.1975 257.62057 
L 466.509656 257.62057 
L 466.509656 254.991873 
L 464.1975 254.991873 
z
" style="fill:#1f77b4;"/>
   </g>
   <g id="patch_45">
    <path clip-path="url(#p4b0be82f85)" d="M 464.1975 254.334699 
L 466.555351 254.334699 
L 466.555351 251.706002 
L 464.1975 251.706002 
z
" style="fill:#1f77b4;"/>
   </g>
   <g id="patch_46">
    <path clip-path="url(#p4b0be82f85)" d="M 464.1975 251.048828 
L 466.56449 251.048828 
L 466.56449 248.420131 
L 464.1975 248.420131 
z
" style="fill:#1f77b4;"/>
   </g>
   <g id="patch_47">
    <path clip-path="url(#p4b0be82f85)" d="M 464.1975 247.762957 
L 466.984882 247.762957 
L 466.984882 245.134261 
L 464.1975 245.134261 
z
" style="fill:#1f77b4;"/>
   </g>
   <g id="patch_48">
    <path clip-path="url(#p4b0be82f85)" d="M 464.1975 244.477087 
L 467.1768 244.477087 
L 467.1768 241.84839 
L 464.1975 241.84839 
z
" style="fill:#1f77b4;"/>
   </g>
   <g id="patch_49">
    <path clip-path="url(#p4b0be82f85)" d="M 464.1975 241.191216 
L 467.551498 241.191216 
L 467.551498 238.562519 
L 464.1975 238.562519 
z
" style="fill:#1f77b4;"/>
   </g>
   <g id="patch_50">
    <path clip-path="url(#p4b0be82f85)" d="M 464.1975 237.905345 
L 467.560636 237.905345 
L 467.560636 235.276648 
L 464.1975 235.276648 
z
" style="fill:#1f77b4;"/>
   </g>
   <g id="patch_51">
    <path clip-path="url(#p4b0be82f85)" d="M 464.1975 234.619474 
L 468.364865 234.619474 
L 468.364865 231.990778 
L 464.1975 231.990778 
z
" style="fill:#1f77b4;"/>
   </g>
   <g id="patch_52">
    <path clip-path="url(#p4b0be82f85)" d="M 464.1975 231.333604 
L 469.251344 231.333604 
L 469.251344 228.704907 
L 464.1975 228.704907 
z
" style="fill:#1f77b4;"/>
   </g>
   <g id="patch_53">
    <path clip-path="url(#p4b0be82f85)" d="M 464.1975 228.047733 
L 469.388428 228.047733 
L 469.388428 225.419036 
L 464.1975 225.419036 
z
" style="fill:#1f77b4;"/>
   </g>
   <g id="patch_54">
    <path clip-path="url(#p4b0be82f85)" d="M 464.1975 224.761862 
L 469.562068 224.761862 
L 469.562068 222.133165 
L 464.1975 222.133165 
z
" style="fill:#1f77b4;"/>
   </g>
   <g id="patch_55">
    <path clip-path="url(#p4b0be82f85)" d="M 464.1975 221.475991 
L 469.927627 221.475991 
L 469.927627 218.847295 
L 464.1975 218.847295 
z
" style="fill:#1f77b4;"/>
   </g>
   <g id="patch_56">
    <path clip-path="url(#p4b0be82f85)" d="M 464.1975 218.19012 
L 470.110406 218.19012 
L 470.110406 215.561424 
L 464.1975 215.561424 
z
" style="fill:#1f77b4;"/>
   </g>
   <g id="patch_57">
    <path clip-path="url(#p4b0be82f85)" d="M 464.1975 214.90425 
L 470.439408 214.90425 
L 470.439408 212.275553 
L 464.1975 212.275553 
z
" style="fill:#1f77b4;"/>
   </g>
   <g id="patch_58">
    <path clip-path="url(#p4b0be82f85)" d="M 464.1975 211.618379 
L 471.417277 211.618379 
L 471.417277 208.989682 
L 464.1975 208.989682 
z
" style="fill:#1f77b4;"/>
   </g>
   <g id="patch_59">
    <path clip-path="url(#p4b0be82f85)" d="M 464.1975 208.332508 
L 471.444694 208.332508 
L 471.444694 205.703812 
L 464.1975 205.703812 
z
" style="fill:#1f77b4;"/>
   </g>
   <g id="patch_60">
    <path clip-path="url(#p4b0be82f85)" d="M 464.1975 205.046637 
L 471.609195 205.046637 
L 471.609195 202.417941 
L 464.1975 202.417941 
z
" style="fill:#1f77b4;"/>
   </g>
   <g id="patch_61">
    <path clip-path="url(#p4b0be82f85)" d="M 464.1975 201.760767 
L 471.810252 201.760767 
L 471.810252 199.13207 
L 464.1975 199.13207 
z
" style="fill:#1f77b4;"/>
   </g>
   <g id="patch_62">
    <path clip-path="url(#p4b0be82f85)" d="M 464.1975 198.474896 
L 472.020448 198.474896 
L 472.020448 195.846199 
L 464.1975 195.846199 
z
" style="fill:#1f77b4;"/>
   </g>
   <g id="patch_63">
    <path clip-path="url(#p4b0be82f85)" d="M 464.1975 195.189025 
L 472.797259 195.189025 
L 472.797259 192.560329 
L 464.1975 192.560329 
z
" style="fill:#1f77b4;"/>
   </g>
   <g id="patch_64">
    <path clip-path="url(#p4b0be82f85)" d="M 464.1975 191.903154 
L 472.870371 191.903154 
L 472.870371 189.274458 
L 464.1975 189.274458 
z
" style="fill:#1f77b4;"/>
   </g>
   <g id="patch_65">
    <path clip-path="url(#p4b0be82f85)" d="M 464.1975 188.617284 
L 473.016594 188.617284 
L 473.016594 185.988587 
L 464.1975 185.988587 
z
" style="fill:#1f77b4;"/>
   </g>
   <g id="patch_66">
    <path clip-path="url(#p4b0be82f85)" d="M 464.1975 185.331413 
L 473.382153 185.331413 
L 473.382153 182.702716 
L 464.1975 182.702716 
z
" style="fill:#1f77b4;"/>
   </g>
   <g id="patch_67">
    <path clip-path="url(#p4b0be82f85)" d="M 464.1975 182.045542 
L 473.692877 182.045542 
L 473.692877 179.416846 
L 464.1975 179.416846 
z
" style="fill:#1f77b4;"/>
   </g>
   <g id="patch_68">
    <path clip-path="url(#p4b0be82f85)" d="M 464.1975 178.759671 
L 474.652468 178.759671 
L 474.652468 176.130975 
L 464.1975 176.130975 
z
" style="fill:#1f77b4;"/>
   </g>
   <g id="patch_69">
    <path clip-path="url(#p4b0be82f85)" d="M 464.1975 175.473801 
L 476.279202 175.473801 
L 476.279202 172.845104 
L 464.1975 172.845104 
z
" style="fill:#1f77b4;"/>
   </g>
   <g id="patch_70">
    <path clip-path="url(#p4b0be82f85)" d="M 464.1975 172.18793 
L 478.088716 172.18793 
L 478.088716 169.559233 
L 464.1975 169.559233 
z
" style="fill:#1f77b4;"/>
   </g>
   <g id="patch_71">
    <path clip-path="url(#p4b0be82f85)" d="M 464.1975 168.902059 
L 479.304197 168.902059 
L 479.304197 166.273363 
L 464.1975 166.273363 
z
" style="fill:#1f77b4;"/>
   </g>
   <g id="patch_72">
    <path clip-path="url(#p4b0be82f85)" d="M 464.1975 165.616188 
L 479.523532 165.616188 
L 479.523532 162.987492 
L 464.1975 162.987492 
z
" style="fill:#1f77b4;"/>
   </g>
   <g id="patch_73">
    <path clip-path="url(#p4b0be82f85)" d="M 464.1975 162.330318 
L 481.607215 162.330318 
L 481.607215 159.701621 
L 464.1975 159.701621 
z
" style="fill:#1f77b4;"/>
   </g>
   <g id="patch_74">
    <path clip-path="url(#p4b0be82f85)" d="M 464.1975 159.044447 
L 481.744299 159.044447 
L 481.744299 156.41575 
L 464.1975 156.41575 
z
" style="fill:#1f77b4;"/>
   </g>
   <g id="patch_75">
    <path clip-path="url(#p4b0be82f85)" d="M 464.1975 155.758576 
L 483.453284 155.758576 
L 483.453284 153.12988 
L 464.1975 153.12988 
z
" style="fill:#1f77b4;"/>
   </g>
   <g id="patch_76">
    <path clip-path="url(#p4b0be82f85)" d="M 464.1975 152.472705 
L 483.58123 152.472705 
L 483.58123 149.844009 
L 464.1975 149.844009 
z
" style="fill:#1f77b4;"/>
   </g>
   <g id="patch_77">
    <path clip-path="url(#p4b0be82f85)" d="M 464.1975 149.186835 
L 486.679336 149.186835 
L 486.679336 146.558138 
L 464.1975 146.558138 
z
" style="fill:#1f77b4;"/>
   </g>
   <g id="patch_78">
    <path clip-path="url(#p4b0be82f85)" d="M 464.1975 145.900964 
L 488.918381 145.900964 
L 488.918381 143.272267 
L 464.1975 143.272267 
z
" style="fill:#1f77b4;"/>
   </g>
   <g id="patch_79">
    <path clip-path="url(#p4b0be82f85)" d="M 464.1975 142.615093 
L 490.910674 142.615093 
L 490.910674 139.986396 
L 464.1975 139.986396 
z
" style="fill:#1f77b4;"/>
   </g>
   <g id="patch_80">
    <path clip-path="url(#p4b0be82f85)" d="M 464.1975 139.329222 
L 494.940954 139.329222 
L 494.940954 136.700526 
L 464.1975 136.700526 
z
" style="fill:#1f77b4;"/>
   </g>
   <g id="patch_81">
    <path clip-path="url(#p4b0be82f85)" d="M 464.1975 136.043352 
L 497.280527 136.043352 
L 497.280527 133.414655 
L 464.1975 133.414655 
z
" style="fill:#1f77b4;"/>
   </g>
   <g id="patch_82">
    <path clip-path="url(#p4b0be82f85)" d="M 464.1975 132.757481 
L 499.894269 132.757481 
L 499.894269 130.128784 
L 464.1975 130.128784 
z
" style="fill:#1f77b4;"/>
   </g>
   <g id="patch_83">
    <path clip-path="url(#p4b0be82f85)" d="M 464.1975 129.47161 
L 503.04721 129.47161 
L 503.04721 126.842913 
L 464.1975 126.842913 
z
" style="fill:#1f77b4;"/>
   </g>
   <g id="patch_84">
    <path clip-path="url(#p4b0be82f85)" d="M 464.1975 126.185739 
L 503.293962 126.185739 
L 503.293962 123.557043 
L 464.1975 123.557043 
z
" style="fill:#1f77b4;"/>
   </g>
   <g id="patch_85">
    <path clip-path="url(#p4b0be82f85)" d="M 464.1975 122.899869 
L 503.440185 122.899869 
L 503.440185 120.271172 
L 464.1975 120.271172 
z
" style="fill:#1f77b4;"/>
   </g>
   <g id="patch_86">
    <path clip-path="url(#p4b0be82f85)" d="M 464.1975 119.613998 
L 504.354081 119.613998 
L 504.354081 116.985301 
L 464.1975 116.985301 
z
" style="fill:#1f77b4;"/>
   </g>
   <g id="patch_87">
    <path clip-path="url(#p4b0be82f85)" d="M 464.1975 116.328127 
L 505.779758 116.328127 
L 505.779758 113.69943 
L 464.1975 113.69943 
z
" style="fill:#1f77b4;"/>
   </g>
   <g id="patch_88">
    <path clip-path="url(#p4b0be82f85)" d="M 464.1975 113.042256 
L 524.852763 113.042256 
L 524.852763 110.41356 
L 464.1975 110.41356 
z
" style="fill:#1f77b4;"/>
   </g>
   <g id="patch_89">
    <path clip-path="url(#p4b0be82f85)" d="M 464.1975 109.756386 
L 545.570781 109.756386 
L 545.570781 107.127689 
L 464.1975 107.127689 
z
" style="fill:#1f77b4;"/>
   </g>
   <g id="patch_90">
    <path clip-path="url(#p4b0be82f85)" d="M 464.1975 106.470515 
L 549.911786 106.470515 
L 549.911786 103.841818 
L 464.1975 103.841818 
z
" style="fill:#1f77b4;"/>
   </g>
   <g id="matplotlib.axis_3">
    <g id="xtick_8">
     <g id="line2d_23">
      <defs>
       <path d="M 0 0 
L 0 3.5 
" id="m880143d478" style="stroke:#000000;stroke-width:0.8;"/>
      </defs>
      <g>
       <use style="stroke:#000000;stroke-width:0.8;" x="464.1975" xlink:href="#m880143d478" y="275.66"/>
      </g>
     </g>
     <g id="text_57">
      <!-- 0 -->
      <g transform="translate(461.01625 290.258438)scale(0.1 -0.1)">
       <use xlink:href="#DejaVuSans-30"/>
      </g>
     </g>
    </g>
    <g id="xtick_9">
     <g id="line2d_24">
      <g>
       <use style="stroke:#000000;stroke-width:0.8;" x="508.33453" xlink:href="#m880143d478" y="275.66"/>
      </g>
     </g>
     <g id="text_58">
      <!-- 5 -->
      <g transform="translate(505.15328 290.258438)scale(0.1 -0.1)">
       <use xlink:href="#DejaVuSans-35"/>
      </g>
     </g>
    </g>
    <g id="xtick_10">
     <g id="line2d_25">
      <g>
       <use style="stroke:#000000;stroke-width:0.8;" x="552.471561" xlink:href="#m880143d478" y="275.66"/>
      </g>
     </g>
     <g id="text_59">
      <!-- 10 -->
      <g transform="translate(546.109061 290.258438)scale(0.1 -0.1)">
       <use xlink:href="#DejaVuSans-31"/>
       <use x="63.623047" xlink:href="#DejaVuSans-30"/>
      </g>
     </g>
    </g>
   </g>
   <g id="patch_91">
    <path d="M 464.1975 275.66 
L 464.1975 95.66 
" style="fill:none;stroke:#000000;stroke-linecap:square;stroke-linejoin:miter;stroke-width:0.8;"/>
   </g>
   <g id="patch_92">
    <path d="M 554.1975 275.66 
L 554.1975 95.66 
" style="fill:none;stroke:#000000;stroke-linecap:square;stroke-linejoin:miter;stroke-width:0.8;"/>
   </g>
   <g id="patch_93">
    <path d="M 464.1975 275.66 
L 554.1975 275.66 
" style="fill:none;stroke:#000000;stroke-linecap:square;stroke-linejoin:miter;stroke-width:0.8;"/>
   </g>
   <g id="patch_94">
    <path d="M 464.1975 95.66 
L 554.1975 95.66 
" style="fill:none;stroke:#000000;stroke-linecap:square;stroke-linejoin:miter;stroke-width:0.8;"/>
   </g>
   <g id="text_60">
    <!-- Top 50 -->
    <g transform="translate(489.530625 89.66)scale(0.12 -0.12)">
     <defs>
      <path d="M -19 4666 
L 3928 4666 
L 3928 4134 
L 2272 4134 
L 2272 0 
L 1638 0 
L 1638 4134 
L -19 4134 
L -19 4666 
z
" id="DejaVuSans-54" transform="scale(0.015625)"/>
     </defs>
     <use xlink:href="#DejaVuSans-54"/>
     <use x="44.083984" xlink:href="#DejaVuSans-6f"/>
     <use x="105.265625" xlink:href="#DejaVuSans-70"/>
     <use x="168.742188" xlink:href="#DejaVuSans-20"/>
     <use x="200.529297" xlink:href="#DejaVuSans-35"/>
     <use x="264.152344" xlink:href="#DejaVuSans-30"/>
    </g>
   </g>
  </g>
 </g>
 <defs>
  <clipPath id="pc137dbca75">
   <rect height="364.6" width="424.01" x="141.19" y="25.44"/>
  </clipPath>
  <clipPath id="p4b0be82f85">
   <rect height="180" width="90" x="464.1975" y="95.66"/>
  </clipPath>
 </defs>
</svg>
