<?xml version="1.0" encoding="utf-8" standalone="no"?>
<!DOCTYPE svg PUBLIC "-//W3C//DTD SVG 1.1//EN"
  "http://www.w3.org/Graphics/SVG/1.1/DTD/svg11.dtd">
<svg height="432pt" version="1.1" viewBox="0 0 576 432" width="576pt" xmlns="http://www.w3.org/2000/svg" xmlns:xlink="http://www.w3.org/1999/xlink">
 <metadata>
  <rdf:RDF xmlns:cc="http://creativecommons.org/ns#" xmlns:dc="http://purl.org/dc/elements/1.1/" xmlns:rdf="http://www.w3.org/1999/02/22-rdf-syntax-ns#">
   <cc:Work>
    <dc:type rdf:resource="http://purl.org/dc/dcmitype/StillImage"/>
    <dc:date>2021-04-19T13:45:00.465216</dc:date>
    <dc:format>image/svg+xml</dc:format>
    <dc:creator>
     <cc:Agent>
      <dc:title>Matplotlib v3.4.1, https://matplotlib.org/</dc:title>
     </cc:Agent>
    </dc:creator>
   </cc:Work>
  </rdf:RDF>
 </metadata>
 <defs>
  <style type="text/css">*{stroke-linecap:butt;stroke-linejoin:round;}</style>
 </defs>
 <g id="figure_1">
  <g id="patch_1">
   <path d="M 0 432 
L 576 432 
L 576 0 
L 0 0 
z
" style="fill:#ffffff;"/>
  </g>
  <g id="axes_1">
   <g id="patch_2">
    <path d="M 141.19 390.04 
L 565.2 390.04 
L 565.2 25.44 
L 141.19 25.44 
z
" style="fill:#ffffff;"/>
   </g>
   <g id="patch_3">
    <path clip-path="url(#p1ededfcfbd)" d="M 141.19 365.575498 
L 217.927897 365.575498 
L 217.927897 357.683723 
L 141.19 357.683723 
z
" style="fill:#1f77b4;"/>
   </g>
   <g id="patch_4">
    <path clip-path="url(#p1ededfcfbd)" d="M 141.19 343.02757 
L 226.102503 343.02757 
L 226.102503 335.135795 
L 141.19 335.135795 
z
" style="fill:#1f77b4;"/>
   </g>
   <g id="patch_5">
    <path clip-path="url(#p1ededfcfbd)" d="M 141.19 320.479641 
L 230.432136 320.479641 
L 230.432136 312.587866 
L 141.19 312.587866 
z
" style="fill:#1f77b4;"/>
   </g>
   <g id="patch_6">
    <path clip-path="url(#p1ededfcfbd)" d="M 141.19 297.931713 
L 237.605109 297.931713 
L 237.605109 290.039938 
L 141.19 290.039938 
z
" style="fill:#1f77b4;"/>
   </g>
   <g id="patch_7">
    <path clip-path="url(#p1ededfcfbd)" d="M 141.19 275.383785 
L 237.63742 275.383785 
L 237.63742 267.49201 
L 141.19 267.49201 
z
" style="fill:#1f77b4;"/>
   </g>
   <g id="patch_8">
    <path clip-path="url(#p1ededfcfbd)" d="M 141.19 252.835857 
L 243.517966 252.835857 
L 243.517966 244.944082 
L 141.19 244.944082 
z
" style="fill:#1f77b4;"/>
   </g>
   <g id="patch_9">
    <path clip-path="url(#p1ededfcfbd)" d="M 141.19 230.287928 
L 243.905695 230.287928 
L 243.905695 222.396153 
L 141.19 222.396153 
z
" style="fill:#1f77b4;"/>
   </g>
   <g id="patch_10">
    <path clip-path="url(#p1ededfcfbd)" d="M 141.19 207.74 
L 247.330628 207.74 
L 247.330628 199.848225 
L 141.19 199.848225 
z
" style="fill:#1f77b4;"/>
   </g>
   <g id="patch_11">
    <path clip-path="url(#p1ededfcfbd)" d="M 141.19 185.192072 
L 247.492182 185.192072 
L 247.492182 177.300297 
L 141.19 177.300297 
z
" style="fill:#1f77b4;"/>
   </g>
   <g id="patch_12">
    <path clip-path="url(#p1ededfcfbd)" d="M 141.19 162.644143 
L 253.308107 162.644143 
L 253.308107 154.752369 
L 141.19 154.752369 
z
" style="fill:#1f77b4;"/>
   </g>
   <g id="patch_13">
    <path clip-path="url(#p1ededfcfbd)" d="M 141.19 140.096215 
L 270.23891 140.096215 
L 270.23891 132.20444 
L 141.19 132.20444 
z
" style="fill:#1f77b4;"/>
   </g>
   <g id="patch_14">
    <path clip-path="url(#p1ededfcfbd)" d="M 141.19 117.548287 
L 284.100197 117.548287 
L 284.100197 109.656512 
L 141.19 109.656512 
z
" style="fill:#1f77b4;"/>
   </g>
   <g id="patch_15">
    <path clip-path="url(#p1ededfcfbd)" d="M 141.19 95.000359 
L 339.609969 95.000359 
L 339.609969 87.108584 
L 141.19 87.108584 
z
" style="fill:#1f77b4;"/>
   </g>
   <g id="patch_16">
    <path clip-path="url(#p1ededfcfbd)" d="M 141.19 72.45243 
L 359.028696 72.45243 
L 359.028696 64.560656 
L 141.19 64.560656 
z
" style="fill:#1f77b4;"/>
   </g>
   <g id="patch_17">
    <path clip-path="url(#p1ededfcfbd)" d="M 141.19 49.904502 
L 545.009048 49.904502 
L 545.009048 42.012727 
L 141.19 42.012727 
z
" style="fill:#1f77b4;"/>
   </g>
   <g id="patch_18">
    <path clip-path="url(#p1ededfcfbd)" d="M 141.19 373.467273 
L 271.028761 373.467273 
L 271.028761 365.575498 
L 141.19 365.575498 
z
" style="fill:#ff7f0e;"/>
   </g>
   <g id="patch_19">
    <path clip-path="url(#p1ededfcfbd)" d="M 141.19 350.919344 
L 190.755721 350.919344 
L 190.755721 343.02757 
L 141.19 343.02757 
z
" style="fill:#ff7f0e;"/>
   </g>
   <g id="patch_20">
    <path clip-path="url(#p1ededfcfbd)" d="M 141.19 328.371416 
L 208.688253 328.371416 
L 208.688253 320.479641 
L 141.19 320.479641 
z
" style="fill:#ff7f0e;"/>
   </g>
   <g id="patch_21">
    <path clip-path="url(#p1ededfcfbd)" d="M 141.19 305.823488 
L 182.055379 305.823488 
L 182.055379 297.931713 
L 141.19 297.931713 
z
" style="fill:#ff7f0e;"/>
   </g>
   <g id="patch_22">
    <path clip-path="url(#p1ededfcfbd)" d="M 141.19 283.27556 
L 262.130636 283.27556 
L 262.130636 275.383785 
L 141.19 275.383785 
z
" style="fill:#ff7f0e;"/>
   </g>
   <g id="patch_23">
    <path clip-path="url(#p1ededfcfbd)" d="M 141.19 260.727631 
L 264.385897 260.727631 
L 264.385897 252.835857 
L 141.19 252.835857 
z
" style="fill:#ff7f0e;"/>
   </g>
   <g id="patch_24">
    <path clip-path="url(#p1ededfcfbd)" d="M 141.19 238.179703 
L 251.65972 238.179703 
L 251.65972 230.287928 
L 141.19 230.287928 
z
" style="fill:#ff7f0e;"/>
   </g>
   <g id="patch_25">
    <path clip-path="url(#p1ededfcfbd)" d="M 141.19 215.631775 
L 219.211679 215.631775 
L 219.211679 207.74 
L 141.19 207.74 
z
" style="fill:#ff7f0e;"/>
   </g>
   <g id="patch_26">
    <path clip-path="url(#p1ededfcfbd)" d="M 141.19 193.083847 
L 239.991078 193.083847 
L 239.991078 185.192072 
L 141.19 185.192072 
z
" style="fill:#ff7f0e;"/>
   </g>
   <g id="patch_27">
    <path clip-path="url(#p1ededfcfbd)" d="M 141.19 170.535918 
L 248.601846 170.535918 
L 248.601846 162.644143 
L 141.19 162.644143 
z
" style="fill:#ff7f0e;"/>
   </g>
   <g id="patch_28">
    <path clip-path="url(#p1ededfcfbd)" d="M 141.19 147.98799 
L 409.44103 147.98799 
L 409.44103 140.096215 
L 141.19 140.096215 
z
" style="fill:#ff7f0e;"/>
   </g>
   <g id="patch_29">
    <path clip-path="url(#p1ededfcfbd)" d="M 141.19 125.440062 
L 224.856237 125.440062 
L 224.856237 117.548287 
L 141.19 117.548287 
z
" style="fill:#ff7f0e;"/>
   </g>
   <g id="patch_30">
    <path clip-path="url(#p1ededfcfbd)" d="M 141.19 102.892134 
L 181.52594 102.892134 
L 181.52594 95.000359 
L 141.19 95.000359 
z
" style="fill:#ff7f0e;"/>
   </g>
   <g id="patch_31">
    <path clip-path="url(#p1ededfcfbd)" d="M 141.19 80.344205 
L 213.000913 80.344205 
L 213.000913 72.45243 
L 141.19 72.45243 
z
" style="fill:#ff7f0e;"/>
   </g>
   <g id="patch_32">
    <path clip-path="url(#p1ededfcfbd)" d="M 141.19 57.796277 
L 169.030055 57.796277 
L 169.030055 49.904502 
L 141.19 49.904502 
z
" style="fill:#ff7f0e;"/>
   </g>
   <g id="matplotlib.axis_1">
    <g id="xtick_1">
     <g id="line2d_1">
      <defs>
       <path d="M 0 0 
L 0 3.5 
" id="m66a49e8851" style="stroke:#000000;stroke-width:0.8;"/>
      </defs>
      <g>
       <use style="stroke:#000000;stroke-width:0.8;" x="141.19" xlink:href="#m66a49e8851" y="390.04"/>
      </g>
     </g>
     <g id="text_1">
      <!-- 0 -->
      <g transform="translate(138.00875 404.638438)scale(0.1 -0.1)">
       <defs>
        <path d="M 2034 4250 
Q 1547 4250 1301 3770 
Q 1056 3291 1056 2328 
Q 1056 1369 1301 889 
Q 1547 409 2034 409 
Q 2525 409 2770 889 
Q 3016 1369 3016 2328 
Q 3016 3291 2770 3770 
Q 2525 4250 2034 4250 
z
M 2034 4750 
Q 2819 4750 3233 4129 
Q 3647 3509 3647 2328 
Q 3647 1150 3233 529 
Q 2819 -91 2034 -91 
Q 1250 -91 836 529 
Q 422 1150 422 2328 
Q 422 3509 836 4129 
Q 1250 4750 2034 4750 
z
" id="DejaVuSans-30" transform="scale(0.015625)"/>
       </defs>
       <use xlink:href="#DejaVuSans-30"/>
      </g>
     </g>
    </g>
    <g id="xtick_2">
     <g id="line2d_2">
      <g>
       <use style="stroke:#000000;stroke-width:0.8;" x="203.592935" xlink:href="#m66a49e8851" y="390.04"/>
      </g>
     </g>
     <g id="text_2">
      <!-- 2 -->
      <g transform="translate(200.411685 404.638438)scale(0.1 -0.1)">
       <defs>
        <path d="M 1228 531 
L 3431 531 
L 3431 0 
L 469 0 
L 469 531 
Q 828 903 1448 1529 
Q 2069 2156 2228 2338 
Q 2531 2678 2651 2914 
Q 2772 3150 2772 3378 
Q 2772 3750 2511 3984 
Q 2250 4219 1831 4219 
Q 1534 4219 1204 4116 
Q 875 4013 500 3803 
L 500 4441 
Q 881 4594 1212 4672 
Q 1544 4750 1819 4750 
Q 2544 4750 2975 4387 
Q 3406 4025 3406 3419 
Q 3406 3131 3298 2873 
Q 3191 2616 2906 2266 
Q 2828 2175 2409 1742 
Q 1991 1309 1228 531 
z
" id="DejaVuSans-32" transform="scale(0.015625)"/>
       </defs>
       <use xlink:href="#DejaVuSans-32"/>
      </g>
     </g>
    </g>
    <g id="xtick_3">
     <g id="line2d_3">
      <g>
       <use style="stroke:#000000;stroke-width:0.8;" x="265.99587" xlink:href="#m66a49e8851" y="390.04"/>
      </g>
     </g>
     <g id="text_3">
      <!-- 4 -->
      <g transform="translate(262.81462 404.638438)scale(0.1 -0.1)">
       <defs>
        <path d="M 2419 4116 
L 825 1625 
L 2419 1625 
L 2419 4116 
z
M 2253 4666 
L 3047 4666 
L 3047 1625 
L 3713 1625 
L 3713 1100 
L 3047 1100 
L 3047 0 
L 2419 0 
L 2419 1100 
L 313 1100 
L 313 1709 
L 2253 4666 
z
" id="DejaVuSans-34" transform="scale(0.015625)"/>
       </defs>
       <use xlink:href="#DejaVuSans-34"/>
      </g>
     </g>
    </g>
    <g id="xtick_4">
     <g id="line2d_4">
      <g>
       <use style="stroke:#000000;stroke-width:0.8;" x="328.398804" xlink:href="#m66a49e8851" y="390.04"/>
      </g>
     </g>
     <g id="text_4">
      <!-- 6 -->
      <g transform="translate(325.217554 404.638438)scale(0.1 -0.1)">
       <defs>
        <path d="M 2113 2584 
Q 1688 2584 1439 2293 
Q 1191 2003 1191 1497 
Q 1191 994 1439 701 
Q 1688 409 2113 409 
Q 2538 409 2786 701 
Q 3034 994 3034 1497 
Q 3034 2003 2786 2293 
Q 2538 2584 2113 2584 
z
M 3366 4563 
L 3366 3988 
Q 3128 4100 2886 4159 
Q 2644 4219 2406 4219 
Q 1781 4219 1451 3797 
Q 1122 3375 1075 2522 
Q 1259 2794 1537 2939 
Q 1816 3084 2150 3084 
Q 2853 3084 3261 2657 
Q 3669 2231 3669 1497 
Q 3669 778 3244 343 
Q 2819 -91 2113 -91 
Q 1303 -91 875 529 
Q 447 1150 447 2328 
Q 447 3434 972 4092 
Q 1497 4750 2381 4750 
Q 2619 4750 2861 4703 
Q 3103 4656 3366 4563 
z
" id="DejaVuSans-36" transform="scale(0.015625)"/>
       </defs>
       <use xlink:href="#DejaVuSans-36"/>
      </g>
     </g>
    </g>
    <g id="xtick_5">
     <g id="line2d_5">
      <g>
       <use style="stroke:#000000;stroke-width:0.8;" x="390.801739" xlink:href="#m66a49e8851" y="390.04"/>
      </g>
     </g>
     <g id="text_5">
      <!-- 8 -->
      <g transform="translate(387.620489 404.638438)scale(0.1 -0.1)">
       <defs>
        <path d="M 2034 2216 
Q 1584 2216 1326 1975 
Q 1069 1734 1069 1313 
Q 1069 891 1326 650 
Q 1584 409 2034 409 
Q 2484 409 2743 651 
Q 3003 894 3003 1313 
Q 3003 1734 2745 1975 
Q 2488 2216 2034 2216 
z
M 1403 2484 
Q 997 2584 770 2862 
Q 544 3141 544 3541 
Q 544 4100 942 4425 
Q 1341 4750 2034 4750 
Q 2731 4750 3128 4425 
Q 3525 4100 3525 3541 
Q 3525 3141 3298 2862 
Q 3072 2584 2669 2484 
Q 3125 2378 3379 2068 
Q 3634 1759 3634 1313 
Q 3634 634 3220 271 
Q 2806 -91 2034 -91 
Q 1263 -91 848 271 
Q 434 634 434 1313 
Q 434 1759 690 2068 
Q 947 2378 1403 2484 
z
M 1172 3481 
Q 1172 3119 1398 2916 
Q 1625 2713 2034 2713 
Q 2441 2713 2670 2916 
Q 2900 3119 2900 3481 
Q 2900 3844 2670 4047 
Q 2441 4250 2034 4250 
Q 1625 4250 1398 4047 
Q 1172 3844 1172 3481 
z
" id="DejaVuSans-38" transform="scale(0.015625)"/>
       </defs>
       <use xlink:href="#DejaVuSans-38"/>
      </g>
     </g>
    </g>
    <g id="xtick_6">
     <g id="line2d_6">
      <g>
       <use style="stroke:#000000;stroke-width:0.8;" x="453.204674" xlink:href="#m66a49e8851" y="390.04"/>
      </g>
     </g>
     <g id="text_6">
      <!-- 10 -->
      <g transform="translate(446.842174 404.638438)scale(0.1 -0.1)">
       <defs>
        <path d="M 794 531 
L 1825 531 
L 1825 4091 
L 703 3866 
L 703 4441 
L 1819 4666 
L 2450 4666 
L 2450 531 
L 3481 531 
L 3481 0 
L 794 0 
L 794 531 
z
" id="DejaVuSans-31" transform="scale(0.015625)"/>
       </defs>
       <use xlink:href="#DejaVuSans-31"/>
       <use x="63.623047" xlink:href="#DejaVuSans-30"/>
      </g>
     </g>
    </g>
    <g id="xtick_7">
     <g id="line2d_7">
      <g>
       <use style="stroke:#000000;stroke-width:0.8;" x="515.607609" xlink:href="#m66a49e8851" y="390.04"/>
      </g>
     </g>
     <g id="text_7">
      <!-- 12 -->
      <g transform="translate(509.245109 404.638438)scale(0.1 -0.1)">
       <use xlink:href="#DejaVuSans-31"/>
       <use x="63.623047" xlink:href="#DejaVuSans-32"/>
      </g>
     </g>
    </g>
    <g id="text_8">
     <!-- % Runtime -->
     <g transform="translate(325.972344 418.316562)scale(0.1 -0.1)">
      <defs>
       <path d="M 4653 2053 
Q 4381 2053 4226 1822 
Q 4072 1591 4072 1178 
Q 4072 772 4226 539 
Q 4381 306 4653 306 
Q 4919 306 5073 539 
Q 5228 772 5228 1178 
Q 5228 1588 5073 1820 
Q 4919 2053 4653 2053 
z
M 4653 2450 
Q 5147 2450 5437 2106 
Q 5728 1763 5728 1178 
Q 5728 594 5436 251 
Q 5144 -91 4653 -91 
Q 4153 -91 3862 251 
Q 3572 594 3572 1178 
Q 3572 1766 3864 2108 
Q 4156 2450 4653 2450 
z
M 1428 4353 
Q 1159 4353 1004 4120 
Q 850 3888 850 3481 
Q 850 3069 1003 2837 
Q 1156 2606 1428 2606 
Q 1700 2606 1854 2837 
Q 2009 3069 2009 3481 
Q 2009 3884 1853 4118 
Q 1697 4353 1428 4353 
z
M 4250 4750 
L 4750 4750 
L 1831 -91 
L 1331 -91 
L 4250 4750 
z
M 1428 4750 
Q 1922 4750 2215 4408 
Q 2509 4066 2509 3481 
Q 2509 2891 2217 2550 
Q 1925 2209 1428 2209 
Q 931 2209 642 2551 
Q 353 2894 353 3481 
Q 353 4063 643 4406 
Q 934 4750 1428 4750 
z
" id="DejaVuSans-25" transform="scale(0.015625)"/>
       <path id="DejaVuSans-20" transform="scale(0.015625)"/>
       <path d="M 2841 2188 
Q 3044 2119 3236 1894 
Q 3428 1669 3622 1275 
L 4263 0 
L 3584 0 
L 2988 1197 
Q 2756 1666 2539 1819 
Q 2322 1972 1947 1972 
L 1259 1972 
L 1259 0 
L 628 0 
L 628 4666 
L 2053 4666 
Q 2853 4666 3247 4331 
Q 3641 3997 3641 3322 
Q 3641 2881 3436 2590 
Q 3231 2300 2841 2188 
z
M 1259 4147 
L 1259 2491 
L 2053 2491 
Q 2509 2491 2742 2702 
Q 2975 2913 2975 3322 
Q 2975 3731 2742 3939 
Q 2509 4147 2053 4147 
L 1259 4147 
z
" id="DejaVuSans-52" transform="scale(0.015625)"/>
       <path d="M 544 1381 
L 544 3500 
L 1119 3500 
L 1119 1403 
Q 1119 906 1312 657 
Q 1506 409 1894 409 
Q 2359 409 2629 706 
Q 2900 1003 2900 1516 
L 2900 3500 
L 3475 3500 
L 3475 0 
L 2900 0 
L 2900 538 
Q 2691 219 2414 64 
Q 2138 -91 1772 -91 
Q 1169 -91 856 284 
Q 544 659 544 1381 
z
M 1991 3584 
L 1991 3584 
z
" id="DejaVuSans-75" transform="scale(0.015625)"/>
       <path d="M 3513 2113 
L 3513 0 
L 2938 0 
L 2938 2094 
Q 2938 2591 2744 2837 
Q 2550 3084 2163 3084 
Q 1697 3084 1428 2787 
Q 1159 2491 1159 1978 
L 1159 0 
L 581 0 
L 581 3500 
L 1159 3500 
L 1159 2956 
Q 1366 3272 1645 3428 
Q 1925 3584 2291 3584 
Q 2894 3584 3203 3211 
Q 3513 2838 3513 2113 
z
" id="DejaVuSans-6e" transform="scale(0.015625)"/>
       <path d="M 1172 4494 
L 1172 3500 
L 2356 3500 
L 2356 3053 
L 1172 3053 
L 1172 1153 
Q 1172 725 1289 603 
Q 1406 481 1766 481 
L 2356 481 
L 2356 0 
L 1766 0 
Q 1100 0 847 248 
Q 594 497 594 1153 
L 594 3053 
L 172 3053 
L 172 3500 
L 594 3500 
L 594 4494 
L 1172 4494 
z
" id="DejaVuSans-74" transform="scale(0.015625)"/>
       <path d="M 603 3500 
L 1178 3500 
L 1178 0 
L 603 0 
L 603 3500 
z
M 603 4863 
L 1178 4863 
L 1178 4134 
L 603 4134 
L 603 4863 
z
" id="DejaVuSans-69" transform="scale(0.015625)"/>
       <path d="M 3328 2828 
Q 3544 3216 3844 3400 
Q 4144 3584 4550 3584 
Q 5097 3584 5394 3201 
Q 5691 2819 5691 2113 
L 5691 0 
L 5113 0 
L 5113 2094 
Q 5113 2597 4934 2840 
Q 4756 3084 4391 3084 
Q 3944 3084 3684 2787 
Q 3425 2491 3425 1978 
L 3425 0 
L 2847 0 
L 2847 2094 
Q 2847 2600 2669 2842 
Q 2491 3084 2119 3084 
Q 1678 3084 1418 2786 
Q 1159 2488 1159 1978 
L 1159 0 
L 581 0 
L 581 3500 
L 1159 3500 
L 1159 2956 
Q 1356 3278 1631 3431 
Q 1906 3584 2284 3584 
Q 2666 3584 2933 3390 
Q 3200 3197 3328 2828 
z
" id="DejaVuSans-6d" transform="scale(0.015625)"/>
       <path d="M 3597 1894 
L 3597 1613 
L 953 1613 
Q 991 1019 1311 708 
Q 1631 397 2203 397 
Q 2534 397 2845 478 
Q 3156 559 3463 722 
L 3463 178 
Q 3153 47 2828 -22 
Q 2503 -91 2169 -91 
Q 1331 -91 842 396 
Q 353 884 353 1716 
Q 353 2575 817 3079 
Q 1281 3584 2069 3584 
Q 2775 3584 3186 3129 
Q 3597 2675 3597 1894 
z
M 3022 2063 
Q 3016 2534 2758 2815 
Q 2500 3097 2075 3097 
Q 1594 3097 1305 2825 
Q 1016 2553 972 2059 
L 3022 2063 
z
" id="DejaVuSans-65" transform="scale(0.015625)"/>
      </defs>
      <use xlink:href="#DejaVuSans-25"/>
      <use x="95.019531" xlink:href="#DejaVuSans-20"/>
      <use x="126.806641" xlink:href="#DejaVuSans-52"/>
      <use x="191.789062" xlink:href="#DejaVuSans-75"/>
      <use x="255.167969" xlink:href="#DejaVuSans-6e"/>
      <use x="318.546875" xlink:href="#DejaVuSans-74"/>
      <use x="357.755859" xlink:href="#DejaVuSans-69"/>
      <use x="385.539062" xlink:href="#DejaVuSans-6d"/>
      <use x="482.951172" xlink:href="#DejaVuSans-65"/>
     </g>
    </g>
   </g>
   <g id="matplotlib.axis_2">
    <g id="ytick_1">
     <g id="line2d_8">
      <defs>
       <path d="M 0 0 
L -3.5 0 
" id="mf342d1016c" style="stroke:#000000;stroke-width:0.8;"/>
      </defs>
      <g>
       <use style="stroke:#000000;stroke-width:0.8;" x="141.19" xlink:href="#mf342d1016c" y="365.575498"/>
      </g>
     </g>
     <g id="text_9">
      <!-- meridional_mass_flux -->
      <g transform="translate(26.075937 369.374717)scale(0.1 -0.1)">
       <defs>
        <path d="M 2631 2963 
Q 2534 3019 2420 3045 
Q 2306 3072 2169 3072 
Q 1681 3072 1420 2755 
Q 1159 2438 1159 1844 
L 1159 0 
L 581 0 
L 581 3500 
L 1159 3500 
L 1159 2956 
Q 1341 3275 1631 3429 
Q 1922 3584 2338 3584 
Q 2397 3584 2469 3576 
Q 2541 3569 2628 3553 
L 2631 2963 
z
" id="DejaVuSans-72" transform="scale(0.015625)"/>
        <path d="M 2906 2969 
L 2906 4863 
L 3481 4863 
L 3481 0 
L 2906 0 
L 2906 525 
Q 2725 213 2448 61 
Q 2172 -91 1784 -91 
Q 1150 -91 751 415 
Q 353 922 353 1747 
Q 353 2572 751 3078 
Q 1150 3584 1784 3584 
Q 2172 3584 2448 3432 
Q 2725 3281 2906 2969 
z
M 947 1747 
Q 947 1113 1208 752 
Q 1469 391 1925 391 
Q 2381 391 2643 752 
Q 2906 1113 2906 1747 
Q 2906 2381 2643 2742 
Q 2381 3103 1925 3103 
Q 1469 3103 1208 2742 
Q 947 2381 947 1747 
z
" id="DejaVuSans-64" transform="scale(0.015625)"/>
        <path d="M 1959 3097 
Q 1497 3097 1228 2736 
Q 959 2375 959 1747 
Q 959 1119 1226 758 
Q 1494 397 1959 397 
Q 2419 397 2687 759 
Q 2956 1122 2956 1747 
Q 2956 2369 2687 2733 
Q 2419 3097 1959 3097 
z
M 1959 3584 
Q 2709 3584 3137 3096 
Q 3566 2609 3566 1747 
Q 3566 888 3137 398 
Q 2709 -91 1959 -91 
Q 1206 -91 779 398 
Q 353 888 353 1747 
Q 353 2609 779 3096 
Q 1206 3584 1959 3584 
z
" id="DejaVuSans-6f" transform="scale(0.015625)"/>
        <path d="M 2194 1759 
Q 1497 1759 1228 1600 
Q 959 1441 959 1056 
Q 959 750 1161 570 
Q 1363 391 1709 391 
Q 2188 391 2477 730 
Q 2766 1069 2766 1631 
L 2766 1759 
L 2194 1759 
z
M 3341 1997 
L 3341 0 
L 2766 0 
L 2766 531 
Q 2569 213 2275 61 
Q 1981 -91 1556 -91 
Q 1019 -91 701 211 
Q 384 513 384 1019 
Q 384 1609 779 1909 
Q 1175 2209 1959 2209 
L 2766 2209 
L 2766 2266 
Q 2766 2663 2505 2880 
Q 2244 3097 1772 3097 
Q 1472 3097 1187 3025 
Q 903 2953 641 2809 
L 641 3341 
Q 956 3463 1253 3523 
Q 1550 3584 1831 3584 
Q 2591 3584 2966 3190 
Q 3341 2797 3341 1997 
z
" id="DejaVuSans-61" transform="scale(0.015625)"/>
        <path d="M 603 4863 
L 1178 4863 
L 1178 0 
L 603 0 
L 603 4863 
z
" id="DejaVuSans-6c" transform="scale(0.015625)"/>
        <path d="M 3263 -1063 
L 3263 -1509 
L -63 -1509 
L -63 -1063 
L 3263 -1063 
z
" id="DejaVuSans-5f" transform="scale(0.015625)"/>
        <path d="M 2834 3397 
L 2834 2853 
Q 2591 2978 2328 3040 
Q 2066 3103 1784 3103 
Q 1356 3103 1142 2972 
Q 928 2841 928 2578 
Q 928 2378 1081 2264 
Q 1234 2150 1697 2047 
L 1894 2003 
Q 2506 1872 2764 1633 
Q 3022 1394 3022 966 
Q 3022 478 2636 193 
Q 2250 -91 1575 -91 
Q 1294 -91 989 -36 
Q 684 19 347 128 
L 347 722 
Q 666 556 975 473 
Q 1284 391 1588 391 
Q 1994 391 2212 530 
Q 2431 669 2431 922 
Q 2431 1156 2273 1281 
Q 2116 1406 1581 1522 
L 1381 1569 
Q 847 1681 609 1914 
Q 372 2147 372 2553 
Q 372 3047 722 3315 
Q 1072 3584 1716 3584 
Q 2034 3584 2315 3537 
Q 2597 3491 2834 3397 
z
" id="DejaVuSans-73" transform="scale(0.015625)"/>
        <path d="M 2375 4863 
L 2375 4384 
L 1825 4384 
Q 1516 4384 1395 4259 
Q 1275 4134 1275 3809 
L 1275 3500 
L 2222 3500 
L 2222 3053 
L 1275 3053 
L 1275 0 
L 697 0 
L 697 3053 
L 147 3053 
L 147 3500 
L 697 3500 
L 697 3744 
Q 697 4328 969 4595 
Q 1241 4863 1831 4863 
L 2375 4863 
z
" id="DejaVuSans-66" transform="scale(0.015625)"/>
        <path d="M 3513 3500 
L 2247 1797 
L 3578 0 
L 2900 0 
L 1881 1375 
L 863 0 
L 184 0 
L 1544 1831 
L 300 3500 
L 978 3500 
L 1906 2253 
L 2834 3500 
L 3513 3500 
z
" id="DejaVuSans-78" transform="scale(0.015625)"/>
       </defs>
       <use xlink:href="#DejaVuSans-6d"/>
       <use x="97.412109" xlink:href="#DejaVuSans-65"/>
       <use x="158.935547" xlink:href="#DejaVuSans-72"/>
       <use x="200.048828" xlink:href="#DejaVuSans-69"/>
       <use x="227.832031" xlink:href="#DejaVuSans-64"/>
       <use x="291.308594" xlink:href="#DejaVuSans-69"/>
       <use x="319.091797" xlink:href="#DejaVuSans-6f"/>
       <use x="380.273438" xlink:href="#DejaVuSans-6e"/>
       <use x="443.652344" xlink:href="#DejaVuSans-61"/>
       <use x="504.931641" xlink:href="#DejaVuSans-6c"/>
       <use x="532.714844" xlink:href="#DejaVuSans-5f"/>
       <use x="582.714844" xlink:href="#DejaVuSans-6d"/>
       <use x="680.126953" xlink:href="#DejaVuSans-61"/>
       <use x="741.40625" xlink:href="#DejaVuSans-73"/>
       <use x="793.505859" xlink:href="#DejaVuSans-73"/>
       <use x="845.605469" xlink:href="#DejaVuSans-5f"/>
       <use x="895.605469" xlink:href="#DejaVuSans-66"/>
       <use x="930.810547" xlink:href="#DejaVuSans-6c"/>
       <use x="958.59375" xlink:href="#DejaVuSans-75"/>
       <use x="1021.972656" xlink:href="#DejaVuSans-78"/>
      </g>
     </g>
    </g>
    <g id="ytick_2">
     <g id="line2d_9">
      <g>
       <use style="stroke:#000000;stroke-width:0.8;" x="141.19" xlink:href="#mf342d1016c" y="343.02757"/>
      </g>
     </g>
     <g id="text_10">
      <!-- ppm_limit_pos -->
      <g transform="translate(62.080625 346.826788)scale(0.1 -0.1)">
       <defs>
        <path d="M 1159 525 
L 1159 -1331 
L 581 -1331 
L 581 3500 
L 1159 3500 
L 1159 2969 
Q 1341 3281 1617 3432 
Q 1894 3584 2278 3584 
Q 2916 3584 3314 3078 
Q 3713 2572 3713 1747 
Q 3713 922 3314 415 
Q 2916 -91 2278 -91 
Q 1894 -91 1617 61 
Q 1341 213 1159 525 
z
M 3116 1747 
Q 3116 2381 2855 2742 
Q 2594 3103 2138 3103 
Q 1681 3103 1420 2742 
Q 1159 2381 1159 1747 
Q 1159 1113 1420 752 
Q 1681 391 2138 391 
Q 2594 391 2855 752 
Q 3116 1113 3116 1747 
z
" id="DejaVuSans-70" transform="scale(0.015625)"/>
       </defs>
       <use xlink:href="#DejaVuSans-70"/>
       <use x="63.476562" xlink:href="#DejaVuSans-70"/>
       <use x="126.953125" xlink:href="#DejaVuSans-6d"/>
       <use x="224.365234" xlink:href="#DejaVuSans-5f"/>
       <use x="274.365234" xlink:href="#DejaVuSans-6c"/>
       <use x="302.148438" xlink:href="#DejaVuSans-69"/>
       <use x="329.931641" xlink:href="#DejaVuSans-6d"/>
       <use x="427.34375" xlink:href="#DejaVuSans-69"/>
       <use x="455.126953" xlink:href="#DejaVuSans-74"/>
       <use x="494.335938" xlink:href="#DejaVuSans-5f"/>
       <use x="544.335938" xlink:href="#DejaVuSans-70"/>
       <use x="607.8125" xlink:href="#DejaVuSans-6f"/>
       <use x="668.994141" xlink:href="#DejaVuSans-73"/>
      </g>
     </g>
    </g>
    <g id="ytick_3">
     <g id="line2d_10">
      <g>
       <use style="stroke:#000000;stroke-width:0.8;" x="141.19" xlink:href="#mf342d1016c" y="320.479641"/>
      </g>
     </g>
     <g id="text_11">
      <!-- vertvisc_remnant -->
      <g transform="translate(47.179062 324.27886)scale(0.1 -0.1)">
       <defs>
        <path d="M 191 3500 
L 800 3500 
L 1894 563 
L 2988 3500 
L 3597 3500 
L 2284 0 
L 1503 0 
L 191 3500 
z
" id="DejaVuSans-76" transform="scale(0.015625)"/>
        <path d="M 3122 3366 
L 3122 2828 
Q 2878 2963 2633 3030 
Q 2388 3097 2138 3097 
Q 1578 3097 1268 2742 
Q 959 2388 959 1747 
Q 959 1106 1268 751 
Q 1578 397 2138 397 
Q 2388 397 2633 464 
Q 2878 531 3122 666 
L 3122 134 
Q 2881 22 2623 -34 
Q 2366 -91 2075 -91 
Q 1284 -91 818 406 
Q 353 903 353 1747 
Q 353 2603 823 3093 
Q 1294 3584 2113 3584 
Q 2378 3584 2631 3529 
Q 2884 3475 3122 3366 
z
" id="DejaVuSans-63" transform="scale(0.015625)"/>
       </defs>
       <use xlink:href="#DejaVuSans-76"/>
       <use x="59.179688" xlink:href="#DejaVuSans-65"/>
       <use x="120.703125" xlink:href="#DejaVuSans-72"/>
       <use x="161.816406" xlink:href="#DejaVuSans-74"/>
       <use x="201.025391" xlink:href="#DejaVuSans-76"/>
       <use x="260.205078" xlink:href="#DejaVuSans-69"/>
       <use x="287.988281" xlink:href="#DejaVuSans-73"/>
       <use x="340.087891" xlink:href="#DejaVuSans-63"/>
       <use x="395.068359" xlink:href="#DejaVuSans-5f"/>
       <use x="445.068359" xlink:href="#DejaVuSans-72"/>
       <use x="483.931641" xlink:href="#DejaVuSans-65"/>
       <use x="545.455078" xlink:href="#DejaVuSans-6d"/>
       <use x="642.867188" xlink:href="#DejaVuSans-6e"/>
       <use x="706.246094" xlink:href="#DejaVuSans-61"/>
       <use x="767.525391" xlink:href="#DejaVuSans-6e"/>
       <use x="830.904297" xlink:href="#DejaVuSans-74"/>
      </g>
     </g>
    </g>
    <g id="ytick_4">
     <g id="line2d_11">
      <g>
       <use style="stroke:#000000;stroke-width:0.8;" x="141.19" xlink:href="#mf342d1016c" y="297.931713"/>
      </g>
     </g>
     <g id="text_12">
      <!-- step_mom_dyn_split_rk2 -->
      <g transform="translate(11.055625 301.730932)scale(0.1 -0.1)">
       <defs>
        <path d="M 2059 -325 
Q 1816 -950 1584 -1140 
Q 1353 -1331 966 -1331 
L 506 -1331 
L 506 -850 
L 844 -850 
Q 1081 -850 1212 -737 
Q 1344 -625 1503 -206 
L 1606 56 
L 191 3500 
L 800 3500 
L 1894 763 
L 2988 3500 
L 3597 3500 
L 2059 -325 
z
" id="DejaVuSans-79" transform="scale(0.015625)"/>
        <path d="M 581 4863 
L 1159 4863 
L 1159 1991 
L 2875 3500 
L 3609 3500 
L 1753 1863 
L 3688 0 
L 2938 0 
L 1159 1709 
L 1159 0 
L 581 0 
L 581 4863 
z
" id="DejaVuSans-6b" transform="scale(0.015625)"/>
       </defs>
       <use xlink:href="#DejaVuSans-73"/>
       <use x="52.099609" xlink:href="#DejaVuSans-74"/>
       <use x="91.308594" xlink:href="#DejaVuSans-65"/>
       <use x="152.832031" xlink:href="#DejaVuSans-70"/>
       <use x="216.308594" xlink:href="#DejaVuSans-5f"/>
       <use x="266.308594" xlink:href="#DejaVuSans-6d"/>
       <use x="363.720703" xlink:href="#DejaVuSans-6f"/>
       <use x="424.902344" xlink:href="#DejaVuSans-6d"/>
       <use x="522.314453" xlink:href="#DejaVuSans-5f"/>
       <use x="572.314453" xlink:href="#DejaVuSans-64"/>
       <use x="635.791016" xlink:href="#DejaVuSans-79"/>
       <use x="694.970703" xlink:href="#DejaVuSans-6e"/>
       <use x="758.349609" xlink:href="#DejaVuSans-5f"/>
       <use x="808.349609" xlink:href="#DejaVuSans-73"/>
       <use x="860.449219" xlink:href="#DejaVuSans-70"/>
       <use x="923.925781" xlink:href="#DejaVuSans-6c"/>
       <use x="951.708984" xlink:href="#DejaVuSans-69"/>
       <use x="979.492188" xlink:href="#DejaVuSans-74"/>
       <use x="1018.701172" xlink:href="#DejaVuSans-5f"/>
       <use x="1068.701172" xlink:href="#DejaVuSans-72"/>
       <use x="1109.814453" xlink:href="#DejaVuSans-6b"/>
       <use x="1167.724609" xlink:href="#DejaVuSans-32"/>
      </g>
     </g>
    </g>
    <g id="ytick_5">
     <g id="line2d_12">
      <g>
       <use style="stroke:#000000;stroke-width:0.8;" x="141.19" xlink:href="#mf342d1016c" y="275.383785"/>
      </g>
     </g>
     <g id="text_13">
      <!-- zonal_mass_flux -->
      <g transform="translate(52.736875 279.183004)scale(0.1 -0.1)">
       <defs>
        <path d="M 353 3500 
L 3084 3500 
L 3084 2975 
L 922 459 
L 3084 459 
L 3084 0 
L 275 0 
L 275 525 
L 2438 3041 
L 353 3041 
L 353 3500 
z
" id="DejaVuSans-7a" transform="scale(0.015625)"/>
       </defs>
       <use xlink:href="#DejaVuSans-7a"/>
       <use x="52.490234" xlink:href="#DejaVuSans-6f"/>
       <use x="113.671875" xlink:href="#DejaVuSans-6e"/>
       <use x="177.050781" xlink:href="#DejaVuSans-61"/>
       <use x="238.330078" xlink:href="#DejaVuSans-6c"/>
       <use x="266.113281" xlink:href="#DejaVuSans-5f"/>
       <use x="316.113281" xlink:href="#DejaVuSans-6d"/>
       <use x="413.525391" xlink:href="#DejaVuSans-61"/>
       <use x="474.804688" xlink:href="#DejaVuSans-73"/>
       <use x="526.904297" xlink:href="#DejaVuSans-73"/>
       <use x="579.003906" xlink:href="#DejaVuSans-5f"/>
       <use x="629.003906" xlink:href="#DejaVuSans-66"/>
       <use x="664.208984" xlink:href="#DejaVuSans-6c"/>
       <use x="691.992188" xlink:href="#DejaVuSans-75"/>
       <use x="755.371094" xlink:href="#DejaVuSans-78"/>
      </g>
     </g>
    </g>
    <g id="ytick_6">
     <g id="line2d_13">
      <g>
       <use style="stroke:#000000;stroke-width:0.8;" x="141.19" xlink:href="#mf342d1016c" y="252.835857"/>
      </g>
     </g>
     <g id="text_14">
      <!-- meridional_flux_adjust -->
      <g transform="translate(21.641562 256.635075)scale(0.1 -0.1)">
       <defs>
        <path d="M 603 3500 
L 1178 3500 
L 1178 -63 
Q 1178 -731 923 -1031 
Q 669 -1331 103 -1331 
L -116 -1331 
L -116 -844 
L 38 -844 
Q 366 -844 484 -692 
Q 603 -541 603 -63 
L 603 3500 
z
M 603 4863 
L 1178 4863 
L 1178 4134 
L 603 4134 
L 603 4863 
z
" id="DejaVuSans-6a" transform="scale(0.015625)"/>
       </defs>
       <use xlink:href="#DejaVuSans-6d"/>
       <use x="97.412109" xlink:href="#DejaVuSans-65"/>
       <use x="158.935547" xlink:href="#DejaVuSans-72"/>
       <use x="200.048828" xlink:href="#DejaVuSans-69"/>
       <use x="227.832031" xlink:href="#DejaVuSans-64"/>
       <use x="291.308594" xlink:href="#DejaVuSans-69"/>
       <use x="319.091797" xlink:href="#DejaVuSans-6f"/>
       <use x="380.273438" xlink:href="#DejaVuSans-6e"/>
       <use x="443.652344" xlink:href="#DejaVuSans-61"/>
       <use x="504.931641" xlink:href="#DejaVuSans-6c"/>
       <use x="532.714844" xlink:href="#DejaVuSans-5f"/>
       <use x="582.714844" xlink:href="#DejaVuSans-66"/>
       <use x="617.919922" xlink:href="#DejaVuSans-6c"/>
       <use x="645.703125" xlink:href="#DejaVuSans-75"/>
       <use x="709.082031" xlink:href="#DejaVuSans-78"/>
       <use x="768.261719" xlink:href="#DejaVuSans-5f"/>
       <use x="818.261719" xlink:href="#DejaVuSans-61"/>
       <use x="879.541016" xlink:href="#DejaVuSans-64"/>
       <use x="943.017578" xlink:href="#DejaVuSans-6a"/>
       <use x="970.800781" xlink:href="#DejaVuSans-75"/>
       <use x="1034.179688" xlink:href="#DejaVuSans-73"/>
       <use x="1086.279297" xlink:href="#DejaVuSans-74"/>
      </g>
     </g>
    </g>
    <g id="ytick_7">
     <g id="line2d_14">
      <g>
       <use style="stroke:#000000;stroke-width:0.8;" x="141.19" xlink:href="#mf342d1016c" y="230.287928"/>
      </g>
     </g>
     <g id="text_15">
      <!-- zonal_flux_layer -->
      <g transform="translate(53.935312 234.087147)scale(0.1 -0.1)">
       <use xlink:href="#DejaVuSans-7a"/>
       <use x="52.490234" xlink:href="#DejaVuSans-6f"/>
       <use x="113.671875" xlink:href="#DejaVuSans-6e"/>
       <use x="177.050781" xlink:href="#DejaVuSans-61"/>
       <use x="238.330078" xlink:href="#DejaVuSans-6c"/>
       <use x="266.113281" xlink:href="#DejaVuSans-5f"/>
       <use x="316.113281" xlink:href="#DejaVuSans-66"/>
       <use x="351.318359" xlink:href="#DejaVuSans-6c"/>
       <use x="379.101562" xlink:href="#DejaVuSans-75"/>
       <use x="442.480469" xlink:href="#DejaVuSans-78"/>
       <use x="501.660156" xlink:href="#DejaVuSans-5f"/>
       <use x="551.660156" xlink:href="#DejaVuSans-6c"/>
       <use x="579.443359" xlink:href="#DejaVuSans-61"/>
       <use x="640.722656" xlink:href="#DejaVuSans-79"/>
       <use x="699.902344" xlink:href="#DejaVuSans-65"/>
       <use x="761.425781" xlink:href="#DejaVuSans-72"/>
      </g>
     </g>
    </g>
    <g id="ytick_8">
     <g id="line2d_15">
      <g>
       <use style="stroke:#000000;stroke-width:0.8;" x="141.19" xlink:href="#mf342d1016c" y="207.74"/>
      </g>
     </g>
     <g id="text_16">
      <!-- find_coupling_coef -->
      <g transform="translate(41.369687 211.539219)scale(0.1 -0.1)">
       <defs>
        <path d="M 2906 1791 
Q 2906 2416 2648 2759 
Q 2391 3103 1925 3103 
Q 1463 3103 1205 2759 
Q 947 2416 947 1791 
Q 947 1169 1205 825 
Q 1463 481 1925 481 
Q 2391 481 2648 825 
Q 2906 1169 2906 1791 
z
M 3481 434 
Q 3481 -459 3084 -895 
Q 2688 -1331 1869 -1331 
Q 1566 -1331 1297 -1286 
Q 1028 -1241 775 -1147 
L 775 -588 
Q 1028 -725 1275 -790 
Q 1522 -856 1778 -856 
Q 2344 -856 2625 -561 
Q 2906 -266 2906 331 
L 2906 616 
Q 2728 306 2450 153 
Q 2172 0 1784 0 
Q 1141 0 747 490 
Q 353 981 353 1791 
Q 353 2603 747 3093 
Q 1141 3584 1784 3584 
Q 2172 3584 2450 3431 
Q 2728 3278 2906 2969 
L 2906 3500 
L 3481 3500 
L 3481 434 
z
" id="DejaVuSans-67" transform="scale(0.015625)"/>
       </defs>
       <use xlink:href="#DejaVuSans-66"/>
       <use x="35.205078" xlink:href="#DejaVuSans-69"/>
       <use x="62.988281" xlink:href="#DejaVuSans-6e"/>
       <use x="126.367188" xlink:href="#DejaVuSans-64"/>
       <use x="189.84375" xlink:href="#DejaVuSans-5f"/>
       <use x="239.84375" xlink:href="#DejaVuSans-63"/>
       <use x="294.824219" xlink:href="#DejaVuSans-6f"/>
       <use x="356.005859" xlink:href="#DejaVuSans-75"/>
       <use x="419.384766" xlink:href="#DejaVuSans-70"/>
       <use x="482.861328" xlink:href="#DejaVuSans-6c"/>
       <use x="510.644531" xlink:href="#DejaVuSans-69"/>
       <use x="538.427734" xlink:href="#DejaVuSans-6e"/>
       <use x="601.806641" xlink:href="#DejaVuSans-67"/>
       <use x="665.283203" xlink:href="#DejaVuSans-5f"/>
       <use x="715.283203" xlink:href="#DejaVuSans-63"/>
       <use x="770.263672" xlink:href="#DejaVuSans-6f"/>
       <use x="831.445312" xlink:href="#DejaVuSans-65"/>
       <use x="892.96875" xlink:href="#DejaVuSans-66"/>
      </g>
     </g>
    </g>
    <g id="ytick_9">
     <g id="line2d_16">
      <g>
       <use style="stroke:#000000;stroke-width:0.8;" x="141.19" xlink:href="#mf342d1016c" y="185.192072"/>
      </g>
     </g>
     <g id="text_17">
      <!-- set_merid_bt_cont -->
      <g transform="translate(42.632187 188.99129)scale(0.1 -0.1)">
       <defs>
        <path d="M 3116 1747 
Q 3116 2381 2855 2742 
Q 2594 3103 2138 3103 
Q 1681 3103 1420 2742 
Q 1159 2381 1159 1747 
Q 1159 1113 1420 752 
Q 1681 391 2138 391 
Q 2594 391 2855 752 
Q 3116 1113 3116 1747 
z
M 1159 2969 
Q 1341 3281 1617 3432 
Q 1894 3584 2278 3584 
Q 2916 3584 3314 3078 
Q 3713 2572 3713 1747 
Q 3713 922 3314 415 
Q 2916 -91 2278 -91 
Q 1894 -91 1617 61 
Q 1341 213 1159 525 
L 1159 0 
L 581 0 
L 581 4863 
L 1159 4863 
L 1159 2969 
z
" id="DejaVuSans-62" transform="scale(0.015625)"/>
       </defs>
       <use xlink:href="#DejaVuSans-73"/>
       <use x="52.099609" xlink:href="#DejaVuSans-65"/>
       <use x="113.623047" xlink:href="#DejaVuSans-74"/>
       <use x="152.832031" xlink:href="#DejaVuSans-5f"/>
       <use x="202.832031" xlink:href="#DejaVuSans-6d"/>
       <use x="300.244141" xlink:href="#DejaVuSans-65"/>
       <use x="361.767578" xlink:href="#DejaVuSans-72"/>
       <use x="402.880859" xlink:href="#DejaVuSans-69"/>
       <use x="430.664062" xlink:href="#DejaVuSans-64"/>
       <use x="494.140625" xlink:href="#DejaVuSans-5f"/>
       <use x="544.140625" xlink:href="#DejaVuSans-62"/>
       <use x="607.617188" xlink:href="#DejaVuSans-74"/>
       <use x="646.826172" xlink:href="#DejaVuSans-5f"/>
       <use x="696.826172" xlink:href="#DejaVuSans-63"/>
       <use x="751.806641" xlink:href="#DejaVuSans-6f"/>
       <use x="812.988281" xlink:href="#DejaVuSans-6e"/>
       <use x="876.367188" xlink:href="#DejaVuSans-74"/>
      </g>
     </g>
    </g>
    <g id="ytick_10">
     <g id="line2d_17">
      <g>
       <use style="stroke:#000000;stroke-width:0.8;" x="141.19" xlink:href="#mf342d1016c" y="162.644143"/>
      </g>
     </g>
     <g id="text_18">
      <!-- zonal_flux_adjust -->
      <g transform="translate(48.3025 166.443362)scale(0.1 -0.1)">
       <use xlink:href="#DejaVuSans-7a"/>
       <use x="52.490234" xlink:href="#DejaVuSans-6f"/>
       <use x="113.671875" xlink:href="#DejaVuSans-6e"/>
       <use x="177.050781" xlink:href="#DejaVuSans-61"/>
       <use x="238.330078" xlink:href="#DejaVuSans-6c"/>
       <use x="266.113281" xlink:href="#DejaVuSans-5f"/>
       <use x="316.113281" xlink:href="#DejaVuSans-66"/>
       <use x="351.318359" xlink:href="#DejaVuSans-6c"/>
       <use x="379.101562" xlink:href="#DejaVuSans-75"/>
       <use x="442.480469" xlink:href="#DejaVuSans-78"/>
       <use x="501.660156" xlink:href="#DejaVuSans-5f"/>
       <use x="551.660156" xlink:href="#DejaVuSans-61"/>
       <use x="612.939453" xlink:href="#DejaVuSans-64"/>
       <use x="676.416016" xlink:href="#DejaVuSans-6a"/>
       <use x="704.199219" xlink:href="#DejaVuSans-75"/>
       <use x="767.578125" xlink:href="#DejaVuSans-73"/>
       <use x="819.677734" xlink:href="#DejaVuSans-74"/>
      </g>
     </g>
    </g>
    <g id="ytick_11">
     <g id="line2d_18">
      <g>
       <use style="stroke:#000000;stroke-width:0.8;" x="141.19" xlink:href="#mf342d1016c" y="140.096215"/>
      </g>
     </g>
     <g id="text_19">
      <!-- int_density_dz_wright -->
      <g transform="translate(26.218125 143.895434)scale(0.1 -0.1)">
       <defs>
        <path d="M 269 3500 
L 844 3500 
L 1563 769 
L 2278 3500 
L 2956 3500 
L 3675 769 
L 4391 3500 
L 4966 3500 
L 4050 0 
L 3372 0 
L 2619 2869 
L 1863 0 
L 1184 0 
L 269 3500 
z
" id="DejaVuSans-77" transform="scale(0.015625)"/>
        <path d="M 3513 2113 
L 3513 0 
L 2938 0 
L 2938 2094 
Q 2938 2591 2744 2837 
Q 2550 3084 2163 3084 
Q 1697 3084 1428 2787 
Q 1159 2491 1159 1978 
L 1159 0 
L 581 0 
L 581 4863 
L 1159 4863 
L 1159 2956 
Q 1366 3272 1645 3428 
Q 1925 3584 2291 3584 
Q 2894 3584 3203 3211 
Q 3513 2838 3513 2113 
z
" id="DejaVuSans-68" transform="scale(0.015625)"/>
       </defs>
       <use xlink:href="#DejaVuSans-69"/>
       <use x="27.783203" xlink:href="#DejaVuSans-6e"/>
       <use x="91.162109" xlink:href="#DejaVuSans-74"/>
       <use x="130.371094" xlink:href="#DejaVuSans-5f"/>
       <use x="180.371094" xlink:href="#DejaVuSans-64"/>
       <use x="243.847656" xlink:href="#DejaVuSans-65"/>
       <use x="305.371094" xlink:href="#DejaVuSans-6e"/>
       <use x="368.75" xlink:href="#DejaVuSans-73"/>
       <use x="420.849609" xlink:href="#DejaVuSans-69"/>
       <use x="448.632812" xlink:href="#DejaVuSans-74"/>
       <use x="487.841797" xlink:href="#DejaVuSans-79"/>
       <use x="547.021484" xlink:href="#DejaVuSans-5f"/>
       <use x="597.021484" xlink:href="#DejaVuSans-64"/>
       <use x="660.498047" xlink:href="#DejaVuSans-7a"/>
       <use x="712.988281" xlink:href="#DejaVuSans-5f"/>
       <use x="762.988281" xlink:href="#DejaVuSans-77"/>
       <use x="844.775391" xlink:href="#DejaVuSans-72"/>
       <use x="885.888672" xlink:href="#DejaVuSans-69"/>
       <use x="913.671875" xlink:href="#DejaVuSans-67"/>
       <use x="977.148438" xlink:href="#DejaVuSans-68"/>
       <use x="1040.527344" xlink:href="#DejaVuSans-74"/>
      </g>
     </g>
    </g>
    <g id="ytick_12">
     <g id="line2d_19">
      <g>
       <use style="stroke:#000000;stroke-width:0.8;" x="141.19" xlink:href="#mf342d1016c" y="117.548287"/>
      </g>
     </g>
     <g id="text_20">
      <!-- coradcalc -->
      <g transform="translate(86.082188 121.347506)scale(0.1 -0.1)">
       <use xlink:href="#DejaVuSans-63"/>
       <use x="54.980469" xlink:href="#DejaVuSans-6f"/>
       <use x="116.162109" xlink:href="#DejaVuSans-72"/>
       <use x="157.275391" xlink:href="#DejaVuSans-61"/>
       <use x="218.554688" xlink:href="#DejaVuSans-64"/>
       <use x="282.03125" xlink:href="#DejaVuSans-63"/>
       <use x="337.011719" xlink:href="#DejaVuSans-61"/>
       <use x="398.291016" xlink:href="#DejaVuSans-6c"/>
       <use x="426.074219" xlink:href="#DejaVuSans-63"/>
      </g>
     </g>
    </g>
    <g id="ytick_13">
     <g id="line2d_20">
      <g>
       <use style="stroke:#000000;stroke-width:0.8;" x="141.19" xlink:href="#mf342d1016c" y="95.000359"/>
      </g>
     </g>
     <g id="text_21">
      <!-- vertvisc_coef -->
      <g transform="translate(68.391562 98.799577)scale(0.1 -0.1)">
       <use xlink:href="#DejaVuSans-76"/>
       <use x="59.179688" xlink:href="#DejaVuSans-65"/>
       <use x="120.703125" xlink:href="#DejaVuSans-72"/>
       <use x="161.816406" xlink:href="#DejaVuSans-74"/>
       <use x="201.025391" xlink:href="#DejaVuSans-76"/>
       <use x="260.205078" xlink:href="#DejaVuSans-69"/>
       <use x="287.988281" xlink:href="#DejaVuSans-73"/>
       <use x="340.087891" xlink:href="#DejaVuSans-63"/>
       <use x="395.068359" xlink:href="#DejaVuSans-5f"/>
       <use x="445.068359" xlink:href="#DejaVuSans-63"/>
       <use x="500.048828" xlink:href="#DejaVuSans-6f"/>
       <use x="561.230469" xlink:href="#DejaVuSans-65"/>
       <use x="622.753906" xlink:href="#DejaVuSans-66"/>
      </g>
     </g>
    </g>
    <g id="ytick_14">
     <g id="line2d_21">
      <g>
       <use style="stroke:#000000;stroke-width:0.8;" x="141.19" xlink:href="#mf342d1016c" y="72.45243"/>
      </g>
     </g>
     <g id="text_22">
      <!-- horizontal_viscosity -->
      <g transform="translate(35.963437 76.251649)scale(0.1 -0.1)">
       <use xlink:href="#DejaVuSans-68"/>
       <use x="63.378906" xlink:href="#DejaVuSans-6f"/>
       <use x="124.560547" xlink:href="#DejaVuSans-72"/>
       <use x="165.673828" xlink:href="#DejaVuSans-69"/>
       <use x="193.457031" xlink:href="#DejaVuSans-7a"/>
       <use x="245.947266" xlink:href="#DejaVuSans-6f"/>
       <use x="307.128906" xlink:href="#DejaVuSans-6e"/>
       <use x="370.507812" xlink:href="#DejaVuSans-74"/>
       <use x="409.716797" xlink:href="#DejaVuSans-61"/>
       <use x="470.996094" xlink:href="#DejaVuSans-6c"/>
       <use x="498.779297" xlink:href="#DejaVuSans-5f"/>
       <use x="548.779297" xlink:href="#DejaVuSans-76"/>
       <use x="607.958984" xlink:href="#DejaVuSans-69"/>
       <use x="635.742188" xlink:href="#DejaVuSans-73"/>
       <use x="687.841797" xlink:href="#DejaVuSans-63"/>
       <use x="742.822266" xlink:href="#DejaVuSans-6f"/>
       <use x="804.003906" xlink:href="#DejaVuSans-73"/>
       <use x="856.103516" xlink:href="#DejaVuSans-69"/>
       <use x="883.886719" xlink:href="#DejaVuSans-74"/>
       <use x="923.095703" xlink:href="#DejaVuSans-79"/>
      </g>
     </g>
    </g>
    <g id="ytick_15">
     <g id="line2d_22">
      <g>
       <use style="stroke:#000000;stroke-width:0.8;" x="141.19" xlink:href="#mf342d1016c" y="49.904502"/>
      </g>
     </g>
     <g id="text_23">
      <!-- btstep -->
      <g transform="translate(102.29 53.703721)scale(0.1 -0.1)">
       <use xlink:href="#DejaVuSans-62"/>
       <use x="63.476562" xlink:href="#DejaVuSans-74"/>
       <use x="102.685547" xlink:href="#DejaVuSans-73"/>
       <use x="154.785156" xlink:href="#DejaVuSans-74"/>
       <use x="193.994141" xlink:href="#DejaVuSans-65"/>
       <use x="255.517578" xlink:href="#DejaVuSans-70"/>
      </g>
     </g>
    </g>
   </g>
   <g id="patch_33">
    <path d="M 141.19 390.04 
L 141.19 25.44 
" style="fill:none;stroke:#000000;stroke-linecap:square;stroke-linejoin:miter;stroke-width:0.8;"/>
   </g>
   <g id="patch_34">
    <path d="M 565.2 390.04 
L 565.2 25.44 
" style="fill:none;stroke:#000000;stroke-linecap:square;stroke-linejoin:miter;stroke-width:0.8;"/>
   </g>
   <g id="patch_35">
    <path d="M 141.19 390.04 
L 565.2 390.04 
" style="fill:none;stroke:#000000;stroke-linecap:square;stroke-linejoin:miter;stroke-width:0.8;"/>
   </g>
   <g id="patch_36">
    <path d="M 141.19 25.44 
L 565.2 25.44 
" style="fill:none;stroke:#000000;stroke-linecap:square;stroke-linejoin:miter;stroke-width:0.8;"/>
   </g>
   <g id="text_24">
    <!-- 2.5 -->
    <g transform="translate(219.927897 362.544617)scale(0.0694 -0.0694)">
     <defs>
      <path d="M 684 794 
L 1344 794 
L 1344 0 
L 684 0 
L 684 794 
z
" id="DejaVuSans-2e" transform="scale(0.015625)"/>
      <path d="M 691 4666 
L 3169 4666 
L 3169 4134 
L 1269 4134 
L 1269 2991 
Q 1406 3038 1543 3061 
Q 1681 3084 1819 3084 
Q 2600 3084 3056 2656 
Q 3513 2228 3513 1497 
Q 3513 744 3044 326 
Q 2575 -91 1722 -91 
Q 1428 -91 1123 -41 
Q 819 9 494 109 
L 494 744 
Q 775 591 1075 516 
Q 1375 441 1709 441 
Q 2250 441 2565 725 
Q 2881 1009 2881 1497 
Q 2881 1984 2565 2268 
Q 2250 2553 1709 2553 
Q 1456 2553 1204 2497 
Q 953 2441 691 2322 
L 691 4666 
z
" id="DejaVuSans-35" transform="scale(0.015625)"/>
     </defs>
     <use xlink:href="#DejaVuSans-32"/>
     <use x="63.623047" xlink:href="#DejaVuSans-2e"/>
     <use x="95.410156" xlink:href="#DejaVuSans-35"/>
    </g>
   </g>
   <g id="text_25">
    <!-- 2.7 -->
    <g transform="translate(228.102503 339.996688)scale(0.0694 -0.0694)">
     <defs>
      <path d="M 525 4666 
L 3525 4666 
L 3525 4397 
L 1831 0 
L 1172 0 
L 2766 4134 
L 525 4134 
L 525 4666 
z
" id="DejaVuSans-37" transform="scale(0.015625)"/>
     </defs>
     <use xlink:href="#DejaVuSans-32"/>
     <use x="63.623047" xlink:href="#DejaVuSans-2e"/>
     <use x="95.410156" xlink:href="#DejaVuSans-37"/>
    </g>
   </g>
   <g id="text_26">
    <!-- 2.9 -->
    <g transform="translate(232.432136 317.44876)scale(0.0694 -0.0694)">
     <defs>
      <path d="M 703 97 
L 703 672 
Q 941 559 1184 500 
Q 1428 441 1663 441 
Q 2288 441 2617 861 
Q 2947 1281 2994 2138 
Q 2813 1869 2534 1725 
Q 2256 1581 1919 1581 
Q 1219 1581 811 2004 
Q 403 2428 403 3163 
Q 403 3881 828 4315 
Q 1253 4750 1959 4750 
Q 2769 4750 3195 4129 
Q 3622 3509 3622 2328 
Q 3622 1225 3098 567 
Q 2575 -91 1691 -91 
Q 1453 -91 1209 -44 
Q 966 3 703 97 
z
M 1959 2075 
Q 2384 2075 2632 2365 
Q 2881 2656 2881 3163 
Q 2881 3666 2632 3958 
Q 2384 4250 1959 4250 
Q 1534 4250 1286 3958 
Q 1038 3666 1038 3163 
Q 1038 2656 1286 2365 
Q 1534 2075 1959 2075 
z
" id="DejaVuSans-39" transform="scale(0.015625)"/>
     </defs>
     <use xlink:href="#DejaVuSans-32"/>
     <use x="63.623047" xlink:href="#DejaVuSans-2e"/>
     <use x="95.410156" xlink:href="#DejaVuSans-39"/>
    </g>
   </g>
   <g id="text_27">
    <!-- 3.1 -->
    <g transform="translate(239.605109 294.900832)scale(0.0694 -0.0694)">
     <defs>
      <path d="M 2597 2516 
Q 3050 2419 3304 2112 
Q 3559 1806 3559 1356 
Q 3559 666 3084 287 
Q 2609 -91 1734 -91 
Q 1441 -91 1130 -33 
Q 819 25 488 141 
L 488 750 
Q 750 597 1062 519 
Q 1375 441 1716 441 
Q 2309 441 2620 675 
Q 2931 909 2931 1356 
Q 2931 1769 2642 2001 
Q 2353 2234 1838 2234 
L 1294 2234 
L 1294 2753 
L 1863 2753 
Q 2328 2753 2575 2939 
Q 2822 3125 2822 3475 
Q 2822 3834 2567 4026 
Q 2313 4219 1838 4219 
Q 1578 4219 1281 4162 
Q 984 4106 628 3988 
L 628 4550 
Q 988 4650 1302 4700 
Q 1616 4750 1894 4750 
Q 2613 4750 3031 4423 
Q 3450 4097 3450 3541 
Q 3450 3153 3228 2886 
Q 3006 2619 2597 2516 
z
" id="DejaVuSans-33" transform="scale(0.015625)"/>
     </defs>
     <use xlink:href="#DejaVuSans-33"/>
     <use x="63.623047" xlink:href="#DejaVuSans-2e"/>
     <use x="95.410156" xlink:href="#DejaVuSans-31"/>
    </g>
   </g>
   <g id="text_28">
    <!-- 3.1 -->
    <g transform="translate(239.63742 272.352904)scale(0.0694 -0.0694)">
     <use xlink:href="#DejaVuSans-33"/>
     <use x="63.623047" xlink:href="#DejaVuSans-2e"/>
     <use x="95.410156" xlink:href="#DejaVuSans-31"/>
    </g>
   </g>
   <g id="text_29">
    <!-- 3.3 -->
    <g transform="translate(245.517966 249.804975)scale(0.0694 -0.0694)">
     <use xlink:href="#DejaVuSans-33"/>
     <use x="63.623047" xlink:href="#DejaVuSans-2e"/>
     <use x="95.410156" xlink:href="#DejaVuSans-33"/>
    </g>
   </g>
   <g id="text_30">
    <!-- 3.3 -->
    <g transform="translate(245.905695 227.257047)scale(0.0694 -0.0694)">
     <use xlink:href="#DejaVuSans-33"/>
     <use x="63.623047" xlink:href="#DejaVuSans-2e"/>
     <use x="95.410156" xlink:href="#DejaVuSans-33"/>
    </g>
   </g>
   <g id="text_31">
    <!-- 3.4 -->
    <g transform="translate(249.330628 204.709119)scale(0.0694 -0.0694)">
     <use xlink:href="#DejaVuSans-33"/>
     <use x="63.623047" xlink:href="#DejaVuSans-2e"/>
     <use x="95.410156" xlink:href="#DejaVuSans-34"/>
    </g>
   </g>
   <g id="text_32">
    <!-- 3.4 -->
    <g transform="translate(249.492182 182.161191)scale(0.0694 -0.0694)">
     <use xlink:href="#DejaVuSans-33"/>
     <use x="63.623047" xlink:href="#DejaVuSans-2e"/>
     <use x="95.410156" xlink:href="#DejaVuSans-34"/>
    </g>
   </g>
   <g id="text_33">
    <!-- 3.6 -->
    <g transform="translate(255.308107 159.613262)scale(0.0694 -0.0694)">
     <use xlink:href="#DejaVuSans-33"/>
     <use x="63.623047" xlink:href="#DejaVuSans-2e"/>
     <use x="95.410156" xlink:href="#DejaVuSans-36"/>
    </g>
   </g>
   <g id="text_34">
    <!-- 4.1 -->
    <g transform="translate(272.23891 137.065334)scale(0.0694 -0.0694)">
     <use xlink:href="#DejaVuSans-34"/>
     <use x="63.623047" xlink:href="#DejaVuSans-2e"/>
     <use x="95.410156" xlink:href="#DejaVuSans-31"/>
    </g>
   </g>
   <g id="text_35">
    <!-- 4.6 -->
    <g transform="translate(286.100197 114.517406)scale(0.0694 -0.0694)">
     <use xlink:href="#DejaVuSans-34"/>
     <use x="63.623047" xlink:href="#DejaVuSans-2e"/>
     <use x="95.410156" xlink:href="#DejaVuSans-36"/>
    </g>
   </g>
   <g id="text_36">
    <!-- 6.4 -->
    <g transform="translate(341.609969 91.969477)scale(0.0694 -0.0694)">
     <use xlink:href="#DejaVuSans-36"/>
     <use x="63.623047" xlink:href="#DejaVuSans-2e"/>
     <use x="95.410156" xlink:href="#DejaVuSans-34"/>
    </g>
   </g>
   <g id="text_37">
    <!-- 7.0 -->
    <g transform="translate(361.028696 69.421549)scale(0.0694 -0.0694)">
     <use xlink:href="#DejaVuSans-37"/>
     <use x="63.623047" xlink:href="#DejaVuSans-2e"/>
     <use x="95.410156" xlink:href="#DejaVuSans-30"/>
    </g>
   </g>
   <g id="text_38">
    <!-- 12.9 -->
    <g transform="translate(547.009048 46.873621)scale(0.0694 -0.0694)">
     <use xlink:href="#DejaVuSans-31"/>
     <use x="63.623047" xlink:href="#DejaVuSans-32"/>
     <use x="127.246094" xlink:href="#DejaVuSans-2e"/>
     <use x="159.033203" xlink:href="#DejaVuSans-39"/>
    </g>
   </g>
   <g id="text_39">
    <!-- 4.2 -->
    <g transform="translate(273.028761 374.436392)scale(0.0694 -0.0694)">
     <use xlink:href="#DejaVuSans-34"/>
     <use x="63.623047" xlink:href="#DejaVuSans-2e"/>
     <use x="95.410156" xlink:href="#DejaVuSans-32"/>
    </g>
   </g>
   <g id="text_40">
    <!-- 1.6 -->
    <g transform="translate(192.755721 351.888463)scale(0.0694 -0.0694)">
     <use xlink:href="#DejaVuSans-31"/>
     <use x="63.623047" xlink:href="#DejaVuSans-2e"/>
     <use x="95.410156" xlink:href="#DejaVuSans-36"/>
    </g>
   </g>
   <g id="text_41">
    <!-- 2.2 -->
    <g transform="translate(210.688253 329.340535)scale(0.0694 -0.0694)">
     <use xlink:href="#DejaVuSans-32"/>
     <use x="63.623047" xlink:href="#DejaVuSans-2e"/>
     <use x="95.410156" xlink:href="#DejaVuSans-32"/>
    </g>
   </g>
   <g id="text_42">
    <!-- 1.3 -->
    <g transform="translate(184.055379 306.792607)scale(0.0694 -0.0694)">
     <use xlink:href="#DejaVuSans-31"/>
     <use x="63.623047" xlink:href="#DejaVuSans-2e"/>
     <use x="95.410156" xlink:href="#DejaVuSans-33"/>
    </g>
   </g>
   <g id="text_43">
    <!-- 3.9 -->
    <g transform="translate(264.130636 284.244678)scale(0.0694 -0.0694)">
     <use xlink:href="#DejaVuSans-33"/>
     <use x="63.623047" xlink:href="#DejaVuSans-2e"/>
     <use x="95.410156" xlink:href="#DejaVuSans-39"/>
    </g>
   </g>
   <g id="text_44">
    <!-- 3.9 -->
    <g transform="translate(266.385897 261.69675)scale(0.0694 -0.0694)">
     <use xlink:href="#DejaVuSans-33"/>
     <use x="63.623047" xlink:href="#DejaVuSans-2e"/>
     <use x="95.410156" xlink:href="#DejaVuSans-39"/>
    </g>
   </g>
   <g id="text_45">
    <!-- 3.5 -->
    <g transform="translate(253.65972 239.148822)scale(0.0694 -0.0694)">
     <use xlink:href="#DejaVuSans-33"/>
     <use x="63.623047" xlink:href="#DejaVuSans-2e"/>
     <use x="95.410156" xlink:href="#DejaVuSans-35"/>
    </g>
   </g>
   <g id="text_46">
    <!-- 2.5 -->
    <g transform="translate(221.211679 216.600894)scale(0.0694 -0.0694)">
     <use xlink:href="#DejaVuSans-32"/>
     <use x="63.623047" xlink:href="#DejaVuSans-2e"/>
     <use x="95.410156" xlink:href="#DejaVuSans-35"/>
    </g>
   </g>
   <g id="text_47">
    <!-- 3.2 -->
    <g transform="translate(241.991078 194.052965)scale(0.0694 -0.0694)">
     <use xlink:href="#DejaVuSans-33"/>
     <use x="63.623047" xlink:href="#DejaVuSans-2e"/>
     <use x="95.410156" xlink:href="#DejaVuSans-32"/>
    </g>
   </g>
   <g id="text_48">
    <!-- 3.4 -->
    <g transform="translate(250.601846 171.505037)scale(0.0694 -0.0694)">
     <use xlink:href="#DejaVuSans-33"/>
     <use x="63.623047" xlink:href="#DejaVuSans-2e"/>
     <use x="95.410156" xlink:href="#DejaVuSans-34"/>
    </g>
   </g>
   <g id="text_49">
    <!-- 8.6 -->
    <g transform="translate(411.44103 148.957109)scale(0.0694 -0.0694)">
     <use xlink:href="#DejaVuSans-38"/>
     <use x="63.623047" xlink:href="#DejaVuSans-2e"/>
     <use x="95.410156" xlink:href="#DejaVuSans-36"/>
    </g>
   </g>
   <g id="text_50">
    <!-- 2.7 -->
    <g transform="translate(226.856237 126.409181)scale(0.0694 -0.0694)">
     <use xlink:href="#DejaVuSans-32"/>
     <use x="63.623047" xlink:href="#DejaVuSans-2e"/>
     <use x="95.410156" xlink:href="#DejaVuSans-37"/>
    </g>
   </g>
   <g id="text_51">
    <!-- 1.3 -->
    <g transform="translate(183.52594 103.861252)scale(0.0694 -0.0694)">
     <use xlink:href="#DejaVuSans-31"/>
     <use x="63.623047" xlink:href="#DejaVuSans-2e"/>
     <use x="95.410156" xlink:href="#DejaVuSans-33"/>
    </g>
   </g>
   <g id="text_52">
    <!-- 2.3 -->
    <g transform="translate(215.000913 81.313324)scale(0.0694 -0.0694)">
     <use xlink:href="#DejaVuSans-32"/>
     <use x="63.623047" xlink:href="#DejaVuSans-2e"/>
     <use x="95.410156" xlink:href="#DejaVuSans-33"/>
    </g>
   </g>
   <g id="text_53">
    <!-- 0.9 -->
    <g transform="translate(171.030055 58.765396)scale(0.0694 -0.0694)">
     <use xlink:href="#DejaVuSans-30"/>
     <use x="63.623047" xlink:href="#DejaVuSans-2e"/>
     <use x="95.410156" xlink:href="#DejaVuSans-39"/>
    </g>
   </g>
   <g id="text_54">
    <!-- Relative subroutine runtimes -->
    <g transform="translate(266.375937 19.44)scale(0.12 -0.12)">
     <use xlink:href="#DejaVuSans-52"/>
     <use x="64.982422" xlink:href="#DejaVuSans-65"/>
     <use x="126.505859" xlink:href="#DejaVuSans-6c"/>
     <use x="154.289062" xlink:href="#DejaVuSans-61"/>
     <use x="215.568359" xlink:href="#DejaVuSans-74"/>
     <use x="254.777344" xlink:href="#DejaVuSans-69"/>
     <use x="282.560547" xlink:href="#DejaVuSans-76"/>
     <use x="341.740234" xlink:href="#DejaVuSans-65"/>
     <use x="403.263672" xlink:href="#DejaVuSans-20"/>
     <use x="435.050781" xlink:href="#DejaVuSans-73"/>
     <use x="487.150391" xlink:href="#DejaVuSans-75"/>
     <use x="550.529297" xlink:href="#DejaVuSans-62"/>
     <use x="614.005859" xlink:href="#DejaVuSans-72"/>
     <use x="652.869141" xlink:href="#DejaVuSans-6f"/>
     <use x="714.050781" xlink:href="#DejaVuSans-75"/>
     <use x="777.429688" xlink:href="#DejaVuSans-74"/>
     <use x="816.638672" xlink:href="#DejaVuSans-69"/>
     <use x="844.421875" xlink:href="#DejaVuSans-6e"/>
     <use x="907.800781" xlink:href="#DejaVuSans-65"/>
     <use x="969.324219" xlink:href="#DejaVuSans-20"/>
     <use x="1001.111328" xlink:href="#DejaVuSans-72"/>
     <use x="1042.224609" xlink:href="#DejaVuSans-75"/>
     <use x="1105.603516" xlink:href="#DejaVuSans-6e"/>
     <use x="1168.982422" xlink:href="#DejaVuSans-74"/>
     <use x="1208.191406" xlink:href="#DejaVuSans-69"/>
     <use x="1235.974609" xlink:href="#DejaVuSans-6d"/>
     <use x="1333.386719" xlink:href="#DejaVuSans-65"/>
     <use x="1394.910156" xlink:href="#DejaVuSans-73"/>
    </g>
   </g>
   <g id="legend_1">
    <g id="patch_37">
     <path d="M 485.010937 385.04 
L 558.2 385.04 
Q 560.2 385.04 560.2 383.04 
L 560.2 354.68375 
Q 560.2 352.68375 558.2 352.68375 
L 485.010937 352.68375 
Q 483.010937 352.68375 483.010937 354.68375 
L 483.010937 383.04 
Q 483.010937 385.04 485.010937 385.04 
z
" style="fill:#ffffff;opacity:0.8;stroke:#cccccc;stroke-linejoin:miter;"/>
    </g>
    <g id="patch_38">
     <path d="M 487.010937 364.282187 
L 507.010937 364.282187 
L 507.010937 357.282187 
L 487.010937 357.282187 
z
" style="fill:#1f77b4;"/>
    </g>
    <g id="text_55">
     <!-- % time -->
     <g transform="translate(515.010937 364.282187)scale(0.1 -0.1)">
      <use xlink:href="#DejaVuSans-25"/>
      <use x="95.019531" xlink:href="#DejaVuSans-20"/>
      <use x="126.806641" xlink:href="#DejaVuSans-74"/>
      <use x="166.015625" xlink:href="#DejaVuSans-69"/>
      <use x="193.798828" xlink:href="#DejaVuSans-6d"/>
      <use x="291.210938" xlink:href="#DejaVuSans-65"/>
     </g>
    </g>
    <g id="patch_39">
     <path d="M 487.010937 378.960312 
L 507.010937 378.960312 
L 507.010937 371.960312 
L 487.010937 371.960312 
z
" style="fill:#ff7f0e;"/>
    </g>
    <g id="text_56">
     <!-- GFLOP/s -->
     <g transform="translate(515.010937 378.960312)scale(0.1 -0.1)">
      <defs>
       <path d="M 3809 666 
L 3809 1919 
L 2778 1919 
L 2778 2438 
L 4434 2438 
L 4434 434 
Q 4069 175 3628 42 
Q 3188 -91 2688 -91 
Q 1594 -91 976 548 
Q 359 1188 359 2328 
Q 359 3472 976 4111 
Q 1594 4750 2688 4750 
Q 3144 4750 3555 4637 
Q 3966 4525 4313 4306 
L 4313 3634 
Q 3963 3931 3569 4081 
Q 3175 4231 2741 4231 
Q 1884 4231 1454 3753 
Q 1025 3275 1025 2328 
Q 1025 1384 1454 906 
Q 1884 428 2741 428 
Q 3075 428 3337 486 
Q 3600 544 3809 666 
z
" id="DejaVuSans-47" transform="scale(0.015625)"/>
       <path d="M 628 4666 
L 3309 4666 
L 3309 4134 
L 1259 4134 
L 1259 2759 
L 3109 2759 
L 3109 2228 
L 1259 2228 
L 1259 0 
L 628 0 
L 628 4666 
z
" id="DejaVuSans-46" transform="scale(0.015625)"/>
       <path d="M 628 4666 
L 1259 4666 
L 1259 531 
L 3531 531 
L 3531 0 
L 628 0 
L 628 4666 
z
" id="DejaVuSans-4c" transform="scale(0.015625)"/>
       <path d="M 2522 4238 
Q 1834 4238 1429 3725 
Q 1025 3213 1025 2328 
Q 1025 1447 1429 934 
Q 1834 422 2522 422 
Q 3209 422 3611 934 
Q 4013 1447 4013 2328 
Q 4013 3213 3611 3725 
Q 3209 4238 2522 4238 
z
M 2522 4750 
Q 3503 4750 4090 4092 
Q 4678 3434 4678 2328 
Q 4678 1225 4090 567 
Q 3503 -91 2522 -91 
Q 1538 -91 948 565 
Q 359 1222 359 2328 
Q 359 3434 948 4092 
Q 1538 4750 2522 4750 
z
" id="DejaVuSans-4f" transform="scale(0.015625)"/>
       <path d="M 1259 4147 
L 1259 2394 
L 2053 2394 
Q 2494 2394 2734 2622 
Q 2975 2850 2975 3272 
Q 2975 3691 2734 3919 
Q 2494 4147 2053 4147 
L 1259 4147 
z
M 628 4666 
L 2053 4666 
Q 2838 4666 3239 4311 
Q 3641 3956 3641 3272 
Q 3641 2581 3239 2228 
Q 2838 1875 2053 1875 
L 1259 1875 
L 1259 0 
L 628 0 
L 628 4666 
z
" id="DejaVuSans-50" transform="scale(0.015625)"/>
       <path d="M 1625 4666 
L 2156 4666 
L 531 -594 
L 0 -594 
L 1625 4666 
z
" id="DejaVuSans-2f" transform="scale(0.015625)"/>
      </defs>
      <use xlink:href="#DejaVuSans-47"/>
      <use x="77.490234" xlink:href="#DejaVuSans-46"/>
      <use x="135.009766" xlink:href="#DejaVuSans-4c"/>
      <use x="187.097656" xlink:href="#DejaVuSans-4f"/>
      <use x="265.808594" xlink:href="#DejaVuSans-50"/>
      <use x="326.111328" xlink:href="#DejaVuSans-2f"/>
      <use x="359.802734" xlink:href="#DejaVuSans-73"/>
     </g>
    </g>
   </g>
  </g>
  <g id="axes_2">
   <g id="patch_40">
    <path d="M 442.997 312.12 
L 550.997 312.12 
L 550.997 96.12 
L 442.997 96.12 
z
" style="fill:#ffffff;"/>
   </g>
   <g id="patch_41">
    <path clip-path="url(#pb425eadfa2)" d="M 442.997 302.301818 
L 444.815805 302.301818 
L 444.815805 299.147382 
L 442.997 299.147382 
z
" style="fill:#1f77b4;"/>
   </g>
   <g id="patch_42">
    <path clip-path="url(#pb425eadfa2)" d="M 442.997 298.358773 
L 444.873415 298.358773 
L 444.873415 295.204337 
L 442.997 295.204337 
z
" style="fill:#1f77b4;"/>
   </g>
   <g id="patch_43">
    <path clip-path="url(#pb425eadfa2)" d="M 442.997 294.415728 
L 444.914564 294.415728 
L 444.914564 291.261292 
L 442.997 291.261292 
z
" style="fill:#1f77b4;"/>
   </g>
   <g id="patch_44">
    <path clip-path="url(#pb425eadfa2)" d="M 442.997 290.472683 
L 445.070932 290.472683 
L 445.070932 287.318248 
L 442.997 287.318248 
z
" style="fill:#1f77b4;"/>
   </g>
   <g id="patch_45">
    <path clip-path="url(#pb425eadfa2)" d="M 442.997 286.529639 
L 445.095621 286.529639 
L 445.095621 283.375203 
L 442.997 283.375203 
z
" style="fill:#1f77b4;"/>
   </g>
   <g id="patch_46">
    <path clip-path="url(#pb425eadfa2)" d="M 442.997 282.586594 
L 445.153231 282.586594 
L 445.153231 279.432158 
L 442.997 279.432158 
z
" style="fill:#1f77b4;"/>
   </g>
   <g id="patch_47">
    <path clip-path="url(#pb425eadfa2)" d="M 442.997 278.643549 
L 445.21084 278.643549 
L 445.21084 275.489113 
L 442.997 275.489113 
z
" style="fill:#1f77b4;"/>
   </g>
   <g id="patch_48">
    <path clip-path="url(#pb425eadfa2)" d="M 442.997 274.700504 
L 445.268449 274.700504 
L 445.268449 271.546068 
L 442.997 271.546068 
z
" style="fill:#1f77b4;"/>
   </g>
   <g id="patch_49">
    <path clip-path="url(#pb425eadfa2)" d="M 442.997 270.757459 
L 445.284909 270.757459 
L 445.284909 267.603023 
L 442.997 267.603023 
z
" style="fill:#1f77b4;"/>
   </g>
   <g id="patch_50">
    <path clip-path="url(#pb425eadfa2)" d="M 442.997 266.814414 
L 445.383668 266.814414 
L 445.383668 263.659978 
L 442.997 263.659978 
z
" style="fill:#1f77b4;"/>
   </g>
   <g id="patch_51">
    <path clip-path="url(#pb425eadfa2)" d="M 442.997 262.871369 
L 445.433047 262.871369 
L 445.433047 259.716933 
L 442.997 259.716933 
z
" style="fill:#1f77b4;"/>
   </g>
   <g id="patch_52">
    <path clip-path="url(#pb425eadfa2)" d="M 442.997 258.928324 
L 445.457737 258.928324 
L 445.457737 255.773888 
L 442.997 255.773888 
z
" style="fill:#1f77b4;"/>
   </g>
   <g id="patch_53">
    <path clip-path="url(#pb425eadfa2)" d="M 442.997 254.985279 
L 445.729323 254.985279 
L 445.729323 251.830843 
L 442.997 251.830843 
z
" style="fill:#1f77b4;"/>
   </g>
   <g id="patch_54">
    <path clip-path="url(#pb425eadfa2)" d="M 442.997 251.042234 
L 446.124358 251.042234 
L 446.124358 247.887798 
L 442.997 247.887798 
z
" style="fill:#1f77b4;"/>
   </g>
   <g id="patch_55">
    <path clip-path="url(#pb425eadfa2)" d="M 442.997 247.099189 
L 446.963806 247.099189 
L 446.963806 243.944754 
L 442.997 243.944754 
z
" style="fill:#1f77b4;"/>
   </g>
   <g id="patch_56">
    <path clip-path="url(#pb425eadfa2)" d="M 442.997 243.156145 
L 447.358841 243.156145 
L 447.358841 240.001709 
L 442.997 240.001709 
z
" style="fill:#1f77b4;"/>
   </g>
   <g id="patch_57">
    <path clip-path="url(#pb425eadfa2)" d="M 442.997 239.2131 
L 448.074841 239.2131 
L 448.074841 236.058664 
L 442.997 236.058664 
z
" style="fill:#1f77b4;"/>
   </g>
   <g id="patch_58">
    <path clip-path="url(#pb425eadfa2)" d="M 442.997 235.270055 
L 448.362887 235.270055 
L 448.362887 232.115619 
L 442.997 232.115619 
z
" style="fill:#1f77b4;"/>
   </g>
   <g id="patch_59">
    <path clip-path="url(#pb425eadfa2)" d="M 442.997 231.32701 
L 449.120037 231.32701 
L 449.120037 228.172574 
L 442.997 228.172574 
z
" style="fill:#1f77b4;"/>
   </g>
   <g id="patch_60">
    <path clip-path="url(#pb425eadfa2)" d="M 442.997 227.383965 
L 450.025325 227.383965 
L 450.025325 224.229529 
L 442.997 224.229529 
z
" style="fill:#1f77b4;"/>
   </g>
   <g id="patch_61">
    <path clip-path="url(#pb425eadfa2)" d="M 442.997 223.44092 
L 450.157003 223.44092 
L 450.157003 220.286484 
L 442.997 220.286484 
z
" style="fill:#1f77b4;"/>
   </g>
   <g id="patch_62">
    <path clip-path="url(#pb425eadfa2)" d="M 442.997 219.497875 
L 450.37098 219.497875 
L 450.37098 216.343439 
L 442.997 216.343439 
z
" style="fill:#1f77b4;"/>
   </g>
   <g id="patch_63">
    <path clip-path="url(#pb425eadfa2)" d="M 442.997 215.55483 
L 450.494428 215.55483 
L 450.494428 212.400394 
L 442.997 212.400394 
z
" style="fill:#1f77b4;"/>
   </g>
   <g id="patch_64">
    <path clip-path="url(#pb425eadfa2)" d="M 442.997 211.611785 
L 451.218658 211.611785 
L 451.218658 208.457349 
L 442.997 208.457349 
z
" style="fill:#1f77b4;"/>
   </g>
   <g id="patch_65">
    <path clip-path="url(#pb425eadfa2)" d="M 442.997 207.66874 
L 451.300957 207.66874 
L 451.300957 204.514304 
L 442.997 204.514304 
z
" style="fill:#1f77b4;"/>
   </g>
   <g id="patch_66">
    <path clip-path="url(#pb425eadfa2)" d="M 442.997 203.725696 
L 451.597233 203.725696 
L 451.597233 200.57126 
L 442.997 200.57126 
z
" style="fill:#1f77b4;"/>
   </g>
   <g id="patch_67">
    <path clip-path="url(#pb425eadfa2)" d="M 442.997 199.782651 
L 453.234981 199.782651 
L 453.234981 196.628215 
L 442.997 196.628215 
z
" style="fill:#1f77b4;"/>
   </g>
   <g id="patch_68">
    <path clip-path="url(#pb425eadfa2)" d="M 442.997 195.839606 
L 453.28436 195.839606 
L 453.28436 192.68517 
L 442.997 192.68517 
z
" style="fill:#1f77b4;"/>
   </g>
   <g id="patch_69">
    <path clip-path="url(#pb425eadfa2)" d="M 442.997 191.896561 
L 453.448958 191.896561 
L 453.448958 188.742125 
L 442.997 188.742125 
z
" style="fill:#1f77b4;"/>
   </g>
   <g id="patch_70">
    <path clip-path="url(#pb425eadfa2)" d="M 442.997 187.953516 
L 453.506567 187.953516 
L 453.506567 184.79908 
L 442.997 184.79908 
z
" style="fill:#1f77b4;"/>
   </g>
   <g id="patch_71">
    <path clip-path="url(#pb425eadfa2)" d="M 442.997 184.010471 
L 454.559993 184.010471 
L 454.559993 180.856035 
L 442.997 180.856035 
z
" style="fill:#1f77b4;"/>
   </g>
   <g id="patch_72">
    <path clip-path="url(#pb425eadfa2)" d="M 442.997 180.067426 
L 455.802706 180.067426 
L 455.802706 176.91299 
L 442.997 176.91299 
z
" style="fill:#1f77b4;"/>
   </g>
   <g id="patch_73">
    <path clip-path="url(#pb425eadfa2)" d="M 442.997 176.124381 
L 458.230523 176.124381 
L 458.230523 172.969945 
L 442.997 172.969945 
z
" style="fill:#1f77b4;"/>
   </g>
   <g id="patch_74">
    <path clip-path="url(#pb425eadfa2)" d="M 442.997 172.181336 
L 458.888914 172.181336 
L 458.888914 169.0269 
L 442.997 169.0269 
z
" style="fill:#1f77b4;"/>
   </g>
   <g id="patch_75">
    <path clip-path="url(#pb425eadfa2)" d="M 442.997 168.238291 
L 461.102754 168.238291 
L 461.102754 165.083855 
L 442.997 165.083855 
z
" style="fill:#1f77b4;"/>
   </g>
   <g id="patch_76">
    <path clip-path="url(#pb425eadfa2)" d="M 442.997 164.295246 
L 462.542985 164.295246 
L 462.542985 161.140811 
L 442.997 161.140811 
z
" style="fill:#1f77b4;"/>
   </g>
   <g id="patch_77">
    <path clip-path="url(#pb425eadfa2)" d="M 442.997 160.352202 
L 464.625146 160.352202 
L 464.625146 157.197766 
L 442.997 157.197766 
z
" style="fill:#1f77b4;"/>
   </g>
   <g id="patch_78">
    <path clip-path="url(#pb425eadfa2)" d="M 442.997 156.409157 
L 465.727951 156.409157 
L 465.727951 153.254721 
L 442.997 153.254721 
z
" style="fill:#1f77b4;"/>
   </g>
   <g id="patch_79">
    <path clip-path="url(#pb425eadfa2)" d="M 442.997 152.466112 
L 467.554986 152.466112 
L 467.554986 149.311676 
L 442.997 149.311676 
z
" style="fill:#1f77b4;"/>
   </g>
   <g id="patch_80">
    <path clip-path="url(#pb425eadfa2)" d="M 442.997 148.523067 
L 467.563216 148.523067 
L 467.563216 145.368631 
L 442.997 145.368631 
z
" style="fill:#1f77b4;"/>
   </g>
   <g id="patch_81">
    <path clip-path="url(#pb425eadfa2)" d="M 442.997 144.580022 
L 469.061056 144.580022 
L 469.061056 141.425586 
L 442.997 141.425586 
z
" style="fill:#1f77b4;"/>
   </g>
   <g id="patch_82">
    <path clip-path="url(#pb425eadfa2)" d="M 442.997 140.636977 
L 469.159815 140.636977 
L 469.159815 137.482541 
L 442.997 137.482541 
z
" style="fill:#1f77b4;"/>
   </g>
   <g id="patch_83">
    <path clip-path="url(#pb425eadfa2)" d="M 442.997 136.693932 
L 470.032183 136.693932 
L 470.032183 133.539496 
L 442.997 133.539496 
z
" style="fill:#1f77b4;"/>
   </g>
   <g id="patch_84">
    <path clip-path="url(#pb425eadfa2)" d="M 442.997 132.750887 
L 470.073332 132.750887 
L 470.073332 129.596451 
L 442.997 129.596451 
z
" style="fill:#1f77b4;"/>
   </g>
   <g id="patch_85">
    <path clip-path="url(#pb425eadfa2)" d="M 442.997 128.807842 
L 471.554712 128.807842 
L 471.554712 125.653406 
L 442.997 125.653406 
z
" style="fill:#1f77b4;"/>
   </g>
   <g id="patch_86">
    <path clip-path="url(#pb425eadfa2)" d="M 442.997 124.864797 
L 475.867174 124.864797 
L 475.867174 121.710361 
L 442.997 121.710361 
z
" style="fill:#1f77b4;"/>
   </g>
   <g id="patch_87">
    <path clip-path="url(#pb425eadfa2)" d="M 442.997 120.921752 
L 479.397796 120.921752 
L 479.397796 117.767317 
L 442.997 117.767317 
z
" style="fill:#1f77b4;"/>
   </g>
   <g id="patch_88">
    <path clip-path="url(#pb425eadfa2)" d="M 442.997 116.978708 
L 493.536744 116.978708 
L 493.536744 113.824272 
L 442.997 113.824272 
z
" style="fill:#1f77b4;"/>
   </g>
   <g id="patch_89">
    <path clip-path="url(#pb425eadfa2)" d="M 442.997 113.035663 
L 498.482906 113.035663 
L 498.482906 109.881227 
L 442.997 109.881227 
z
" style="fill:#1f77b4;"/>
   </g>
   <g id="patch_90">
    <path clip-path="url(#pb425eadfa2)" d="M 442.997 109.092618 
L 545.854143 109.092618 
L 545.854143 105.938182 
L 442.997 105.938182 
z
" style="fill:#1f77b4;"/>
   </g>
   <g id="matplotlib.axis_3">
    <g id="xtick_8">
     <g id="line2d_23">
      <g>
       <use style="stroke:#000000;stroke-width:0.8;" x="442.997" xlink:href="#m66a49e8851" y="312.12"/>
      </g>
     </g>
     <g id="text_57">
      <!-- 0 -->
      <g transform="translate(439.81575 326.718437)scale(0.1 -0.1)">
       <use xlink:href="#DejaVuSans-30"/>
      </g>
     </g>
    </g>
    <g id="xtick_9">
     <g id="line2d_24">
      <g>
       <use style="stroke:#000000;stroke-width:0.8;" x="482.733781" xlink:href="#m66a49e8851" y="312.12"/>
      </g>
     </g>
     <g id="text_58">
      <!-- 5 -->
      <g transform="translate(479.552531 326.718437)scale(0.1 -0.1)">
       <use xlink:href="#DejaVuSans-35"/>
      </g>
     </g>
    </g>
    <g id="xtick_10">
     <g id="line2d_25">
      <g>
       <use style="stroke:#000000;stroke-width:0.8;" x="522.470561" xlink:href="#m66a49e8851" y="312.12"/>
      </g>
     </g>
     <g id="text_59">
      <!-- 10 -->
      <g transform="translate(516.108061 326.718437)scale(0.1 -0.1)">
       <use xlink:href="#DejaVuSans-31"/>
       <use x="63.623047" xlink:href="#DejaVuSans-30"/>
      </g>
     </g>
    </g>
   </g>
   <g id="patch_91">
    <path d="M 442.997 312.12 
L 442.997 96.12 
" style="fill:none;stroke:#000000;stroke-linecap:square;stroke-linejoin:miter;stroke-width:0.8;"/>
   </g>
   <g id="patch_92">
    <path d="M 550.997 312.12 
L 550.997 96.12 
" style="fill:none;stroke:#000000;stroke-linecap:square;stroke-linejoin:miter;stroke-width:0.8;"/>
   </g>
   <g id="patch_93">
    <path d="M 442.997 312.12 
L 550.997 312.12 
" style="fill:none;stroke:#000000;stroke-linecap:square;stroke-linejoin:miter;stroke-width:0.8;"/>
   </g>
   <g id="patch_94">
    <path d="M 442.997 96.12 
L 550.997 96.12 
" style="fill:none;stroke:#000000;stroke-linecap:square;stroke-linejoin:miter;stroke-width:0.8;"/>
   </g>
   <g id="text_60">
    <!-- Top 50 -->
    <g transform="translate(477.330125 90.12)scale(0.12 -0.12)">
     <defs>
      <path d="M -19 4666 
L 3928 4666 
L 3928 4134 
L 2272 4134 
L 2272 0 
L 1638 0 
L 1638 4134 
L -19 4134 
L -19 4666 
z
" id="DejaVuSans-54" transform="scale(0.015625)"/>
     </defs>
     <use xlink:href="#DejaVuSans-54"/>
     <use x="44.083984" xlink:href="#DejaVuSans-6f"/>
     <use x="105.265625" xlink:href="#DejaVuSans-70"/>
     <use x="168.742188" xlink:href="#DejaVuSans-20"/>
     <use x="200.529297" xlink:href="#DejaVuSans-35"/>
     <use x="264.152344" xlink:href="#DejaVuSans-30"/>
    </g>
   </g>
  </g>
 </g>
 <defs>
  <clipPath id="p1ededfcfbd">
   <rect height="364.6" width="424.01" x="141.19" y="25.44"/>
  </clipPath>
  <clipPath id="pb425eadfa2">
   <rect height="216" width="108" x="442.997" y="96.12"/>
  </clipPath>
 </defs>
</svg>
